<?xml version="1.0" encoding="utf-8"?>
<!-- Generator: Adobe Illustrator 26.4.1, SVG Export Plug-In . SVG Version: 6.00 Build 0)  -->
<svg version="1.1" xmlns="http://www.w3.org/2000/svg" xmlns:xlink="http://www.w3.org/1999/xlink" x="0px" y="0px"
	 viewBox="0 0 520 520" style="enable-background:new 0 0 520 520;" xml:space="preserve">
<style type="text/css">
	.st0{fill:#FFFFFF;stroke:#FFFFFF;}
	.st1{fill:#404041;}
	.st2{fill:none;}
</style>
<g id="Layer_2_00000145763532901025467670000016620980229434829721_">
	<rect x="0.5" y="0.5" class="st0" width="520" height="520"/>
</g>
<g id="Layer_3">
	<polygon class="st1" points="71,234.4 82.6,234.4 82.6,237.3 74.3,237.3 74.3,240.4 81.6,240.4 81.6,243.4 74.3,243.4 74.3,249.1 
		71,249.1 	"/>
	<rect x="86.6" y="234.4" class="st1" width="3.4" height="14.7"/>
	<polygon class="st1" points="95,234.4 98.1,234.4 105.3,243.4 105.3,234.4 108.6,234.4 108.6,249.1 105.7,249.1 98.3,239.7 
		98.3,249.1 95,249.1 	"/>
	<rect x="113.6" y="234.4" class="st1" width="3.4" height="14.7"/>
	<path class="st1" d="M121.5,238.6L121.5,238.6c0,3,2,3.8,5.1,4.5c2.5,0.6,3.1,1,3.1,1.9v0c0,0.9-0.8,1.4-2.2,1.4
		c-1.8,0-3.2-0.7-4.6-1.8l-2,2.3c1.9,1.6,4.2,2.4,6.5,2.4c3.3,0,5.6-1.6,5.6-4.6v0c0-2.5-1.8-3.6-4.8-4.4c-2.6-0.6-3.3-0.9-3.3-1.9
		l0,0c0-0.7,0.7-1.3,2-1.3s2.6,0.6,4,1.5l1.8-2.5c-1.6-1.2-3.4-1.9-5.7-1.9C123.7,234.2,121.5,235.9,121.5,238.6"/>
	<polygon class="st1" points="146.7,234.4 146.7,240.2 140.5,240.2 140.5,234.4 137.1,234.4 137.1,249.1 140.5,249.1 140.5,243.2 
		146.7,243.2 146.7,249.1 150.1,249.1 150.1,234.4 	"/>
	<rect x="155.1" y="234.4" class="st1" width="3.4" height="14.7"/>
	<polygon class="st1" points="173.7,234.4 173.7,243.4 166.5,234.4 163.4,234.4 163.4,249.1 166.7,249.1 166.7,239.7 174.2,249.1 
		177,249.1 177,234.4 	"/>
	<path class="st1" d="M181.2,241.7L181.2,241.7c0,4.4,3.3,7.6,8,7.6c2.8,0,5-1,6.6-2.3v-6.4h-6.6v2.8h3.4v2.1
		c-0.9,0.6-1.9,0.9-3.1,0.9c-2.7,0-4.6-2-4.6-4.7v0c0-2.5,1.9-4.6,4.4-4.6c1.8,0,2.8,0.6,4,1.5l2.1-2.5c-1.6-1.3-3.3-2-6-2
		C184.5,234.1,181.2,237.5,181.2,241.7"/>
	<polygon class="st1" points="206.8,234.4 206.8,237.4 211.4,237.4 211.4,249.1 214.8,249.1 214.8,237.4 219.5,237.4 219.5,234.4 	
		"/>
	<path class="st1" d="M225.4,241.7L225.4,241.7c0-2.5,1.9-4.6,4.6-4.6c2.7,0,4.6,2.1,4.6,4.6v0c0,2.5-1.9,4.6-4.6,4.6
		S225.4,244.3,225.4,241.7 M221.9,241.7L221.9,241.7c0,4.2,3.4,7.6,8.1,7.6c4.7,0,8.1-3.4,8.1-7.6v0c0-4.2-3.4-7.5-8.1-7.5
		S221.9,237.5,221.9,241.7"/>
	<path class="st1" d="M252.1,234.4v8.4c0,2.3-1.3,3.5-3.3,3.5s-3.3-1.3-3.3-3.6v-8.3h-3.4v8.4c0,4.3,2.5,6.6,6.6,6.6
		s6.7-2.2,6.7-6.6v-8.3H252.1z"/>
	<g>
		<g>
			<path id="SVGID_00000137817996568886596670000000425125390811469200_" class="st1" d="M259.3,241.7L259.3,241.7
				c0,4.3,3.4,7.6,7.8,7.6c2.9,0,4.7-1,6.3-2.6l-2.2-2.1c-1.2,1-2.3,1.7-4,1.7c-2.6,0-4.4-2.1-4.4-4.6v0c0-2.5,1.9-4.6,4.4-4.6
				c1.5,0,2.7,0.6,3.9,1.7l2.2-2.4c-1.4-1.3-3.1-2.3-6-2.3C262.6,234.1,259.3,237.5,259.3,241.7"/>
		</g>
	</g>
	<polygon class="st1" points="286.9,234.4 286.9,240.2 280.7,240.2 280.7,234.4 277.3,234.4 277.3,249.1 280.7,249.1 280.7,243.2 
		286.9,243.2 286.9,249.1 290.2,249.1 290.2,234.4 	"/>
	<polygon class="st1" points="70.1,310 70.1,260 103.6,260 103.6,268.5 79.8,268.5 79.8,281.4 99.6,281.4 99.6,289.3 79.8,289.3 
		79.8,310 	"/>
	<polygon class="st1" points="147.3,310 147.3,301.5 121.9,301.5 121.9,260 112.1,260 112.1,310 	"/>
	<path class="st1" d="M180.8,260h-7.9l-19.7,50h10.3l4.6-12.5h17.5l4.6,12.5h10.3L180.8,260z M169.6,290.7l7.2-20.2l7,20.2H169.6z"
		/>
	<polygon class="st1" points="229.4,282.9 223.2,298.9 209,260 198.5,260 218.8,310 227,310 235.6,289 244.3,310 252.4,310 
		272.8,260 262.2,260 248.1,298.9 241.7,282.9 250.3,260.2 241.2,260.2 235.6,276.7 230,260.2 221,260.2 	"/>
	<polygon class="st1" points="315.8,310 315.8,301.5 290.2,301.5 290.2,260 280.5,260 280.5,310 	"/>
	<polygon class="st1" points="333.6,301.5 333.6,288.5 354.7,288.5 354.7,280.6 333.6,280.6 333.6,268.5 358,268.5 358,260 
		323.9,260 323.9,310 358.6,310 358.6,301.5 	"/>
	<path class="st1" d="M403.6,265.3c-4.4-3-10.5-5.6-17.5-5.6c-10.1,0-18.2,5.5-18.2,15.7c0,7.7,4.7,10.9,14.2,13.5
		c7.8,2.1,13,3.4,13,7.8c0,3.3-2.8,5.1-8,5.1c-7.6,0-15.1-4.4-16.9-6.1l-4.3,8.4c5.8,4.1,13.5,6.5,21,6.5c9.9,0,18.5-4.1,18.5-14.9
		c0-9.2-6.2-12.2-16.1-14.8c-7.5-2-11.4-3-11.4-7.1c0-3.6,2.7-5.6,8-5.6c6,0,12.2,3.5,13.4,4.9L403.6,265.3z"/>
	<path class="st1" d="M449.6,265.3c-4.4-3-10.5-5.6-17.5-5.6c-10.1,0-18.2,5.5-18.2,15.7c0,7.7,4.7,10.9,14.2,13.5
		c7.8,2.1,13,3.4,13,7.8c0,3.3-2.8,5.1-8,5.1c-7.6,0-15.1-4.4-16.9-6.1l-4.3,8.4c5.8,4.1,13.5,6.5,21,6.5c9.9,0,18.5-4.1,18.5-14.9
		c0-9.2-6.2-12.2-16.1-14.8c-7.5-2-11.4-3-11.4-7.1c0-3.6,2.7-5.6,8-5.6c6,0,12.2,3.5,13.4,4.9L449.6,265.3z"/>
	<path class="st1" d="M456.1,266.5h-1.6v3.8h-1.3v-3.8h-1.6v-1.3h4.5L456.1,266.5L456.1,266.5z M461,265.3h1.8v5h-1.3v-3.4l-1.3,2.7
		h-1l-1.3-2.7v3.4h-1.3v-5h1.8l1.2,2.9L461,265.3z"/>
	<rect x="69.1" y="231.2" class="st2" width="393.7" height="79.4"/>
</g>
</svg>
