<?xml version="1.0" encoding="UTF-8"?><svg id="Layer_1" xmlns="http://www.w3.org/2000/svg" viewBox="0 0 512 159"><path d="M24.7698,151.9269c-.8417-.4209-2.6655-1.4029-3.7878-2.1044-3.367-2.1044-4.349-2.5252-6.5936-2.8058-2.3849-.2806-3.2267-.8418-5.331-3.5073-.7015-.982-2.1044-2.3849-3.0864-3.0864-3.7878-3.0864-4.6296-4.7698-5.0504-10.3814-.1403-1.9641-.4209-5.0505-.5612-6.734l-.2806-3.0864,.8417-2.3849c2.1044-5.6116,4.4893-9.3995,7.716-12.4858,2.6655-2.5252,5.0504-3.7879,6.5936-3.5073,.982,.1403,1.1223,0,2.3849-1.1223,1.8238-1.6835,2.5253-1.9641,6.5937-2.6655,1.9641-.2806,4.4893-.8418,5.7519-1.2626,1.2626-.4209,3.0864-.7015,4.0684-.8418,.982-.1403,2.5252-.4208,3.2267-.7014,.982-.4209,2.1043-.5612,3.6475-.5612,2.6656,0,4.349-.5611,8.4175-2.9461l2.6655-1.5432,2.6655,.1403c3.0864,.1403,3.9281-.1403,4.4893-1.2626,.982-1.964,1.8238-9.2591,1.2626-12.2052-.4209-1.9641-1.2626-4.4893-1.9641-5.0505-.2806-.1403-1.8238-.5611-3.5072-.7014-2.2447-.2806-3.5073-.5612-4.4893-1.1224-1.6835-.8417-2.9461-.8417-5.6116-.1403-2.6656,.7015-3.2267,.7015-4.6296-.2805-.982-.7015-1.4029-.8418-2.9461-.8418-.982,0-2.3849-.1403-3.2267-.4209-2.1043-.5611-3.6475-.5611-5.6116,.1403-2.1044,.7015-3.367,1.8238-3.367,2.9461,0,.4209,.5612,1.6835,1.2626,2.9461l1.2627,2.2447-.1403,2.6655c-.1403,3.2267-1.1224,6.5936-2.385,8.1368-1.964,2.385-3.7878,3.0864-7.1548,2.2447-1.8237-.4209-2.3849-.4209-3.7878-.1403s-1.8238,.2806-2.9461-.1403c-1.8238-.7015-4.2087-2.385-5.331-3.6476-1.6835-2.1043-2.6655-6.5936-2.6655-11.2232,0-6.5936,2.2446-10.8024,7.1548-13.6082,1.4029-.7014,2.8058-1.964,4.7699-3.7878,1.5432-1.5432,3.2267-3.0864,3.9282-3.5073,.7014-.4208,1.964-1.2626,2.8058-1.964l1.6834-1.2626h4.2088c3.5072,0,4.6295,0,5.8921-.4209,.8418-.2806,3.367-.7014,5.3311-.8417,3.5072-.2806,3.7878-.4209,5.331-1.4029,1.8238-1.1224,2.3849-1.1224,4.6296-.5612,.8417,.2806,3.0864,.5612,4.9102,.8418,4.2087,.5611,4.7698,.7014,6.7339,1.8237,.8417,.5612,2.8058,1.4029,4.2087,1.9641,2.5252,.982,2.6655,1.1223,5.4713,3.9281,3.6476,3.6476,5.3311,6.0325,6.8743,9.1189,1.6834,3.5073,2.3849,5.7519,2.8058,10.2412,.1403,2.2446,.5611,4.4893,.8417,5.331,.4209,1.1224,.4209,1.5432,.1403,2.5253-.4209,1.5432-.4209,2.9461,0,5.331,.2806,1.5432,.2806,2.5252-.1403,5.6116-.2806,2.1043-.5612,6.1727-.7014,9.1189-.1403,2.9461-.4209,5.7519-.5612,6.4533-.5612,1.9641-.5612,4.349-.1403,6.0325,.5612,2.1043,.5612,3.3669-.4209,5.6116-.4209,1.2626-.8417,2.5252-.8417,3.3669,0,1.9641,2.1043,7.2952,3.0864,7.716,.2805,.1403,.982,.1403,1.5432,.1403,.982,0,1.1223-.1403,2.3849-1.8237,1.5432-2.1044,2.5252-2.8058,4.4893-2.8058,2.2446,0,11.7844,1.1223,14.8708,1.6835,3.5072,.7014,3.7878,.5611,4.4892-.8418,.7015-1.4029,.9821-3.0864,1.9641-11.7844,1.2626-10.3814,1.2626-10.8023,.4209-11.9247-.5612-.8417-.5612-.982-.4209-4.4893,.1403-1.964,.2806-5.331,.4209-7.5756,.2806-4.349,.1403-8.4174-.4209-12.6262-.5611-3.9281-.5611-6.4533,.1403-9.1188,.982-3.5073,.8418-3.9282-.7014-6.5937-1.6835-2.8058-1.8238-3.6475-.5612-7.2951,.8417-2.6655,.8417-3.0863,.1403-5.8921l-.5612-1.8238,.7015-1.4029c.8417-1.8238,.7014-2.5253-.982-6.4534-.7015-1.6835-1.5432-3.6475-1.8238-4.4893-.8418-2.5252-1.4029-2.9461-3.367-1.964-1.5432,.7014-2.5252,.7014-4.6296-.2806-1.964-.982-2.3849-.982-3.2266-.4209-.8418,.7015-2.5253,.9821-3.5073,.7015-.4209-.1403-1.4029-.7015-2.2446-1.2626-.7015-.5612-2.5253-1.6835-3.9282-2.5253-3.2267-1.6834-5.0504-3.6475-6.1728-6.0324-1.6834-3.5073-.8417-7.5757,2.2447-12.065,2.1043-3.0864,4.2087-5.1908,6.0325-6.1728,2.1043-1.1223,3.3669-1.1223,6.4533,0,3.9282,1.4029,5.8922,1.6835,13.8888,2.2447,2.6655,.1403,5.7519,.4208,6.8742,.7014,2.5252,.5612,2.9461,.5612,5.0504-.1403l1.8238-.5611,1.9641,.982c2.9461,1.4029,3.5072,2.1044,3.9281,4.9102,.8418,4.4892,3.0864,12.3455,4.4893,15.011,1.1223,2.1044,1.1223,4.0684-.1403,7.5757q-1.5432,4.0684-1.6835,9.1189c-.2806,4.6295-.2806,4.9101-1.1223,7.0145l-.8418,2.1043v22.1659l1.2626,2.9461,1.2627,2.9461-.9821,3.0864c-.5611,1.6835-.982,3.5072-.982,4.0684s.4209,2.2446,.8417,3.7878q.8418,2.8058,.5612,5.4713c-.4209,3.5073-.4209,4.349,.2806,6.4534,.7014,2.2447,.7014,3.0864,0,6.4534-.4209,1.964-.5612,3.7878-.5612,7.0145,0,4.7698,.2806,6.8742,1.4029,8.9786,.8418,1.4029,.8418,1.5432,5.1908,2.5252,2.8058,.7014,3.2266,.7014,4.349,.4208,.7014-.1403,2.2446-.982,3.5072-1.8237,4.0684-2.6656,3.7879-2.6656,12.3456-2.1044,4.6296,.2806,10.662,.4209,11.7844,.4209,.8417,0,2.1043-4.9102,2.8058-11.5039,.2805-2.6655,.8417-6.313,1.2626-8.1368,.7014-3.5072,.7014-3.6475-.5612-5.1907-.5611-.7015-.5611-.8418-.2806-5.3311,.4209-6.5936,.4209-15.2916-.1403-20.2018l-.4208-4.0684,.7014-3.2266c.982-4.4893,.982-4.7699-.5611-7.2951-1.5432-2.5253-1.8238-3.7879-.8418-6.4534,.7015-2.2446,.8418-4.6296,.2806-7.1548-.2806-1.5432-.2806-1.6835,.1403-2.6655,.8417-1.4029,.7014-2.5252-.5612-5.6116-.5611-1.4029-1.5432-3.7879-2.1043-5.0505-1.1223-3.0864-1.5432-3.6475-2.385-3.6475-.2805,0-1.1223,.2805-1.6834,.7014l-.9821,.7015-2.2446-.4209c-1.2626-.2806-2.8058-.4209-3.6476-.4209-1.4029,0-1.5432,0-2.2446-1.1223-1.1223-1.6835-1.2626-1.6835-3.5073-2.1044-1.4029-.1403-2.2446-.4208-3.2267-1.1223-1.6834-1.1223-3.0863-2.8058-3.9281-4.6296-.982-2.1043-.982-5.7519-.1403-8.698,.8418-2.9461,2.8058-6.4533,4.349-7.9965,1.2626-1.2626,3.6476-2.6655,4.6296-2.6655,.2806,0,1.8238,.4208,3.5073,1.1223,1.5432,.5612,3.6475,1.1223,4.4892,1.2626,.8418,.1403,2.385,.4209,3.2267,.7015,1.4029,.5611,2.1044,.5611,5.7519,.5611,3.7879-.1403,4.2087,0,6.0325,.5612l1.8238,.7014,2.3849-.7014,2.385-.7015,1.6834,.8418c2.1044,.982,2.5253,1.4029,2.9461,2.3849,.1403,.4209,.9821,3.6475,1.9641,7.2951,1.4029,5.4713,1.8238,7.0145,3.0864,9.3994,1.2626,2.6655,1.4029,2.9461,1.2626,4.2087-.1403,.7015-.7015,2.8058-1.2626,4.349-1.1223,2.8058-1.1223,3.2267-1.5432,7.8563-.2806,4.349-.4209,5.1907-1.2626,7.2951-.9821,2.8058-1.4029,5.7519-1.4029,12.6261s.4208,10.5218,1.4029,13.6082c1.2626,4.0684,1.4029,5.331,.1403,8.5577l-.9821,2.6655,.9821,2.9461,.982,2.9461-.1403,4.0684c-.1403,4.0685-.1403,4.2088,.5612,6.1728l.7014,2.1044-.8417,4.4893c-1.2626,6.313-1.4029,7.7159-1.4029,10.1009,0,1.964,.1403,2.2446,1.1223,4.349,1.2626,2.5252,1.5432,2.6655,5.6116,3.6476,3.367,.8417,4.349,.8417,7.9965-.2806,2.9461-.8418,7.716-1.4029,9.6801-1.1223,2.5252,.2805,4.349,1.6835,5.7519,4.0684,1.2626,2.2446,1.8237,4.6295,1.2626,6.4533-.7015,2.9461-3.367,7.0145-5.0505,7.9966-.4209,.1403-1.8238,.2806-3.7878,.4208-2.5252,0-3.6476,.1403-5.8922,.7015l-2.8058,.7014-2.2447-.5611c-3.0863-.7015-5.6116-.9821-7.9965-.5612-1.5432,.2806-3.0864,.2806-6.5936,0-7.2951-.5611-9.6801-.4208-12.4859,.2806q-2.6655,.7015-6.0325-.5611c-1.5432-.5612-1.8237-.5612-3.7878-.2806l-2.2447,.2806-1.6834-.8418c-.9821-.4208-1.9641-.8417-2.385-.8417s-1.4029,.4208-2.1043,.982l-1.4029,.9821-2.6655-.1403c-2.1044,0-3.2267,0-5.6116,.7014-2.8058,.7015-2.9461,.7015-5.3311,.4209-1.4029-.1403-5.331-.4209-9.5397-.4209-3.9282,0-8.5577-.1403-10.1009-.2806-2.8058-.2806-2.9461-.1403-5.1908,.5612l-2.3849,.8417-1.964-.8417c-1.9641-.8418-2.1044-.8418-5.0505-.8418q-3.0864,0-5.0505-.8417c-1.6834-.8418-2.1043-.9821-3.0863-.8418-1.6835,.2806-4.9102,1.1223-6.1728,1.8238-.8418,.4208-1.8238,.5611-3.9281,.5611-1.5432,0-3.7879,.1403-4.9102,.2806-4.6296,.7015-8.2771-.7014-11.5038-4.2087-2.1044-2.3849-3.9281-3.6475-5.4713-3.9281-1.1223-.1403-1.6835,0-3.367,1.4029-.5612,.5612-2.6655,1.6835-4.6296,2.6655-1.964,.9821-4.0684,2.1044-4.6296,2.5252-.5611,.4209-1.2626,.9821-1.6834,1.1223-.7015,.4209-7.1548,.8418-11.9247,.8418-5.0505,0-7.5757,.4209-10.3815,1.5432-1.4029,.5612-2.9461,.982-3.367,.982-.7014,.1403-1.964-.2806-2.8058-.7014h0Zm9.1189-16.414c2.1044-1.1223,2.9461-1.2626,7.8563-1.5432,3.9281-.2806,4.6296-.2806,5.0504-.7015,.2806-.2806,1.1223-1.6835,2.1044-2.9461,2.3849-3.3669,2.9461-3.9281,7.9965-7.2951,3.6476-2.5252,4.4893-3.0864,4.9102-3.9281,.5611-1.2626,.8417-9.2592,.4209-10.6621-.1403-.5611-.5612-1.1223-.9821-1.5432q-.7014-.5611-3.0864,0c-1.2626,.2806-3.9281,.9821-5.6116,1.5432-2.8058,.8418-3.9281,.9821-7.7159,1.2626-7.716,.4209-9.9606,.9821-14.3096,3.0864-1.2627,.7015-3.6476,1.6835-5.3311,2.385-1.6835,.7014-3.2267,1.5432-3.6475,1.8237-.8418,.8418-2.1044,3.6476-2.5253,5.6116-.982,5.1908,1.403,9.5398,6.1728,10.9427,1.1224,.2806,2.9461,.982,4.0684,1.5432,2.1044,1.1223,2.9461,1.2626,4.6296,.4209h0Z" style="fill:#ee1e23;"/><path d="M299.7389,149.6822c-1.5432-.4209-3.7879-.982-5.1908-1.1223-1.9641-.2806-3.367-.7015-6.5937-1.9641q-5.331-2.1043-6.313-3.5072c-.4209-.7015-1.1223-1.5432-1.4029-1.9641l-.7015-.8417-1.1223,.5611c-.5611,.2806-3.7878,2.385-7.1548,4.6296l-6.0325,4.0684-7.4354,.2806-7.4353,.2806-1.6835-.7015c-1.4029-.7014-1.8238-.7014-2.9461-.5611-.7015,.1403-2.385,.2806-3.6476,.2806-1.964,0-2.5252-.1403-3.9281-.7015-5.4713-2.6655-13.7485-15.011-17.396-25.8134q-1.9641-5.7519-2.1044-23.5687c0-8.8383-.2805-17.8169-.4208-19.9212-.2806-3.9282-.9821-8.1369-1.5432-9.6801q-.2806-.8417-1.9641-.5611c-2.1044,.2806-5.0505-.2806-6.4534-.982-3.0863-1.8238-5.8921-4.7699-6.7339-7.1549-.5612-1.5432-.5612-5.0504-.1403-8.8382,.2806-2.9461,.8418-3.9282,3.2267-5.752,3.2267-2.5252,6.4533-2.9461,10.3815-1.5432,2.3849,.8418,4.0684,1.1224,4.2087,.4209,.1403-.4209,1.2626-.8417,2.9461-1.1223,5.1907-.8418,13.8887,4.6296,16.5542,10.3815,.5612,1.2626,.5612,1.8237,.5612,4.7698,0,3.2267-.1403,3.6476-1.1223,6.5937-.9821,2.9461-1.1224,3.3669-.9821,6.1727,0,3.367,.2806,4.4893,2.2447,7.8563,1.5432,2.6655,1.6835,3.367,.5611,5.4713-.5611,.982-1.1223,2.1044-1.2626,2.5252-.5611,.9821-1.4029,4.349-1.5432,6.1728-.1403,1.4029-.1403,1.6835,.8418,3.3669l1.1223,1.8238,.1403,10.9426,.1403,10.9426,1.1223,1.403c2.8058,3.5072,5.8922,6.313,7.716,7.1548,.7014,.2806,2.3849,.4208,5.331,.5611l4.349,.1403,1.9641-2.1043c3.367-3.6476,10.662-13.1873,13.047-17.1155,1.2626-2.1043,3.2267-7.0145,3.9281-9.8203l.5612-2.3849-.7015-2.385c-.8417-3.2267-.982-4.4893-.4208-8.2771,.5611-3.6476,.4208-3.7878-.8418-7.9966-.5611-1.964-.8417-3.2266-.8417-3.7878,.1403-.4209,.8417-1.4029,1.5432-2.2446,1.6835-1.8238,1.964-2.8059,1.5432-4.0685-.5612-1.4029-1.1223-1.6834-3.367-2.2446-1.1223-.2806-3.2267-.982-4.6296-1.5432-2.5252-.982-2.6655-1.1223-4.7698-.982-4.4893,.2805-7.716-.8418-10.5218-3.6476-2.8058-2.6655-3.0864-4.2087-1.5432-7.2951,1.6835-3.2267,7.716-9.8203,10.2412-11.0829,1.4029-.7015,2.1044-.7015,5.331,0,3.6476,.8417,5.4713,.8417,7.2951,0l1.4029-.7015,1.8238,.7015c2.2447,.8417,2.8058,.982,8.5577,1.4029,5.331,.4209,7.1548,.982,8.8383,2.6655,1.2626,1.2626,1.5432,1.9641,1.9641,5.6116,.1402,1.2626,.5611,3.367,.7014,4.6296,.5612,2.8058,.7015,14.8708,.1403,21.745-.2806,4.6296-.7015,6.5936-2.1044,10.1009-.7014,1.8237-.8417,2.3849-.8417,5.331,0,2.5252,.1403,3.7879,.5611,5.4713,.5612,1.8238,.5612,3.2267,.7015,9.3995,.1403,4.349,0,8.8383-.1403,11.3635-.2806,3.9281-.2806,4.2087,.2806,5.0505,.7015,1.1223,2.2447,1.8237,6.1728,2.2446,4.9101,.7015,7.9965,1.9641,9.3994,3.9281,1.4029,1.8238,1.6835,7.5757,.7015,9.3995-.2806,.4209-1.8238,1.6835-3.367,2.6655-1.5432,.9821-3.9281,2.8058-5.331,3.7879-1.4029,1.1223-2.6655,1.964-2.8058,1.964,.2805,.5613-1.1224,.2807-2.6655-.2805h0Z" style="fill:#ee1e23;"/><path d="M323.027,148.139c-3.6475-2.6655-5.6116-6.8742-4.9102-10.3815,.9821-4.349,3.6476-6.7339,7.8563-6.7339,1.1223,0,2.8058,.1403,3.9281,.4209,1.8238,.2806,2.1044,.2806,3.367-.1403,1.8237-.7015,4.2087-2.2447,4.9101-3.367,.7015-1.1223,1.8238-6.8742,1.8238-9.1189,0-.982-.1403-2.8058-.2806-4.2087-.2806-1.8237-.1403-4.9101,.1403-13.3276,.5612-14.5901,.4209-31.5653-.2806-33.6696-.7014-1.8238-2.1044-3.0864-5.331-4.9102-4.2087-2.3849-3.6476-2.2446-6.5937-.982s-4.0684,1.4029-6.0324,.7014c-4.349-1.6834-8.4175-6.0324-9.9607-10.2412-.2806-.982-.4208-1.5432-.1403-2.3849,.8418-4.0684,4.0685-7.1548,8.6981-8.5577,1.8237-.5612,2.3849-.5612,10.8023-.5612,8.5577,.1403,8.8383,.1403,9.9606,.7015,1.403,.7014,1.9641,.7014,4.0685,0,3.2266-1.1223,7.4353-.7015,9.9606,1.1223,1.4029,.9821,1.8237,2.1044,3.2266,6.4534,1.1223,3.6475,1.9641,5.4713,2.9461,5.6116,1.4029,.2806,2.5253-.4209,7.2952-4.4893,2.5252-2.2446,4.4893-3.2267,6.313-3.2267,1.1223,0,1.4029-.1403,3.367-1.8237,3.3669-2.9462,6.8742-4.2088,10.8023-4.2088,1.403,0,2.6656,.1403,3.6476,.5612,.8418,.2806,1.8238,.5611,2.2447,.5611s1.1223-.2805,1.6835-.5611c1.8237-.8418,2.3849-.7015,4.0684,.982,.8417,.8418,3.3669,4.2087,5.4713,7.4354l3.9281,5.8922,.1403,2.5252c.2806,4.6296,.7014,7.9966,1.2626,11.2233,.8417,4.9101,.2806,7.4353-2.5252,9.8203-1.6835,1.5432-7.0145,5.1907-9.3995,6.313l-1.5432,.8418-2.3849-1.1223c-1.2626-.5612-2.9461-1.4029-3.6476-1.6835-2.9461-1.1223-6.3131-4.7699-8.1368-8.4174-1.1223-2.385-1.1223-3.9282-.2806-7.716,.7014-2.9461,.8417-3.7878,.4208-4.7699-.4208-.982-.982-1.1223-2.5252-.5611-.982,.2806-1.964,.982-3.6475,2.2446-1.1223,.9821-3.367,2.8058-4.9102,4.0685-3.2266,2.5252-4.0684,3.5072-5.331,5.8921-2.2446,4.2087-3.2267,5.6117-6.0325,8.5578-2.3849,2.5252-3.2266,3.5072-4.0684,5.331l-1.1223,2.2446,.4209,3.0864c.5611,3.7879,.5611,6.5937,0,14.3097-.2806,3.3669-.4209,8.2771-.5612,10.9426l-.1403,4.9101,1.6835,1.5432c2.2447,1.9641,4.0684,3.2267,6.3131,4.349l1.8237,.9821h17.1155l1.4029,1.2626c3.7878,3.367,4.0684,7.1548,.7014,11.6441-1.6835,2.1043-3.5072,2.9461-9.1188,3.7878-3.7879,.5612-7.0145,.5612-9.6801-.1403-1.964-.4208-2.3849-.5611-2.9461-.1403-2.5252,1.4029-2.2446,1.4029-9.3994,1.4029h-6.8742l-1.5432-.7014c-1.9641-.8418-2.6656-.9821-5.0505-.1403-2.2447,.7014-4.9102,.7014-7.716,.1403-1.964-.4209-2.1043-.4209-4.349,.1403-3.3669,1.2625-4.0683,1.2625-5.331,.2805h0Z" style="fill:#ee1e23;"/><path d="M459.3892,150.3837c-5.331-.4209-7.5757-1.2627-10.3815-3.9282-2.2446-2.2446-2.6655-2.3849-4.6295-2.3849-4.6296,0-9.3995-2.1044-14.4499-6.4534-2.2447-1.964-2.8058-2.9461-3.6476-5.8922-.982-3.3669-1.6835-4.9101-4.9101-10.6621-5.1908-9.1188-5.6117-10.2411-7.0146-17.5362-1.4029-6.734-1.4029-7.716-.7014-10.3815,.5611-1.9641,.5611-2.5252,.4208-5.8922-.2806-4.4893-.1403-4.9102,2.6656-11.3635,.982-2.385,2.1043-5.3311,2.3849-6.5937,1.4029-5.4713,2.9461-8.8383,5.1908-11.9246,1.5432-2.1044,2.5252-2.9461,4.7698-3.9282,1.2626-.5611,1.6835-.8417,2.1044-1.964,.7014-1.6835,1.964-2.6655,8.2771-6.8742l5.331-3.6476h1.6835c3.5073,0,7.4354-.5612,7.716-.982,.1403-.2806,.982-.7015,1.8237-.9821,1.4029-.5611,1.9641-.5611,8.9786-.7014l7.5757-.1403,2.9461,1.5432c1.5432,.8417,4.4893,2.1044,6.5936,2.8058,6.3131,2.2447,11.2233,5.0505,13.8888,7.716,.982,.982,2.6655,2.5252,3.9281,3.2266,2.5252,1.6835,3.0864,2.5253,5.6116,8.1369,2.8058,6.3131,3.9281,9.68,3.9281,12.6261,0,2.1044,.1403,2.5252,1.2626,4.9102,1.6835,3.6475,1.6835,4.9101,.5612,7.9965-.4209,1.4029-1.2626,3.5073-1.6835,4.7699-.4209,1.2626-1.1223,2.8058-1.5432,3.3669-1.5432,2.2447-4.0685,4.2088-6.734,5.0505-1.8237,.5612-2.8058,.7015-5.7519,.1403-2.5252-.4209-4.2087-.4209-7.9965,.4209-3.0864,.7014-4.4893,.7014-11.2233,0-2.9461-.2806-6.8742-.5612-8.5577-.5612-2.9461,0-3.3669,0-5.8922,.8418l-2.8058,.982-2.5252-.5612c-2.3849-.4208-2.6655-.4208-5.331,0-1.9641,.2806-3.5073,.4209-5.7519,.2806-2.9461-.1403-3.0864-.1403-4.6296,.5612-.982,.4209-1.964,1.1223-2.3849,1.5432l-.7015,.8417,.5612,2.6656c1.1223,5.6116,2.5252,10.662,3.7878,12.9067,1.5432,2.8058,3.0864,3.9281,6.8742,4.9101,2.2447,.5612,2.9461,.9821,4.7699,2.5252,1.8238,1.403,2.6655,1.8238,5.1908,2.385,2.6655,.4209,4.349,.9821,6.5936,1.9641l1.5432,.7014,3.6476-.982c1.964-.5612,4.349-1.1223,5.331-1.2626,2.6655-.4209,3.5072-.8418,5.4713-2.385,2.2447-1.8238,4.9102-4.7699,7.9966-8.9786,3.0864-4.2087,4.9101-6.313,5.8922-6.8742,.7014-.4208,1.5432-.4208,5.0504-.4208,4.9102,0,5.7519,.1403,7.2951,1.8237,3.2267,3.2267,2.8059,10.1009-1.1223,18.0975-1.5432,2.9461-2.8058,4.7698-4.0684,5.7519-.5611,.4208-2.1043,1.1223-3.6475,1.8237-1.5432,.5612-4.4893,2.1044-6.5937,3.2267-4.9101,2.8058-9.2592,4.9101-12.3455,6.1728-2.2447,.8417-2.8058,.982-3.9281,.8417-4.4893-.5612-6.3131-.5612-9.2592,0-3.7878,.7015-5.4714,.8418-7.4354,.7015h0Zm15.9931-67.0588c2.3849-.5611,4.7698-1.2626,5.331-1.4029,1.2626-.2806,3.2267-2.3849,4.2087-4.2087,1.4029-2.9461,1.1223-7.9965-.5612-9.68-1.964-1.9641-7.8562-5.1908-10.8023-5.8922-.9821-.2806-2.8058-.982-3.9281-1.5432-1.9641-1.1223-2.1044-1.1223-4.349-1.1223-1.6835,0-2.9461,.2805-4.7699,.7014-5.4713,1.6835-8.4174,3.2267-9.9606,5.331q-1.9641,2.6656-4.4893,3.0864c-4.0684,.7015-5.6116,1.8238-7.5757,5.8922-.8417,1.6835-1.1223,2.5252-1.1223,3.9281-.2806,4.0685,1.5432,4.9102,8.5577,4.0685,2.385-.2806,2.8058-.2806,4.9102,.2805,2.6655,.7015,3.9281,.7015,6.313,.2806,1.6835-.2806,2.385-.2806,6.4534,.982,3.367,.9821,6.0325,.8418,11.7844-.7014Z" style="fill:#ee1e23;"/></svg>