<?xml version="1.0" encoding="UTF-8"?><svg id="svg2985" xmlns="http://www.w3.org/2000/svg" viewBox="0 0 1018.4996 293.5392"><path id="path3140" d="M49.3648,291.9909c-1.7994-.8513-5.2282-2.774-7.6196-4.2727-6.7974-4.26-8.7172-5.0774-13.0728-5.5659-4.8035-.5387-6.5339-1.6557-10.6203-6.8556-1.4965-1.9042-4.2923-4.7126-6.2128-6.2409-7.6717-6.1046-9.3183-9.4738-10.0848-20.6353-.2772-4.0362-.7853-10.0953-1.1292-13.4646l-.6252-6.126,1.789-4.746c4.2385-11.2443,8.8707-18.7672,15.2528-24.7709,5.3191-5.0038,10.0498-7.5695,13.0672-7.087,1.8792,.3005,2.2803,.1198,4.681-2.1085,3.708-3.4419,5.0759-3.9974,12.9966-5.2785,3.8634-.6248,8.9813-1.7224,11.3731-2.439s6.0612-1.4739,8.154-1.6829,5.0283-.8391,6.5232-1.4003c1.8612-.6987,4.1453-1.0204,7.2459-1.0206,5.3964-.0003,8.6733-1.1468,16.7957-5.8762l5.3129-3.0935,5.2536,.1401c6.0283,.1608,7.6982-.2999,8.7966-2.4271,2.0443-3.9588,3.5881-18.5009,2.5792-24.2944-.7033-4.0386-2.6503-8.8958-4.0189-10.026-.486-.4013-3.6444-1.0817-7.0188-1.5119-4.3798-.5584-6.9129-1.1824-8.8533-2.1808-3.2794-1.6876-5.728-1.7355-11.199-.2195-5.2534,1.4558-6.2869,1.3955-9.1319-.5323-2.0116-1.363-2.923-1.6209-5.7295-1.6209-1.8356,0-4.7461-.3669-6.4679-.8154-4.2585-1.1092-7.1383-1.0249-11.1382,.3258-4.0507,1.3679-6.6166,3.6869-6.6166,5.9799,0,.9193,1.0754,3.4524,2.5248,5.9467l2.5248,4.3452-.3034,5.2912c-.3654,6.3734-2.3708,13.1742-4.778,16.2032-3.861,4.8585-7.5041,6.0099-14.3011,4.5202-3.4974-.7666-4.8517-.8302-7.4356-.3497-2.6959,.5014-3.5438,.4423-5.7804-.4025-3.6756-1.3884-8.4213-4.7127-10.5317-7.3773-3.2135-4.0574-5.4128-13.1243-5.3974-22.2518,.0222-13.1975,4.4556-21.617,14.1835-26.9356,2.7601-1.509,5.5559-3.7791,9.4081-7.6388,3.0145-3.0205,6.5451-6.1579,7.8456-6.972,1.3005-.8142,3.8408-2.567,5.645-3.8952l3.2804-2.4149,8.4886,.1332c6.8378,.1073,9.1229-.0548,11.7503-.8335,1.7939-.5317,6.5936-1.2842,10.666-1.6723,6.9786-.665,7.5923-.8198,10.6713-2.6902,3.6196-2.1988,4.8115-2.3514,9.2976-1.1906,1.6876,.4367,6.1278,1.1705,9.8671,1.6309,8.3294,1.0254,9.5156,1.3552,13.4547,3.7415,1.7167,1.04,5.4452,2.8038,8.2855,3.9197,4.9776,1.9555,5.3713,2.2388,10.8962,7.8393,7.1763,7.2745,10.7408,11.9842,13.7929,18.2242,3.436,7.0249,4.6199,11.4387,5.4676,20.3851,.4108,4.3352,1.1587,9.0544,1.662,10.487,.7516,2.1394,.8074,3.0322,.3126,4.9972-.7707,3.0608-.7615,5.8555,.0345,10.4976,.5223,3.0459,.4757,5.0778-.2592,11.2898-.4929,4.1665-1.1675,12.3455-1.4991,18.1757-.3316,5.8301-.8592,11.5787-1.1724,12.7746-1.0296,3.9317-1.1098,8.7467-.1978,11.8837,1.2315,4.2362,1.0732,6.5944-.7533,11.2194-.9578,2.4253-1.6177,5.1181-1.6288,6.6467-.0285,3.9133,4.3219,14.5607,6.252,15.3013,.4868,.1868,1.8408,.3396,3.009,.3396,2.0002,0,2.2824-.218,4.8458-3.7422,3.0544-4.1994,5.1561-5.499,8.8931-5.499,4.4214,0,23.306,2.158,29.6044,3.3829,6.858,1.3338,7.4103,1.2221,8.9048-1.8015,1.4315-2.8962,1.9636-6.0272,4.0013-23.545,2.4008-20.6394,2.4332-21.5933,.8068-23.7931-1.2185-1.6481-1.2512-1.9618-.9213-8.8255,.1881-3.9141,.6108-10.6636,.9393-14.9988,.6451-8.5143,.3524-16.7005-.9024-25.2399-1.1559-7.8663-1.0738-12.8692,.2987-18.1923,1.8297-7.096,1.7477-7.8129-1.4948-13.0819-3.4433-5.5952-3.5874-7.378-1.1691-14.4599,1.7794-5.2108,1.7963-6.0942,.2252-11.7612l-1.0094-3.6411,1.2688-2.7089c1.6366-3.4941,1.3735-5.1382-2.0552-12.844-1.4624-3.2867-3.0905-7.3212-3.6179-8.9656-1.6289-5.078-2.9046-5.792-6.799-3.8052-2.9303,1.4949-5.1191,1.3648-9.1541-.544-3.9578-1.8723-4.7991-1.968-6.546-.7445-1.807,1.2657-5.0618,1.882-7.0013,1.3257-.9131-.2619-2.8701-1.4326-4.349-2.6015-1.4789-1.169-5.0511-3.4341-7.9383-5.0335-6.2871-3.4829-10.1104-7.1546-12.3878-11.8963-3.2891-6.8482-1.8086-15.0485,4.3566-24.1303,4.2553-6.2684,8.3698-10.4493,12.1346-12.3307,4.2791-2.1383,6.8055-2.1386,12.854-.0014,7.9397,2.8053,11.8298,3.4188,27.5443,4.3436,5.3817,.3167,11.4972,.9288,13.59,1.3601,4.9984,1.0301,5.7813,.9992,10.1241-.3995l3.6781-1.1846,3.9709,1.9632c5.7979,2.8664,6.9031,4.2375,7.8455,9.7329,1.553,9.0556,6.2639,24.6874,8.966,29.7511,2.2716,4.2568,2.1715,8.1385-.3897,15.1193-2.9863,8.1395-2.9528,7.964-3.481,18.2177-.4697,9.1175-.5912,9.8538-2.2868,13.8618l-1.7907,4.2329v44.0317l2.3851,5.9296,2.3851,5.9296-1.9884,6.0296c-1.0936,3.3163-1.9835,6.9699-1.9774,8.1191,.006,1.1492,.7784,4.5596,1.7164,7.5788q1.7042,5.4853,1.0234,10.8411c-.8962,7.0322-.8321,8.7084,.494,12.9221,1.4015,4.4534,1.3993,6.2079-.016,12.8507-.8618,4.0447-1.159,7.4942-1.2112,14.0576-.0765,9.6073,.5556,13.6979,2.745,17.764,1.5525,2.8833,1.7519,2.9824,10.3259,5.1326,5.5428,1.39,6.3336,1.4667,8.6976,.8443,1.4302-.3766,4.5574-1.9665,6.9493-3.5331,8.1505-5.3385,7.4571-5.2169,24.4621-4.289,9.2631,.5054,21.3103,.869,23.4518,.7078,1.6896-.1272,4.0497-9.8139,5.5961-22.969,.621-5.2822,1.7678-12.5828,2.5484-16.2234,1.5188-7.083,1.4909-7.3813-.9769-10.4522-1.1886-1.479-1.1924-1.5512-.5449-10.6002,.9309-13.0117,.824-30.357-.2476-40.1427l-.8979-8.2004,1.4381-6.4768c1.9705-8.8745,1.9203-9.5301-1.101-14.3731-3.1913-5.1157-3.5355-7.5993-1.7791-12.8386,1.4552-4.3407,1.65-9.2176,.5659-14.1659-.6971-3.1817-.6735-3.4824,.4173-5.3312,1.6664-2.8243,1.4437-5.082-1.088-11.0302-1.2343-2.8998-3.0827-7.474-4.1077-10.1648-2.2937-6.0213-3.1265-7.3386-4.6395-7.3386-.6497,0-2.1064,.641-3.2369,1.4245l-2.0556,1.4245-4.372-.8809c-2.4046-.4845-5.7007-.8809-7.3246-.8809-2.8682,0-2.9987-.067-4.5637-2.3416-2.2617-3.2872-2.5888-3.479-6.9694-4.0857-2.89-.4003-4.5406-.9767-6.3387-2.2138-3.2577-2.2413-6.1636-5.6655-7.8907-9.2978-1.9489-4.099-2.0108-11.3844-.1478-17.3953,1.777-5.7333,5.6355-12.9591,8.5369-15.9872C299.2147,2.6363,303.8756,.01,305.9933,0c.6191-.0029,3.7069,.9674,6.8617,2.1562,3.1548,1.1888,7.1737,2.3063,8.9309,2.4831s4.6626,.8515,6.4565,1.4991c2.8956,1.0454,4.1767,1.1599,11.4156,1.0202,7.6576-.1478,8.3815-.0715,11.8903,1.2523l3.7363,1.4096,4.8399-1.424,4.8399-1.424,3.3831,1.6433c4.202,2.0411,5.0912,2.7558,5.8227,4.6797,.3188,.8387,2.0302,7.3936,3.8029,14.5666,2.7104,10.9669,3.6702,13.9504,6.0334,18.7531,2.5856,5.2548,2.7848,5.9336,2.492,8.4922-.175,1.5295-1.3304,5.4717-2.5674,8.7605-2.141,5.6918-2.2832,6.4505-2.9556,15.7644-.6247,8.6537-.9053,10.3183-2.4276,14.3992-2.0731,5.5574-2.6994,11.3307-2.7133,25.0119-.014,13.7168,.7039,20.9812,2.6859,27.1801,2.6123,8.1701,2.6625,10.6457,.3459,17.0826l-1.9417,5.3952,1.9603,5.7371,1.9603,5.7371-.3754,8.2071c-.3643,7.9661-.3328,8.3302,1.0734,12.4023l1.4487,4.1953-1.683,8.8097c-2.3824,12.4705-2.7747,15.3137-2.7793,20.1423-.004,3.9448,.165,4.5909,2.2432,8.5855,2.6398,5.074,3.1056,5.3799,11.1409,7.3163,6.6976,1.614,8.6145,1.5537,15.9552-.5022,5.9867-1.6767,15.399-2.768,19.3089-2.2388,5.096,.6897,8.7057,3.2325,11.3558,7.9996,2.5189,4.5311,3.4965,9.3229,2.6053,12.7702-1.5254,5.9008-6.6674,14.0859-10.0755,16.0384-.7264,.4162-3.5297,.6825-7.419,.7049-4.9425,.0284-7.3946,.3375-11.7111,1.4759l-5.4597,1.44-4.3252-1.0565c-6.0525-1.4784-11.2743-1.8521-15.8844-1.1368-2.961,.4594-6.2183,.4503-13.0453-.0364-14.5608-1.0381-19.2249-.9261-24.7928,.5958-5.2474,1.4342-5.3574,1.4247-12.0297-1.0455-3.0561-1.1314-3.5366-1.1651-7.6255-.5352l-4.3639,.6722-3.3669-1.6996c-1.8518-.9348-4.0138-1.6996-4.8045-1.6996-.804,0-2.6644,.8985-4.2211,2.0385l-2.7835,2.0385-5.299-.1532c-4.2454-.1227-6.4478,.129-11.0768,1.266-5.5075,1.3528-5.9973,1.3867-10.4728,.7246-2.8143-.4163-10.4656-.7123-19.1005-.739-7.923-.0245-16.974-.2404-20.1133-.48-5.4952-.4193-5.8841-.3747-10.4402,1.1971l-4.7324,1.6327-3.9653-1.723c-3.78-1.6425-4.2525-1.7164-10.1149-1.5821-6.0734,.1391-6.1981,.1169-10.0566-1.7887-3.2325-1.5964-4.2823-1.8719-6.0814-1.5959-3.2966,.5058-9.7961,2.3609-12.3779,3.5328-1.7773,.8068-3.5557,1.0465-7.832,1.0557-3.0429,.007-7.4047,.2723-9.6929,.5906-9.2059,1.2804-16.413-1.3525-22.7494-8.3108-4.2992-4.7212-7.7567-7.2183-10.7561-7.7684-2.2414-.4111-3.4496,.0846-6.7961,2.7882-1.2398,1.0016-5.4407,3.38-9.3353,5.2854s-8.0173,4.1982-9.1615,5.0952c-1.1442,.897-2.6186,1.9131-3.2766,2.258-1.4691,.7701-14.2679,1.6843-23.8094,1.7007-10.132,.0174-14.9455,.7029-20.7723,2.9581-2.7543,1.066-5.8121,1.938-6.795,1.9378-.983-.0002-3.2594-.6969-5.0588-1.5482h0Zm18.1029-32.8959c4.2672-2.1382,5.9988-2.472,15.506-2.9889,7.9068-.4299,9.243-.633,9.9267-1.509,.4345-.5568,2.3537-3.2139,4.2649-5.9047,4.8184-6.784,5.9232-7.7873,15.99-14.521,7.3824-4.9381,9.0168-6.2729,9.7091-7.9299,.9945-2.3801,1.6616-18.3607,.8878-21.2683-.2725-1.024-1.1411-2.3439-1.9301-2.933-1.4297-1.0674-1.4512-1.0671-6.2274,.0858-2.636,.6363-7.7164,2.0254-11.2897,3.0868-5.5647,1.653-7.7488,2.005-15.2208,2.4537-15.2346,.9147-19.9463,1.9471-28.6002,6.267-2.5605,1.2782-7.3306,3.464-10.6002,4.8574-3.2696,1.3934-6.5094,3.0598-7.1995,3.7032-1.7803,1.6597-4.2447,7.1202-5.0255,11.1356-2.02,10.3878,2.8535,19.0544,12.2503,21.7847,2.293,.6663,5.924,2.0532,8.0689,3.0821,4.6217,2.2169,6.0768,2.3087,9.4898,.5985h0Z"/><path id="path3142" d="M596.2974,287.5174c-2.9572-.8716-7.605-1.8526-10.3284-2.1802-3.8723-.4657-6.7294-1.2992-13.1058-3.8235-10.6035-4.1976-10.5229-4.1526-12.4678-6.9506-.9163-1.3181-2.2344-3.0873-2.9293-3.9316l-1.2634-1.535-2.27,1.1492c-1.2485,.6321-7.6517,4.7577-14.2292,9.1681l-11.9592,8.0189-14.7897,.6483-14.7897,.6482-3.2787-1.4714c-2.8036-1.2582-3.6538-1.4085-5.8671-1.0373-1.4236,.2388-4.6677,.4544-7.209,.4791-4.0181,.0391-5.0265-.1544-7.7335-1.4837-10.7858-5.2965-27.3018-29.7644-34.6339-51.309-3.9284-11.5431-3.9154-11.3963-4.1433-46.9132-.1122-17.4904-.4737-35.3477-.8033-39.6829-.5871-7.7216-1.9847-16.1291-3.1957-19.2242-.6041-1.544-.638-1.5541-4.0094-1.193-4.2733,.4576-10.0501-.4393-12.7332-1.9771-6.2523-3.5833-11.8373-9.488-13.4141-14.1819-1.0181-3.0308-1.1431-10.1845-.3059-17.5122,.6655-5.8253,1.7628-7.7926,6.3682-11.4182,6.3578-5.0052,12.8028-5.9313,20.7877-2.9872,4.8373,1.7836,8.0089,2.098,8.491,.8417,.3302-.8604,2.5028-1.6623,5.9368-2.1913,10.3942-1.6012,27.7206,9.2582,32.9829,20.6722,1.0961,2.3774,1.2353,3.4902,1.1868,9.4883-.0515,6.372-.1856,7.1842-2.1548,13.0464-1.9354,5.7617-2.0993,6.7198-2.0916,12.231,.009,6.7541,.6616,8.972,4.5761,15.561,3.1269,5.2633,3.2659,6.7014,1.0556,10.9161-.9868,1.8815-2.1491,4.1205-2.583,4.9755-1.0567,2.0822-2.7112,8.5967-3.1436,12.3784-.3266,2.8562-.2095,3.3106,1.7514,6.795l2.1014,3.7342,.2718,21.7952,.2718,21.7952,2.1415,2.6669c5.6571,7.045,11.6624,12.5405,15.4458,14.1347,1.3639,.5747,4.6984,.9335,10.6885,1.1499l8.7061,.3147,4.0015-4.2848c6.7639-7.2428,21.3267-26.3163,26.0771-34.1545,2.4756-4.0848,6.4286-14.0251,7.8222-19.6701l1.1684-4.7328-1.2792-4.6714c-1.7709-6.4667-1.8942-8.8145-.8604-16.3867,1.0005-7.3283,.9716-7.6019-1.6852-15.9461-1.2123-3.8077-1.7683-6.4441-1.5595-7.3948,.1785-.8126,1.5519-2.8547,3.0522-4.5379,3.2554-3.6524,3.9774-5.6496,2.9399-8.1325-1.1122-2.6618-2.3495-3.4826-6.7636-4.4866-2.2169-.5042-6.3745-1.8933-9.2393-3.0868-4.9442-2.0599-5.4294-2.1566-9.5574-1.9054-8.8156,.5364-15.3238-1.6825-20.874-7.1168-5.5064-5.3914-6.1135-8.319-2.9847-14.3944,3.3372-6.4802,15.3487-19.5826,20.2392-22.0776,2.7726-1.4145,4.2758-1.4144,10.5562,.0002,7.1735,1.6158,10.9628,1.6199,14.3992,.0156l2.7831-1.2993,3.705,1.3687c4.4576,1.6467,5.5205,1.8241,17.1292,2.8596,10.7234,.9565,14.2651,2.0388,17.6419,5.3913,2.4792,2.4613,2.9769,3.8937,3.8881,11.1898,.3174,2.5413,.9899,6.6999,1.4944,9.2412,1.1295,5.6894,1.287,29.6607,.2851,43.3794-.6655,9.1121-1.4987,13.1496-4.1733,20.222-1.3756,3.6376-1.5436,4.78-1.5585,10.6002-.0128,5.0139,.2545,7.5294,1.1554,10.872,1.0088,3.7428,1.2159,6.3562,1.4863,18.7543,.1913,8.772,.0729,17.6258-.303,22.6404-.5845,7.7998-.5612,8.3308,.4425,10.0493,1.3781,2.3596,4.4626,3.504,12.3397,4.5783,9.7743,1.333,16.0438,3.9276,18.7818,7.7726,2.67,3.7497,3.4656,14.9424,1.3202,18.5743-.5043,.8537-3.5025,3.2566-6.6627,5.3396-3.1602,2.083-7.9456,5.5223-10.6343,7.6429-2.6888,2.1205-5.2573,3.8355-5.7078,3.8112-.4505-.0244-3.2386-.7574-6.1959-1.629h0Z"/><path id="path3144" d="M642.6935,284.4234c-7.1341-5.1768-11.0855-13.6057-9.6304-20.5427,1.8187-8.6708,7.2928-13.3907,15.5753-13.4292,2.1212-.01,5.6523,.3061,7.8469,.7023,3.5767,.6456,4.2815,.6212,6.7997-.2347,3.7639-1.2794,8.5008-4.5372,9.7603-6.7126,1.3589-2.3471,3.6275-13.6339,3.6328-18.0735,.002-1.9434-.2634-5.7154-.5905-8.3823-.4591-3.7434-.3855-9.8161,.3229-26.6365,1.2278-29.1536,.9664-62.8642-.5184-66.8457-1.3203-3.5401-4.2596-6.273-10.5679-9.8254-8.2485-4.645-7.2474-4.4989-13.119-1.915-5.733,2.5229-8.1697,2.7878-11.953,1.2993-8.6375-3.3981-16.838-11.8756-19.7313-20.3976-.6342-1.8681-.7136-3.0305-.3251-4.7597,1.809-8.0514,7.9982-14.1372,17.2072-16.9201,3.7649-1.1377,4.6886-1.1803,21.4723-.9906,16.8935,.1909,17.6223,.2428,19.8268,1.4098,2.8355,1.5011,4.0328,1.5119,8.0906,.0731,6.4559-2.2892,14.8077-1.3215,19.7986,2.294,2.6584,1.9258,3.7211,4.0959,6.3042,12.8743,2.1207,7.2069,4.0098,10.8172,5.9097,11.294,2.7618,.6932,5.015-.7034,14.5797-9.0363,5.1138-4.4553,9.0341-6.5026,12.4512-6.5026,2.3408,0,2.8744-.2807,6.6762-3.5116,6.7955-5.7751,13.5994-8.4476,21.5066-8.4476,2.7338,0,5.2277,.3709,7.3095,1.0872,1.738,.598,3.743,1.0872,4.4556,1.0872s2.2546-.4892,3.4266-1.0872c3.5107-1.791,4.7275-1.4851,8.1273,2.0437,1.6591,1.722,6.5948,8.3998,10.9683,14.8397l7.9518,11.7088,.3663,5.1377c.6623,9.288,1.4236,15.9175,2.5565,22.2611,1.762,9.8673,.5433,14.7459-4.9068,19.6416-3.457,3.1053-14.0147,10.2999-18.6264,12.6929l-3.076,1.5962-4.8062-2.2135c-2.6434-1.2174-5.9069-2.6653-7.2524-3.2176-5.7371-2.3549-12.6246-9.5331-16.1168-16.7969-2.2719-4.7256-2.3685-7.8966-.468-15.357,1.5133-5.9403,1.6451-7.6368,.7467-9.6085-.8609-1.8895-1.8369-2.112-5.1013-1.1629-2.0547,.5973-4.0155,1.8399-7.1202,4.5123-2.3566,2.0284-6.7682,5.693-9.8038,8.1436-6.288,5.0764-8.1166,7.1145-10.57,11.781-4.3782,8.3274-6.3928,11.1902-11.9724,17.0128-4.7177,4.9231-6.2791,6.9797-8.1197,10.6941l-2.2787,4.5987,.8872,6.1576c1.0848,7.5289,1.1037,12.9825,.0986,28.4453-.4276,6.5776-.9474,16.3661-1.1553,21.7522l-.3779,9.7929,3.4675,3.0317c4.6002,4.0221,8.1522,6.5128,12.4369,8.7211l3.5334,1.8211h33.894l2.8995,2.5005c7.6285,6.5788,8.0809,14.3235,1.3508,23.1288-3.2919,4.3069-7.0636,5.8681-18.1635,7.5181-7.5971,1.1293-13.8133,1.051-19.2285-.2424-3.9646-.9469-4.6416-.9805-5.8782-.2914-5.0079,2.7908-4.4118,2.7048-18.7927,2.7129l-13.59,.008-3.1934-1.4949c-3.7939-1.776-5.4281-1.8418-10.1249-.4077-4.3301,1.3221-9.6902,1.3942-15.2257,.2047-4.0048-.8606-4.2209-.8516-8.71,.3642-7.2025,1.9506-8.5757,1.9629-11.1432,.0997h0l.0002-.0003Z"/><path id="path3146" d="M913.9675,288.8442c-10.5141-.6993-15.0302-2.4264-20.5562-7.861-4.4409-4.3674-5.337-4.8389-9.1968-4.8389-9.1235,0-18.6602-4.319-28.6024-12.9538-4.4827-3.8932-5.7034-5.8481-7.3567-11.7817-1.8406-6.6058-3.2576-9.6613-9.8486-21.2372-10.2558-18.0125-11.1669-20.2619-14.0765-34.7522-2.689-13.3919-2.8282-15.4375-1.4017-20.6073,1.0679-3.8703,1.1477-5.0433,.8001-11.7575-.462-8.9228-.257-9.8143,5.183-22.539,2.0451-4.7837,4.2394-10.6546,4.8763-13.0464,2.9042-10.9073,5.7731-17.4527,10.3984-23.7244,3.089-4.1885,5.131-5.8751,9.3981-7.7622,2.6285-1.1624,3.2326-1.7139,4.1501-3.7881,1.4248-3.2211,3.8297-5.2378,16.4384-13.7853l10.6249-7.2027,3.441-.0183c6.9822-.0371,14.8223-1.002,15.483-1.9055,.3454-.4724,1.9359-1.3894,3.5342-2.0379,2.691-1.0917,4.0159-1.1927,17.8873-1.3642l14.9811-.1852,5.8171,3.0508c3.1994,1.678,9.0559,4.2261,13.0145,5.6626,12.6702,4.5978,22.3355,9.9773,27.5825,15.352,1.9434,1.9907,5.4246,4.9007,7.736,6.4666,5.0645,3.4311,6.1165,4.9611,11.2031,16.2927,5.616,12.5111,7.7835,19.3429,7.9333,25.0057,.1095,4.1386,.3653,5.1593,2.4519,9.7848,3.2102,7.1164,3.3852,9.6907,1.0901,16.0363-.9733,2.6908-2.4928,6.9664-3.3767,9.5013s-2.2917,5.5927-3.1284,6.795c-3.2,4.5982-8.089,8.2724-13.4724,10.1245-3.6025,1.2395-5.4688,1.2688-11.5242,.1809-5.1259-.9209-8.4127-.7348-15.8946,.8995-6.0048,1.3117-9.0333,1.301-22.4459-.0795-5.9705-.6145-13.6686-1.1558-17.1069-1.2027-5.7834-.079-6.6653,.0529-11.7801,1.7623l-5.5287,1.8477-5.1096-1.0047c-4.835-.9507-5.3997-.9571-10.5076-.1189-3.905,.6408-7.0613,.7944-11.4119,.5554-5.7407-.3154-6.1642-.263-9.3235,1.1548-1.8203,.8169-3.9903,2.1958-4.8223,3.0641l-1.5127,1.5789,.9893,5.3019c2.0977,11.2424,5.0047,21.1658,7.4998,25.6019,3.1308,5.5663,6.2181,7.7903,13.6194,9.8113,4.5555,1.2439,5.8229,1.9008,9.6204,4.987,3.5104,2.8528,5.3892,3.6828,10.4565,4.6194,5.2585,.972,8.7462,2.014,13.0211,3.8906l3.0925,1.3575,7.2359-1.9603c3.9797-1.0781,8.7037-2.2185,10.4976-2.5341,5.4069-.9512,6.902-1.6142,10.8235-4.799,4.5936-3.7306,9.7595-9.5329,15.9503-17.9151,6.2151-8.4152,9.7079-12.4449,11.7615-13.5696,1.3876-.76,3.2035-.9262,10.117-.9262,9.7463,0,11.395,.4112,14.5912,3.6394,6.4733,6.538,5.5898,19.9951-2.3565,35.8956-2.9782,5.9593-5.5111,9.5897-7.9887,11.4503-.9899,.7434-4.246,2.3662-7.2358,3.6061-2.9898,1.24-8.8607,4.1736-13.0464,6.5192-9.8632,5.5271-18.3098,9.7249-24.6516,12.2513-4.3427,1.73-5.4893,1.9789-7.8822,1.7112-9.0059-1.0075-12.6459-.9828-18.304,.1242-6.5741,1.2863-10.0316,1.6296-13.8508,1.3756h.0001Zm31.6226-133.3855c4.7321-1.2499,9.5009-2.4977,10.5974-2.7729,2.5327-.6357,6.5348-4.6368,8.3508-8.3487,2.8562-5.8379,2.3416-15.8901-.9889-19.3166-3.8979-4.0102-15.5082-10.3598-21.457-11.7348-2.0146-.4656-5.4975-1.868-7.7399-3.1164-3.9186-2.1816-4.2565-2.2683-8.6976-2.2319-3.4011,.0279-5.9039,.4299-9.4827,1.5231-10.7961,3.2978-16.6882,6.4907-19.6901,10.67-3.8576,5.3705-3.8949,5.3969-8.8183,6.2512-8.1617,1.4162-11.2001,3.7524-15.0919,11.6042-1.6034,3.2349-2.1083,4.9583-2.27,7.7471-.4643,8.0128,3.1597,9.7219,17.0062,8.0203,4.6298-.569,5.4887-.521,9.7334,.5436,5.2128,1.3074,7.9386,1.4355,12.5211,.5884,3.4001-.6286,4.6699-.4363,12.8307,1.9431,6.6014,1.9247,11.9109,1.6112,23.1968-1.3698h0Z"/></svg>