<?xml version="1.0" encoding="UTF-8"?><svg id="Layer_1" xmlns="http://www.w3.org/2000/svg" viewBox="0 0 189.4093 48.0774"><path d="M16.9342,46.8913H1.2583c-.102,0-.102-.421,0-.421H5.7416l.0102-44.1269-4.4935,.0079v-.4507H14.6874c5.7189,0,12.8588,1.1089,13.1136,10.4678,.2509,9.2273-7.5541,10.9224-11.1283,10.9224,5.7189,0,12.7088,4.2684,12.7088,11.8642,0,6.0636-5.0434,11.7363-12.4475,11.7363h0ZM13.9218,2.3514l-2.6042-.0145V22.9255h4.1357c3.5745,0,6.5018-3.7528,6.4814-10.3019-.023-7.3109-3.2644-10.2722-8.013-10.2722h0Zm1.0721,21.2924h-3.6763l-.0011,22.8265h4.3413c4.4935,0,7.0767-4.2261,7.1563-10.9323,.0941-7.8985-3.0203-11.8942-7.8202-11.8942h0Z" style="fill:#fcb131; fill-rule:evenodd;"/><path d="M45.5839,46.8256v-.3226l4.9224,.0025-3.6088-12.9127h-11.8324l-2.5157,9.2753h0c-.5618,2.2977-.8181,3.6349-.8181,3.6349h4.7906v.3226h-9.7937v-.3226h4.5025s.2475-1.1455,.86-3.6349h0L43.4265,.4148l13.0354,46.0933,4.5287,.0048v.3127h-15.4066Zm-4.4529-36.3821l-6.0704,22.6624h11.5637l-5.4933-22.6624h0Z" style="fill:#fcb131; fill-rule:evenodd;"/><path d="M64.2195,46.8256L83.4613,2.0254h-9.303c-6.8403,.1043-8.7676,8.4694-8.8843,17.335-.0159,1.1857-.1108,2.7513-.1659,4.5059,0,0-.3109,.0176-.3109-.0315h0l.0215-22.2633h24.4548l-18.9623,44.9374,8.4725,.0107h0c8.1765-.2664,9.7997-6.1812,10.0893-22.6505h.3745v22.9459l-25.0279,.0105h0Z" style="fill:#fcb131; fill-rule:evenodd;"/><path d="M186.569,47.3367c-.7846,.3892-1.7263,.5408-2.8298,.5411-4.6219,.0005-6.2053-3.3923-6.0185-12.3826h0v-4.1487h0c0-5.6169-2.7017-7.5666-6.9908-7.5666h-4.136l.0119,22.7602h5.3297l.0034,.2526h-15.4043l-.013-.2393,4.5298-.0074-.0232-44.5612-4.4935,.0076v-.4539h14.5018c7.0464,0,12.8724,1.9233,12.882,11.1062,.0082,7.7613-6.2884,10.7271-11.1904,10.7271,7.2508,0,11.5509,3.0385,10.7116,12.2508h0l-.1644,5.7444h0c0,3.2553,.4235,5.6599,2.2853,5.65,.5916-.0034,1.165-.1426,1.5559-.5749,.4187-.4632,.6584-1.1792,.7123-1.6361,.028-.2373,.131-.7937,.0695-1.4097,0,0,.0255-6.6311-.0003-6.6634,.0201,.0252,.3594,0,.3594,0h0l-.0082,4.1332h0c.0428,3.7014,.0394,4.1539-.2721,4.8926-.2044,.4838-.6344,1.1942-1.408,1.5778h0ZM169.9129,2.0254h-3.3236l.0045,21.0374h4.136c4.6465,0,6.8865-2.9035,7.2099-10.1625,.3549-7.9707-3.6357-10.8748-8.0268-10.8748h0Z" style="fill:#fcb131; fill-rule:evenodd;"/><path d="M110.1699,46.8358v-.3093l4.9229,.0025-3.609-12.9262h-11.8324l-2.5157,9.2758h0c-.5618,2.2978-.8181,3.6349-.8181,3.6349h4.7905v.3223h-9.7934v-.3223h4.5023s.2475-1.1458,.86-3.6349h0L108.0128,.425l13.0357,46.0998,4.5283,.0049v.3062h-15.4068Zm-4.4527-36.3818l-6.0704,22.6621h11.5637l-5.4933-22.6621h0Z" style="fill:#fcb131; fill-rule:evenodd;"/><path d="M141.9608,46.8482v-.3226l4.9227,.0025-3.6088-12.9129h-11.8324l-2.5161,9.2755h0c-.5615,2.2978-.8178,3.6349-.8178,3.6349h4.7905v.3226h-9.7937v-.3161l4.5025-.0065h0s.2472-1.1455,.8601-3.6349h0L139.8036,.4374l13.0354,46.093,4.5287,.0051v.3127h-15.4069Zm-4.4527-36.3821l-6.0704,22.6622h11.5637l-5.4933-22.6622h0Z" style="fill:#fcb131; fill-rule:evenodd;"/><polygon points="114.0259 3.8625 114.0259 6.0778 114.7062 6.0778 114.7062 6.2587 112.4657 6.2587 112.4657 6.0778 113.146 6.0778 113.146 1.6039 112.4657 1.6039 112.4657 1.4231 114.7062 1.4231 114.7062 1.6039 114.0259 1.6039 114.0259 3.6814 115.8539 3.6814 115.8539 1.6039 115.1736 1.6039 115.1736 1.4231 117.4142 1.4231 117.4142 1.6039 116.7338 1.6039 116.7338 6.0778 117.4142 6.0778 117.4142 6.2587 115.1736 6.2587 115.1736 6.0778 115.8539 6.0778 115.8539 3.8625 114.0259 3.8625 114.0259 3.8625 114.0259 3.8625" style="fill:#231f20; fill-rule:evenodd;"/><path d="M119.4706,3.754c0-.1882-.3367-.2608-.4535-.2608-.2614,0-.5842,.1375-.4813,.2753,.0414,.0578,.0964,.2101,.0964,.3475,0,.188-.1718,.3186-.33,.3186-.1925,0-.3575-.1086-.3575-.3405,0-.5502,.6738-.7455,1.0927-.7455,.2957,0,.6117,.0504,.8799,.1953,.1925,.1015,.2543,.2174,.2543,.4416h0v1.9256h0c0,.0941,.0825,.1375,.165,.1375,.0825,0,.1856-.1083,.2404-.1664h0l.0828,.1014h0c-.1789,.2316-.3646,.3836-.6531,.3836-.3022,0-.4949-.1953-.536-.5139-.2475,.3186-.6185,.5139-1.0034,.5139-.4121,0-.7146-.239-.7146-.7022,0-.8615,1.0996-1.0425,1.718-1.006h0v-.9051h0Zm0,1.057c-.426,0-.9966,.0578-.9966,.644,0,.3186,.1239,.5576,.4467,.5576,.2406,0,.4195-.1956,.5017-.4272,.0414-.1086,.0482-.239,.0482-.3764h0v-.398h0Z" style="fill:#231f20; fill-rule:evenodd;"/><path d="M122.0428,4.1664c.22-.398,.4604-.8178,.9623-.8178,.2679,0,.5497,.1445,.5497,.4705,0,.2823-.1854,.4054-.4332,.4054-.1647,0-.3297-.1522-.3297-.333,0-.029,.0068-.0723,.0136-.1086,.0207-.1156,.0275-.1593-.0479-.1593-.1306,0-.1993,.0725-.2888,.1667-.2611,.2749-.4261,.6658-.4261,1.6143h0v.6732h.6185v.1808h-1.7663v-.1808h.4057V3.5728h-.4535v-.1808h0c.3571,.0145,.7764-.0145,1.1956-.0289h0v.8033h0Z" style="fill:#231f20; fill-rule:evenodd;"/><path d="M124.8406,3.9493h.0136c.1445-.3331,.4881-.6006,.8456-.6006,.7492,0,1.2852,.7381,1.2852,1.4984,0,.731-.5432,1.5203-1.2852,1.5203-.3713,0-.6874-.1519-.8456-.5139h-.0136v1.9185h.4813v.1808h-1.7184v-.1808h.495V3.5728h-.502v-.1808h0c.4056,.0145,.8249-.0145,1.2441-.0289h0v.5862h0Zm1.3266,.1738c0-.3906-.1031-.6299-.5224-.6299-.4056,0-.8042,.5576-.8042,.8328h0v.9409h0c0,.4708,.3229,.9555,.7906,.9555,.3436,0,.536-.1809,.536-.5502h0v-1.5491h0Z" style="fill:#231f20; fill-rule:evenodd;"/><path d="M128.141,4.6591v.5788h0c0,.5068,.0275,.9845,.6117,.9845,.4947,0,.8728-.3761,1.0103-.8686h.1718c-.1786,.7021-.6531,1.0134-1.3195,1.0134-.7492,0-1.2924-.76-1.2924-1.4984,0-.7965,.6185-1.5202,1.368-1.5202,.6389,0,1.2299,.4631,1.2299,1.1797,0,.1522-.0618,.1307-.1718,.1307h-1.6081Zm1.0032-.1812c0-.485,.1171-.9848-.4947-.9848-.5706,0-.5085,.5287-.5085,.9848h1.0032Z" style="fill:#231f20; fill-rule:evenodd;"/><path d="M131.351,4.1664c.2199-.398,.4606-.8178,.9623-.8178,.2679,0,.5496,.1445,.5496,.4705,0,.2823-.1854,.4054-.4329,.4054-.1649,0-.3299-.1522-.3299-.333,0-.029,.0068-.0723,.0139-.1086,.0204-.1156,.0272-.1593-.0482-.1593-.1307,0-.1993,.0725-.2885,.1667-.2614,.2749-.4263,.6658-.4263,1.6143h0v.6732h.6185v.1808h-1.7662v-.1808h.4056V3.5728h-.4538v-.1808h0c.3574,.0145,.7767-.0145,1.196-.0289h0v.8033h0Z" style="fill:#231f20; fill-rule:evenodd;"/><path d="M134.1142,2.7613c0,.5068-.33,.9413-.7146,1.2093-.0618,.0215-.1304-.0074-.1304-.087,0-.0289,.1097-.1159,.1304-.1304,.2475-.1738,.5153-.6299,.5153-.9267,0-.0578-.0275-.2968-.1168-.2968-.0825,0-.0961,.0508-.11,.116-.0343,.1593-.1786,.2679-.3643,.2679-.2336,0-.3779-.2245-.3779-.4561,0-.2971,.2267-.485,.5017-.485,.4397,0,.6664,.362,.6664,.7889h0Z" style="fill:#231f20; fill-rule:evenodd;"/><path d="M134.2372,6.2587h-.11v-1.0352h.1857c.0689,.5142,.3506,.9989,.8728,.9989,.3025,0,.6253-.2171,.6253-.5791s-.316-.398-.6732-.4487c-.7081-.1015-.976-.4054-.976-.963,0-.5502,.3571-.883,.8657-.883,.2406,0,.4813,.0796,.6738,.2316h0l.1097-.1882h.1171v.8541h-.1788c-.0411-.391-.3368-.7529-.7217-.7529-.2679,0-.5564,.1667-.5564,.4998,0,.2172,.0343,.2965,.6528,.4054,.6254,.1086,.9828,.2242,.9828,.97,0,.695-.3643,.999-.9828,.999-.2267,0-.5224-.1375-.6873-.3039h0l-.1993,.1953h0Z" style="fill:#231f20; fill-rule:evenodd;"/></svg>