<?xml version="1.0" encoding="UTF-8"?><svg id="Layer_1" xmlns="http://www.w3.org/2000/svg" viewBox="0 0 476.3164 75.6563"><path d="M1.6411,73.261V2.4779H27.9261c12.58,0,21.025,4.884,21.025,18.397,0,6.39-2.063,11.553-7.835,14.46v.227c10.151,1.271,14.504,8.123,14.504,17.987,0,14.801-12.676,19.712-25.631,19.712H1.6411ZM20.0381,30.269h2.072c4.875,0,9.943-.871,9.943-6.861,0-6.478-5.721-6.852-10.701-6.852h-1.314v13.713Zm0,28.905h2.35c5.442,0,14.645,.287,14.645-7.505,0-8.541-9.107-7.696-15.115-7.696h-1.88v15.201ZM78.0571,2.4779h22.061l13.234,19.241L126.5951,2.4779h22.053l-26.119,36.801v33.955h-18.37V39.279L78.0571,2.4779ZM241.7791,73.261h-22.906l-17.369-27.251h-.183v27.251h-18.405V2.4779h27.503c13.991,0,24.595,6.669,24.595,21.766,0,9.768-5.441,18.213-15.488,20.025l22.253,28.992Zm-40.458-39.049h1.741c6.016,0,12.773-1.131,12.773-8.828s-6.757-8.828-12.773-8.828h-1.741v17.656ZM276.7621,2.4779h26.119c19.719,0,35.957,15.488,35.957,35.391s-16.325,35.392-35.957,35.392h-26.119V2.4779Zm18.396,55.198h4.136c10.978,0,20.364-6.007,20.364-19.807,0-12.676-8.35-19.807-20.182-19.807h-4.353l.035,39.614Zm98.8,15.585h-18.405V2.478h18.405V73.261Zm58.576-55.199v11.823h20.747v15.585h-20.747v12.188h21.861v15.603h-40.257V2.4779h40.257v15.584h-21.861Z"/></svg>