<?xml version="1.0" encoding="UTF-8"?><svg id="Layer_1" xmlns="http://www.w3.org/2000/svg" viewBox="0 0 1281.6667 228.3849"><path d="M67.3524,0C35.5635,0,10.2525,30.2496,10.2525,114.1961c0,72.2066,14.1991,114.185,57.1,114.185,46.9169,0,52.4694-46.2936,52.4694-84.5549l-33.9504-1.5513c-.628,31.7923-3.7047,52.1482-16.9792,52.1482-12.344,0-16.658-8.016-16.658-80.2222,0-74.6919,8.3156-80.2538,16.658-80.2538,9.8729,0,14.4991,13.5831,14.4991,50.0093l35.8-1.2382c0-40.119-5.5538-82.7182-51.8389-82.7182Zm114.0985,.0043C145.9714,.0043,122.8188,27.4754,122.8188,114.2003s23.1525,114.1846,58.6321,114.1846,58.6355-27.4737,58.6355-114.1846c0-11.9972-.4589-22.8211-1.3161-32.6343,13.8131,46.0861,69.7699,57.2124,69.7699,91.5718,0,8.95-4.6271,21.2847-17.9034,21.2847-17.2847,0-17.2856-21.591-17.2856-33.9389v-.0043h-35.7991c0,30.2564,8.6513,67.9012,51.5487,67.9012,23.5816,0,39.9171-11.4625,48.4141-28.7869v24.4695h29.6335V62.9648h.6114l26.8517,161.0985h22.2169l27.1653-161.0985h.6191V224.0633h35.7957V118.4116c.7503,83.3602,23.7039,109.9733,58.6044,109.9733,31.9722,0,53.9219-22.3238,57.9581-90.1539v85.8323h40.1173v-87.9554h16.0543c29.351,0,45.1965-16.1301,50.7575-41.9583-.3187,6.6788-.4767,13.3643-.4738,20.0508,0,86.7125,23.1483,114.1846,58.6279,114.1846,35.5017,0,58.6474-27.4737,58.6474-114.1846S797.5557,.0038,762.054,.0038c-28.2927,0-48.7294,17.508-55.8541,68.5629-.5019-46.3967-24.2198-64.234-69.1117-64.234h-40.1173V90.1654C592.9347,22.3251,570.985,.0038,539.0128,.0038c-34.9005,0-57.8541,26.6135-58.6044,109.9852V4.3323h-52.1597l-18.8245,112.6371h-.611L390.9056,4.3331h-53.3906V52.9671C333.7839,21.1304,319.2183,.0038,287.561,.0038,253.9724,.0038,236.1001,26.2901,235.7222,58.82,227.4416,15.2511,207.8714,.0038,181.4509,.0038v.0004ZM821.5596,4.3331V224.0637h91.3601v-33.9508h-51.2351V4.3331h-40.125Zm97.7852,0V224.0637h40.1169V4.3331h-40.1169Zm46.8632,0V38.2797h34.5695V224.0637h40.1207V38.2797h34.1153l-26.0881,185.784h33.6376l5.5474-48.7635h32.4263l5.8456,48.7635h70.345V91.0431h.6186l42.9025,133.0206h31.1656V4.3331h-32.0897V120.363h-.6149l-36.7245-116.0299h-39.1999V206.4147l-24.9873-202.0816h-58.0164l-4.325,30.8005V4.3331h-109.2485ZM181.4509,33.9466c9.2648,0,14.8127,9.5695,14.8127,57.0961v46.2991c0,47.5245-5.5474,57.0804-14.8127,57.0804s-14.8165-9.5559-14.8165-57.0804v-46.2991c0-47.5266,5.5517-57.0961,14.8165-57.0961Zm105.1698,0c16.0508,0,16.0508,20.6818,16.0508,33.0301h34.8438v69.703c-18.0972-38.3176-66.009-52.3736-66.009-82.6666,0-12.0373,5.5564-20.0665,15.1143-20.0665Zm252.3921,0c9.2512,0,14.8088,9.5695,14.8088,57.0961v46.2991c0,47.5245-5.5576,57.0804-14.8088,57.0804-9.2585,0-14.8165-9.5559-14.8165-57.0804v-46.2991c0-47.5266,5.5576-57.0961,14.8165-57.0961Zm223.045,0c9.273,0,14.8165,9.5695,14.8165,57.0961v46.2991c0,47.5245-5.5432,57.0804-14.8165,57.0804-9.2529,0-14.8088-9.5559-14.8088-57.0804v-46.2991c0-47.5266,5.5559-57.0961,14.8088-57.0961Zm-124.6445,4.3331h3.0677c13.2724,0,25.6212,.9216,25.6212,32.7127,0,26.5372-8.9521,33.0258-25.308,33.0258h-3.3809V38.2797Zm467.3584,0h.6233l11.7216,104.9308h-24.9752l12.6304-104.9308Z" style="fill:#ec008c;"/></svg>