<?xml version="1.0" encoding="UTF-8"?><svg id="Layer_1" xmlns="http://www.w3.org/2000/svg" viewBox="0 0 161.9031 48.8511"><path d="M3.8818,47.1166H.3096v.6803H20.0971v-12.492h-.6012s-.0244,7.2008-2.3936,9.5697c-2.0149,2.0152-4.1377,2.2054-7.6172,2.2054V24.0978s2.4018-.1712,3.564,.991c1.838,1.8383,2.0171,4.1879,2.0171,7.4322h.6341V14.9122h-.6341c0,3.244-.1792,5.5936-2.0171,7.4315-1.1622,1.1625-3.564,.9913-3.564,.9913V1.5057c3.4795,0,5.1338,.1899,7.1487,2.2051,2.3692,2.3686,2.3936,9.5695,2.3936,9.5695h.6012V.7886H.3096v.6803H3.8818V47.1166h0Z" style="fill:#ed1c24; fill-rule:evenodd;"/><path d="M56.5266,1.4913V47.0801c3.4793,0,5.6021-.1902,7.617-2.2054,2.3692-2.3689,2.3933-9.5697,2.3933-9.5697h.6018v12.492h-19.7878v-.6803h3.5725V1.4688h-3.5725V.7886h12.4364v.7021l-3.2607,.0006h0Z" style="fill:#ed1c24; fill-rule:evenodd;"/><path d="M103.1848,1.4913V47.0801c3.4789,0,5.6021-.1902,7.617-2.2054,2.3692-2.3689,2.3933-9.5697,2.3933-9.5697h.6018v12.492h-19.7878v-.6803h3.5725V1.4688h-3.5725V.7886h12.4364v.7021l-3.2607,.0006h0Z" style="fill:#ed1c24; fill-rule:evenodd;"/><path d="M144.3348,47.1166h-3.5719v.6803h19.7875v-12.492h-.6018s-.0238,7.2008-2.393,9.5697c-2.0151,2.0152-4.138,2.2054-7.6175,2.2054V24.0978s2.4021-.1712,3.564,.991c1.8383,1.8383,2.0177,4.1879,2.0177,7.4322h.6335V14.9122h-.6335c0,3.244-.1794,5.5936-2.0177,7.4315-1.1619,1.1625-3.564,.9913-3.564,.9913V1.5057c3.4795,0,5.1341,.1899,7.149,2.2051,2.3692,2.3686,2.3936,9.5695,2.3936,9.5695h.6015V.7886h-19.3192v.6803h3.5719V47.1166h0Z" style="fill:#ed1c24; fill-rule:evenodd;"/><path d="M157.7595,45.8314c0-.6214,.5077-1.1259,1.1318-1.1259,.6208,0,1.1257,.5046,1.1257,1.1259,0,.6242-.5049,1.1316-1.1257,1.1316-.6241,0-1.1318-.5074-1.1318-1.1316h0Zm2.1175,0c0-.5485-.4377-.9862-.9856-.9862-.5516,0-.9921,.4377-.9921,.9862,0,.5545,.4405,.9915,.9921,.9915,.5479,0,.9856-.4371,.9856-.9915h0Zm-.4345,.6418h-.1808l-.3527-.5689h-.2891v.5689h-.1397v-1.2342h.5394c.3266,0,.4377,.123,.4377,.3268,0,.2424-.1695,.3325-.3878,.3385l.373,.5689h0Zm-.5805-.709c.1751,0,.4549,.0292,.4549-.2015,0-.1605-.1805-.1837-.3322-.1837h-.3648v.3852h.2421Z" style="fill:#fff; fill-rule:evenodd;"/></svg>