<?xml version="1.0" encoding="UTF-8"?><svg id="layer" xmlns="http://www.w3.org/2000/svg" viewBox="0 0 600 141.7"><path d="M543.6,51.8c16.3,0,30.8,6.9,33.2,19.1h-66.3c2.6-12.4,16.6-19.1,33.1-19.1M210.2,125.1c35.6,0,59.2-13.4,59.2-37.3,0-32.6-42.7-32.8-65.9-33.9-7.8-.4-38.6-.4-38.6-12.4,0-11.9,23.2-16.1,38.8-16.1,23,0,41.4,7.1,51.8,15l10.8-15c-13.2-9.1-32.9-16.9-62.9-16.9-32.8-.2-59.7,10.4-59.7,34.5,0,28.4,39.7,28.9,59.9,30,10.2,.7,45.3-.7,45.3,15.4,0,13.7-18.4,19.5-38.6,19.5-35,0-54.5-12.6-59.6-16.7l-11,16.7c19.9,14,41,17.2,70.5,17.2m101.1-.2c10.4,0,25.6-3.9,25.6-3.9l-4.8-17.3s-8.4,3.3-16.9,3.3c-8.2,0-11-2-11-8.9l-.2-44.9h27.7v-16.9h-27.7V15.1h-20.2v21.2h-14.5v16.9h14.5v45.3c0,19.1,8.9,26.3,27.5,26.5v-.1h0Zm82.8,16.8l58.7-105.3h-22.3l-34.9,64.2-33.6-64.2h-24.1l46.2,84.4-12.1,20.9h22.1Zm65-19.8h20.6V0h-20.6V121.9Zm51.3-34.5h89.6c-.2-36.9-25.2-53.2-56.4-53.4-33.2-.2-55.5,18.4-55.5,45.5s20,45.4,55.5,45.4c26.4-.2,41-5.9,53.1-15.6l-10.6-13.9c-6.5,5.6-17.6,11.5-42.5,11.5-14.1,.2-30.7-5.6-33.2-19.5M0,121.7H20.7V0H0V121.7H0Zm111.5,0h23.8v-51.8c-.2-26.2-13.2-37.3-46.7-37.3-17.3,0-28.6,5.4-34.1,8.4v-6.1h-22.5V121.7h23.2V62.5c2-1.9,14.9-9.7,32.5-9.7,20,0,24.1,5.6,24.1,23.9l-.3,45Z"/></svg>