<?xml version="1.0" encoding="UTF-8"?><svg id="layer" xmlns="http://www.w3.org/2000/svg" viewBox="0 0 599.8999 120.4031"><path d="M58.8,119.4L69.4,14.1c.6-5.4,1.6-6.3,3.4-6.3h1V1.8h-17.2V7.8h1.1c2.4,0,3.6,1.7,3.3,6.3l-6.1,63-7-63c-.6-4.9,.6-6.3,3.3-6.3h.3V1.8H27.5V7.8h1.2c2.3,0,2.3,.9,2.7,6.3l1.8,16.1-5.6,51L21.3,14.2c-.8-5.4,.3-6.3,2.7-6.3h.3V1.9H0V7.9H1.2c2.5,0,2.7,.9,3.3,6.3L15.3,119.5001h15.6l6.1-54.1,6.3,54.1c0-.1,15.5-.1,15.5-.1ZM162.1,50.4c0-7.3,0-9.9,4.6-9.9,3.2,0,3.2,1.2,3.2,7.3v62.8c0,2.3-.8,2.7-2,2.7h-.7v6h24.2v-6h-1.1c-1.6,0-2.1-.6-2.1-3V44.5c0-10.8-2.3-15-12.9-15-6.2,0-10.6,2-13.5,8.7-1.2-6-4.4-8.7-12.6-8.7-6.8,0-10.4,2.1-13,8.7v-8.7l-20.7,1.7v6h.9c1.4,0,2.4,1,2.4,4.4V109.9c0,2.7-.6,3.5-2.4,3.5h-.9v6h23.1v-6h-.9c-1.2,0-1.5-.5-1.5-2.3V50.4c0-7.3-.2-9.9,4.5-9.9,3.2,0,3.2,1.2,3.2,7.3v62.8c0,2.3-.7,2.7-1.8,2.7h-1v6h23.7v-6h-.4c-1.6,0-2.3-.6-2.3-3V50.4Zm168.8,69h29v-6h-2c-2.5,0-3.3-1.1-3.3-6.3V61.8h15.3v45.3c0,5.2-.7,6.3-3.2,6.3h-2.3v6h28.8v-6h-2.4c-2.6,0-3-1.1-3-6.3V14.1c0-5.4,.4-6.3,3-6.3h2.4V1.8h-28.8V7.8h2.3c2.4,0,3.2,.9,3.2,6.3V54.7h-15.3V14.1c0-5.4,.7-6.3,3.3-6.3h2V1.8h-29V7.8h2.6c2.4,0,3.2,.9,3.2,6.3V110.1c0,2.6-.7,3.3-3.2,3.3h-2.6v6h0Zm218.7,0h22.9v-6h-.7c-1.5,0-1.7-.5-1.7-2.3V50.4c0-7.3,.2-9.9,4.8-9.9,3.4,0,3.4,1.2,3.4,7.3v62.8c0,2.3-.6,2.7-1.6,2.7h-1.1v6h24.3v-6h-1c-1.7,0-2-.6-2-3V44.5c0-10.8-2.7-15-13.2-15-6.9,0-10.8,2.1-13.6,8.7V0l-22,1.8V7.8h2.3c1.5,0,2.4,.9,2.4,4.2V109.9c0,2.7-.5,3.5-2.4,3.5h-.8v6h0Zm-458.4,1c19.2,0,21.9-16,21.9-45.4,0-29.5-2.9-45.4-21.9-45.4s-21.9,15.9-21.9,45.4c0,29.4,2.7,45.4,21.9,45.4Zm145.3-1h23.1v-6h-1.1c-1.3,0-1.3-.5-1.3-2.3V50.4c0-7.3,0-9.9,4.8-9.9,3.3,0,3.5,1.2,3.5,7.3v62.8c0,2.3-.9,2.7-1.8,2.7h-1.1v6h24.3v-6h-1c-1.7,0-2.1-.6-2.1-3V44.5c0-10.8-2.6-15-13.2-15-6.7,0-10.8,2.1-13.3,8.7v-8.7l-22.2,1.7v6h2.4c1.4,0,2.4,1,2.4,4.4V109.9c0,2.7-.6,3.5-2.4,3.5h-.9l-.1,6h0Zm212.9,1c8,0,10.9-3.9,12.6-8.5,1.5,6.9,3.2,8.5,12.1,8.5,10.5,0,11.9-6.3,11.7-18.6h-5c0,8.9-.2,9.8-1.8,9.8-1.5,0-1.5-.7-1.5-5.7V47.6c0-11.8-3.9-18-17.7-18-10.9,0-21.8,3.3-21.2,15.1,.3,5.4,2.4,11.1,8.1,10.8,5.2-.3,7.6-3.1,7.6-7.5,0-3-2.3-8-5.8-10.7,1.3-.6,3.4-1.2,6.9-1.2,3.9,0,4.6,3,4.6,8.7v16.3c-19.9,6.8-24.1,9.5-24.1,34.5,.1,18.1,4.5,24.8,13.5,24.8h0Zm-34.4,0c14.8,0,18.3-4.5,17.5-29.1h-6.1c0,19.5-.6,21-7.5,21-8.2,0-8.2-3.6-8.2-37v-2.7h24c0-33.7-3.7-43-19.6-43-14.4,0-21.9,8.9-21.9,46-.1,35.4,5.6,45,21.8,44.8h0Zm-199.3,0c14.6,0,18.6-4.5,18-29.1h-6.1c0,19.5-.9,21-8,21-8.9,0-8.4-3.6-8.4-37v-2.7h23.2c0-33.7-3.1-43-18.8-43-14.5,0-22,8.9-22,46,0,35.4,5.7,45,22.1,44.8h0Zm273.4-1h24v-6h-1.8c-1.5,0-2.1-.8-2.1-3.2V0l-22.3,1.8V7.8h2.6c1.5,0,2.1,.6,2.1,3V110.5c0,2.2-.2,2.9-1.2,2.9h-1.2l-.1,6h0Zm-175.2,1c11,0,16.7-7.2,16.7-18,0-25.3-23-40-23-58.2,0-5.6,2-7.2,5.9-7.2,5.7,0,6.6,2.4,7.6,10.9l.9,8.4h6.6V30.2h-5.2c-.3,3.3-1,4.5-1.4,4.1-1.6-1.9-5.5-4.8-12-4.8-9.6,0-18,4.3-18,18.6,0,22.2,22.8,39.1,22.8,56.1,0,7.3-1.6,8.5-6.9,8.5-5.2,0-6.6-2.4-7.6-13.5l-.8-7.4h-6.9v27.5h6c.5-3,1.5-4.9,2.4-4.1,2,2.4,4.1,5.2,12.9,5.2h0Zm203.7-19.6c0,14.2,2.1,19.6,16.2,19.6,9.9,0,12.2-3.9,12.2-14.8v-14.9h-6v15.6c0,5.2-.5,5.8-2.4,5.8-2,0-2.4-.6-2.4-5.2V37h10.9v-6.8h-10.8V7.7h-6.1c-4.4,20-8.1,22.5-14,22.5h-1.6v6.6h4v64h0Zm-426.4,11.9c-4.2,0-4.2-2.4-4.2-37.8,0-35.5,0-37.9,4.2-37.9s4.2,2.4,4.2,37.9c0,35.6,0,37.8-4.2,37.8ZM289,34c15-11.1,18-19.5,13-27.2-2.7-4.2-8.9-6.9-13.4-3.2-5.4,4.5-4.1,12.3,6,16.8-1.8,2.1-6,6.2-9.5,9.6l3.9,4Zm167.6,75.9c-3.6,0-3.6-3.7-3.6-15.6,0-21.6,0-24.5,7.2-28.4v37c0,5.7-.8,7-3.6,7Zm-245.4-43.6c.3-28.1,.8-29.4,4.7-29.4,3.7,0,3.5,1.5,3.5,29.4h-8.2Zm199.5,0c.5-28.1,.7-29.4,4.6-29.4s3.3,1.5,3.3,29.4h-7.9Z"/></svg>