<?xml version="1.0" encoding="UTF-8"?><svg id="Layer_1" xmlns="http://www.w3.org/2000/svg" viewBox="0 0 138.6335 92.1984"><rect y="-.2229" width="138.6335" height="92.4213" style="fill:#111fa3;"/><g><polygon points="32.2577 58.6033 34.1543 64.7941 39.9472 62.4911 36.5193 67.9081 41.8459 71.2264 35.6751 71.7905 36.525 78.2318 32.2577 73.5183 27.9904 78.2318 28.8402 71.7905 22.6684 71.2264 27.9961 67.9081 24.5682 62.4911 30.3611 64.7941 32.2577 58.6033" style="fill:#e2e2e2; fill-rule:evenodd;"/><polygon points="98.9275 63.3879 99.942 66.6987 103.0397 65.4675 101.2061 68.3655 104.0556 70.1406 100.7559 70.4426 101.2086 73.8888 98.9275 71.3665 96.6433 73.8888 97.0982 70.4426 93.7974 70.1406 96.646 68.3655 94.8124 65.4675 97.9115 66.6987 98.9275 63.3879" style="fill:#e2e2e2; fill-rule:evenodd;"/><polygon points="80.5093 32.7746 81.5243 36.087 84.6239 34.8549 82.7909 37.7523 85.64 39.5284 82.3382 39.8293 82.7935 43.276 80.5093 40.7543 78.2276 43.276 78.6814 39.8293 75.3806 39.5284 78.2302 37.7523 76.3962 34.8549 79.4943 36.087 80.5093 32.7746" style="fill:#e2e2e2; fill-rule:evenodd;"/><polygon points="98.9275 11.8291 99.942 15.1416 103.0397 13.9093 101.2061 16.8068 104.0556 18.5829 100.7559 18.8838 101.2086 22.3305 98.9275 19.8093 96.6433 22.3305 97.0982 18.8838 93.7974 18.5829 96.646 16.8068 94.8124 13.9093 97.9115 15.1416 98.9275 11.8291" style="fill:#e2e2e2; fill-rule:evenodd;"/><polygon points="115.2966 27.6191 116.3106 30.9311 119.4103 29.6994 117.5767 32.5968 120.4262 34.3719 117.1254 34.6738 117.5792 38.1205 115.2966 35.5983 113.0134 38.1205 113.4677 34.6738 110.167 34.3719 113.016 32.5968 111.1824 29.6994 114.2827 30.9311 115.2966 27.6191" style="fill:#e2e2e2; fill-rule:evenodd;"/><polygon points="106.293 43.1328 107.0948 45.196 109.2124 45.3589 107.5915 46.7975 108.0974 48.9616 106.293 47.7867 104.4896 48.9616 104.9951 46.7975 103.3736 45.3589 105.4911 45.196 106.293 43.1328" style="fill:#e2e2e2; fill-rule:evenodd;"/></g><g><polygon points="0 -.2229 5.9878 -.2229 27.637 15.0136 27.637 -.2229 37.2993 -.2229 37.2993 15.0136 58.9491 -.2229 64.9358 -.2229 64.9358 4.5111 47.3246 16.9071 64.9358 16.9071 64.9358 28.8699 47.3246 28.8699 64.9358 41.2659 64.9358 45.9999 58.9491 45.9999 37.2993 30.7628 37.2993 45.9999 27.637 45.9999 27.637 30.7628 5.9878 45.9999 0 45.9999 0 41.2659 17.6117 28.8699 0 28.8699 0 16.9071 17.6117 16.9071 0 4.5111 0 -.2229" style="fill:#e2e2e2; fill-rule:evenodd;"/><polygon points="64.9358 19.0133 64.9358 26.7637 35.6471 26.7637 35.6471 45.9999 29.2888 45.9999 29.2888 26.7637 0 26.7637 0 19.0133 29.2888 19.0133 29.2888 -.2229 35.6471 -.2229 35.6471 19.0133 64.9358 19.0133" style="fill:#f71100; fill-rule:evenodd;"/><g><polygon points="19.9611 16.9071 0 2.8576 0 0 24.0221 16.9071 19.9611 16.9071" style="fill:#f71100; fill-rule:evenodd;"/><polygon points="27.637 29.2261 3.8042 45.9999 0 45.9999 0 45.8195 24.0826 28.8699 27.637 28.8699 27.637 29.2261" style="fill:#f71100; fill-rule:evenodd;"/><polygon points="64.9358 .1103 41.0716 16.9071 37.2993 16.9071 37.2993 16.7038 61.3495 -.2229 64.9358 -.2229 64.9358 .1103" style="fill:#f71100; fill-rule:evenodd;"/><polygon points="64.9358 45.6566 41.0862 28.8699 45.1467 28.8699 64.9358 42.7989 64.9358 45.6566" style="fill:#f71100; fill-rule:evenodd;"/></g></g></svg>