<?xml version="1.0" encoding="UTF-8"?><svg id="Layer_1" xmlns="http://www.w3.org/2000/svg" viewBox="0 0 138.6331 92.4225"><rect x="43.2773" width="52.746" height="92.4225" style="fill:#ededed;"/><rect width="43.2773" height="92.4225" style="fill:#d00100;"/><rect x="96.0233" width="42.6098" height="92.4225" style="fill:#cc011d;"/><path d="M68.4562,72.8379c.0029-.2722,.0264-.6378,.0664-1.4572,.152-3.1178,.4862-9.2603,.3313-11.2625-.0357-.4505-.5155-.3726-.7118-.3614-1.6676,.0966-7.5422,.9307-10.7033,1.3357,.6722-1.7226,1.3675-3.3676,1.1408-4.2067-.389-1.4291-5.5263-5.7902-11.2173-10.6586,1.2781-.4394,2.6579-.7976,2.8421-1.6913,.2833-1.2205-.3856-3.6054-1.9065-8.4308,3.6521,1.1951,5.6686,1.8244,6.8431,1.4975,.7323-.2897,.9048-1.5145,1.1237-3.7906,2.0193,2.2931,5.027,7.2018,6.0598,6.8786,1.5772-.6076-.7153-9.6588-1.498-14.4959,1.7223,1.185,2.848,2.0834,3.745,2.0707,1.2425-.0578,2.4849-3.2785,4.7451-8.8002,2.2607,5.5217,3.5026,8.7424,4.7451,8.8002,.897,.0127,2.0231-.8857,3.7454-2.0707-.7832,4.8371-3.0756,13.8883-1.4979,14.4959,1.0328,.3232,4.04-4.5855,6.0598-6.8786,.2189,2.2761,.3913,3.5009,1.1237,3.7906,1.1741,.3269,3.1904-.3024,6.843-1.4975-1.5209,4.8254-2.1902,7.2103-1.9064,8.4308,.1842,.8937,1.5639,1.2519,2.8421,1.6913-5.691,4.8684-10.8289,9.2295-11.2174,10.6586-.2271,.8391,.4686,2.4841,1.1404,4.2067-3.1611-.405-9.0353-1.2391-10.7028-1.3357-.1969-.0112-.6767-.0891-.7118,.3614-.1554,2.0022,.1788,8.1447,.3312,11.2625,.0401,.8194,.0635,1.185,.0664,1.4572,.0049,.1598-1.7261,.1598-1.7212,0Z" style="fill:#d00100; fill-rule:evenodd;"/></svg>