<?xml version="1.0" encoding="UTF-8"?><svg id="Layer_1" xmlns="http://www.w3.org/2000/svg" viewBox="0 0 138.6293 92.7399"><rect y=".4901" width="138.6293" height="92.4216" style="fill:#ededed;"/><polygon points="138.6293 38.9523 138.6293 54.4504 76.1004 54.4504 76.1004 92.9117 62.5288 92.9117 62.5288 54.4504 0 54.4504 0 38.9523 62.5288 38.9523 62.5288 .4901 76.1004 .4901 76.1004 38.9523 138.6293 38.9523" style="fill:#ce0100; fill-rule:evenodd;"/><path d="M12.7833,.4901H58.9991V30.957L12.7833,.4901ZM79.6267,.4901h46.2193l-46.2193,30.4669V.4901Zm59.0026,9.4666l-37.5979,24.7843h37.5979V9.9567Zm-37.5979,48.7041h37.5979v24.7852l-37.5979-24.7852Zm24.8146,34.2509l-46.2193-30.4649v30.4649h46.2193ZM0,58.6608H37.5978L0,83.446v-24.7852Zm58.9991,3.786L12.7833,92.9117H58.9991v-30.4649Zm-21.4013-27.7058L0,9.9567v24.7843H37.5978Z" style="fill:#1e359b; fill-rule:evenodd;"/><g><polygon points="42.6123 34.741 0 6.6506 0 .9382 51.2815 34.741 42.6123 34.741" style="fill:#ce0100; fill-rule:evenodd;"/><polygon points="58.9991 59.3726 8.1213 92.9117 0 92.9117 0 92.5518 51.4118 58.6608 58.9991 58.6608 58.9991 59.3726" style="fill:#ce0100; fill-rule:evenodd;"/><polygon points="138.6293 1.1583 87.6838 34.741 79.6267 34.741 79.6267 34.3366 130.9716 .4901 138.6293 .4901 138.6293 1.1583" style="fill:#ce0100; fill-rule:evenodd;"/><polygon points="138.6293 92.2246 87.7133 58.6608 96.3825 58.6608 138.6293 86.5114 138.6293 92.2246" style="fill:#ce0100; fill-rule:evenodd;"/></g></svg>