<?xml version="1.0" encoding="utf-8"?>
<!-- Generator: Adobe Illustrator 26.3.1, SVG Export Plug-In . SVG Version: 6.00 Build 0)  -->
<svg version="1.1" id="Layer_2" xmlns="http://www.w3.org/2000/svg" xmlns:xlink="http://www.w3.org/1999/xlink" x="0px" y="0px"
	 viewBox="0 0 520 520" style="enable-background:new 0 0 520 520;" xml:space="preserve">
<style type="text/css">
	.st0{fill:#FFFFFF;stroke:#FFFFFF;}
	.st1{fill:#404041;}
	.st2{font-family:'ArialMT';}
	.st3{font-size:21.1677px;}
	.st4{fill:none;}
</style>
<rect x="0.5" y="0.5" class="st0" width="520" height="520"/>
<text transform="matrix(1.04 0 0 1 275.7402 249.166)" class="st1 st2 st3">H</text>
<polygon class="st1" points="69.6,234.4 81.4,234.4 81.4,237.3 73,237.3 73,240.5 80.4,240.5 80.4,243.4 73,243.4 73,249.2 
	69.6,249.2 "/>
<rect x="85.4" y="234.4" class="st1" width="3.4" height="14.8"/>
<polygon class="st1" points="93.8,234.4 97,234.4 104.2,243.5 104.2,234.4 107.6,234.4 107.6,249.2 104.7,249.2 97.2,239.8 
	97.2,249.2 93.8,249.2 "/>
<rect x="112.6" y="234.4" class="st1" width="3.4" height="14.8"/>
<path class="st1" d="M120.6,238.6L120.6,238.6c0,3,2,3.8,5.1,4.6c2.6,0.7,3.1,1,3.1,1.9v0c0,0.9-0.8,1.4-2.2,1.4
	c-1.8,0-3.2-0.7-4.6-1.8l-2,2.3c1.9,1.6,4.2,2.4,6.6,2.4c3.3,0,5.6-1.7,5.6-4.6v0c0-2.6-1.8-3.6-4.9-4.4c-2.6-0.7-3.3-1-3.3-2v0
	c0-0.7,0.7-1.3,2-1.3c1.3,0,2.6,0.6,4,1.5l1.8-2.5c-1.6-1.2-3.5-1.9-5.7-1.9C122.8,234.2,120.6,235.9,120.6,238.6"/>
<polygon class="st1" points="146,234.4 146,240.2 139.7,240.2 139.7,234.4 136.3,234.4 136.3,249.2 139.7,249.2 139.7,243.2 
	146,243.2 146,249.2 149.4,249.2 149.4,234.4 "/>
<rect x="154.4" y="234.4" class="st1" width="3.4" height="14.8"/>
<polygon class="st1" points="173.2,234.4 173.2,243.5 165.9,234.4 162.8,234.4 162.8,249.2 166.2,249.2 166.2,239.8 173.6,249.2 
	176.5,249.2 176.5,234.4 "/>
<path class="st1" d="M180.7,241.8L180.7,241.8c0,4.4,3.3,7.6,8.1,7.6c2.8,0,5-1,6.6-2.3v-6.4h-6.7v2.8h3.4v2.1
	c-0.9,0.6-2,0.9-3.2,0.9c-2.7,0-4.6-2-4.6-4.7v0c0-2.5,2-4.6,4.4-4.6c1.8,0,2.8,0.6,4,1.5l2.1-2.5c-1.6-1.3-3.3-2-6-2
	C184.1,234.1,180.7,237.5,180.7,241.8"/>
<polygon class="st1" points="206.5,234.4 206.5,237.4 211.2,237.4 211.2,249.2 214.6,249.2 214.6,237.4 219.3,237.4 219.3,234.4 "/>
<path class="st1" d="M225.3,241.8L225.3,241.8c0-2.6,1.9-4.6,4.6-4.6c2.7,0,4.6,2.1,4.6,4.6v0c0,2.5-1.9,4.6-4.6,4.6
	C227.2,246.4,225.3,244.3,225.3,241.8 M221.8,241.8L221.8,241.8c0,4.3,3.4,7.6,8.2,7.6c4.7,0,8.2-3.4,8.2-7.6v0
	c0-4.2-3.4-7.6-8.2-7.6C225.2,234.1,221.8,237.5,221.8,241.8"/>
<path class="st1" d="M252.1,234.4v8.5c0,2.3-1.3,3.6-3.3,3.6s-3.3-1.3-3.3-3.6v-8.4H242v8.5c0,4.3,2.5,6.6,6.7,6.6
	c4.2,0,6.8-2.2,6.8-6.7v-8.4H252.1z"/>
<g>
	<g>
		<path id="SVGID_1_" class="st1" d="M259.5,241.8L259.5,241.8c0,4.3,3.4,7.6,7.9,7.6c3,0,4.7-1,6.3-2.6l-2.2-2.1
			c-1.2,1-2.3,1.7-4,1.7c-2.6,0-4.5-2.1-4.5-4.6v0c0-2.5,1.9-4.6,4.5-4.6c1.5,0,2.7,0.7,4,1.7l2.2-2.4c-1.4-1.3-3.2-2.3-6.1-2.3
			C262.8,234.1,259.5,237.5,259.5,241.8"/>
	</g>
</g>
<polygon class="st1" points="287.2,234.4 287.2,240.2 281,240.2 281,234.4 277.6,234.4 277.6,249.2 281,249.2 281,243.2 
	287.2,243.2 287.2,249.2 290.6,249.2 290.6,234.4 "/>
<polygon class="st1" points="68.7,310.6 68.7,260.2 102.6,260.2 102.6,268.8 78.5,268.8 78.5,281.8 98.5,281.8 98.5,289.8 
	78.5,289.8 78.5,310.6 "/>
<polygon class="st1" points="146.6,310.6 146.6,302 120.9,302 120.9,260.2 111.1,260.2 111.1,310.6 "/>
<path class="st1" d="M180.3,260.2h-7.9l-19.9,50.4h10.4l4.6-12.6h17.7l4.6,12.6h10.4L180.3,260.2z M169,291.1l7.3-20.4l7,20.4H169z"
	/>
<polygon class="st1" points="229.3,283.3 223.1,299.4 208.7,260.2 198.1,260.2 218.6,310.6 226.8,310.6 235.6,289.4 244.3,310.6 
	252.5,310.6 273.1,260.2 262.4,260.2 248.1,299.4 241.7,283.3 250.3,260.3 241.2,260.3 235.6,277 229.9,260.3 220.8,260.3 "/>
<polygon class="st1" points="316.3,310.6 316.3,302 290.6,302 290.6,260.2 280.8,260.2 280.8,310.6 "/>
<polygon class="st1" points="334.3,302 334.3,288.9 355.5,288.9 355.5,280.9 334.3,280.9 334.3,268.8 358.9,268.8 358.9,260.2 
	324.5,260.2 324.5,310.6 359.5,310.6 359.5,302 "/>
<path class="st1" d="M404.8,265.5c-4.4-3-10.6-5.6-17.6-5.6c-10.2,0-18.4,5.5-18.4,15.8c0,7.7,4.7,11,14.3,13.6
	c7.9,2.1,13.1,3.4,13.1,7.9c0,3.3-2.8,5.2-8.1,5.2c-7.7,0-15.2-4.5-17-6.2l-4.3,8.4c5.8,4.1,13.6,6.5,21.2,6.5
	c9.9,0,18.7-4.1,18.7-15c0-9.3-6.3-12.3-16.2-14.9c-7.6-2-11.5-3-11.5-7.2c0-3.6,2.7-5.7,8-5.7c6,0,12.3,3.6,13.6,5L404.8,265.5z"/>
<path class="st1" d="M451.2,265.5c-4.4-3-10.6-5.6-17.6-5.6c-10.2,0-18.4,5.5-18.4,15.8c0,7.7,4.7,11,14.3,13.6
	c7.9,2.1,13.1,3.4,13.1,7.9c0,3.3-2.8,5.2-8.1,5.2c-7.7,0-15.2-4.5-17-6.2l-4.3,8.4c5.8,4.1,13.6,6.5,21.2,6.5
	c9.9,0,18.7-4.1,18.7-15c0-9.3-6.3-12.3-16.2-14.9c-7.6-2-11.5-3-11.5-7.2c0-3.6,2.7-5.7,8-5.7c6,0,12.3,3.6,13.6,5L451.2,265.5z"/>
<path class="st1" d="M457.7,266.7h-1.7v3.8h-1.3v-3.8h-1.7v-1.3h4.5L457.7,266.7L457.7,266.7z M462.7,265.5h1.8v5.1h-1.3v-3.4
	l-1.3,2.7h-1l-1.3-2.7v3.4h-1.3v-5.1h1.8l1.2,2.9L462.7,265.5z"/>
<rect x="67.8" y="231.2" class="st4" width="396.7" height="80"/>
</svg>
