<?xml version="1.0" encoding="UTF-8"?><svg id="Layer_2" xmlns="http://www.w3.org/2000/svg" viewBox="0 0 721.7962 819.1752"><path d="M326.1217,796.7618l34.7795,22.4134,34.7741-22.4134v-108.1901l60.2781,34.0047,30.9078-15.4609v-40.1831l-89.6425-51.0059v-71.097l63.3721,38.6397v-71.0955l66.1437,37.6578-.0656,102.6019,31.6825,17.7799,32.0649-17.7799v-67.6177l89.6526,51.0028,38.6357-17.7699v-42.5083l-91.1889-54.0966,57.2661-32.0665-.0826-36.7123-29.3604-20.8636-91.1921,51.0027-64.9-33.9954,62.9108-36.3175-61.1325-37.8772,63.1217-40.1863,91.1921,54.0958,30.9077-16.9972v-38.642l-59.5018-33.2369,95.0515-54.0935v-40.1862l-34.0055-20.8637-97.3744,52.5462v-71.0947l-32.8366-14.6852-31.6833,14.6852v111.2879l-65.3056,35.5489v-77.2856l-63.3721,38.6421v-71.1032l92.7363-52.547v-34.0016l-31.6786-20.8668-62.6011,34.7772V22.4164L360.9012,0l-34.7795,22.4164v108.1909l-60.2782-34.0054-30.9154,17.7759v37.8649l89.647,51.0028v71.1032l-66.54-35.8718,.0819,73.7366-63.3674-36.3175,.1213-104.2288-34.8004-20.0912-28.6945,19.2175v69.5505l-94.537-54.6173L0,204.7951v43.2778l95.7653,51.9815-60.2195,33.8007v39.4114l33.3589,16.5825,88.9982-52.1275,61.5728,35.545-61.1333,37.8811,62.9132,36.3176,1.5172,1.0158-61.5744,35.5489-88.9951-52.1345-35.1102,19.036v39.8015l61.9669,30.9602L0,575.7403v43.2801l40.1383,17.0004,94.3285-53.3272,.0602,68.4326,28.8459,19.0453,34.0766-21.0151,.0726-102.2164,62.1391-35.7266v75.3458l64.9139-41.7297v71.097l-89.647,51.0059v37.8618l30.9154,17.7822,60.2782-34.0047v108.1901Zm-24.7293-384.8525l30.9108-51.002h60.2813l29.3635,51.002-27.8131,47.9089h-60.2882l-32.4543-47.9089Z" style="fill:#333;"/></svg>