<?xml version="1.0" encoding="utf-8"?>
<!-- Generator: Adobe Illustrator 26.4.1, SVG Export Plug-In . SVG Version: 6.00 Build 0)  -->
<svg version="1.1" id="Layer_2" xmlns="http://www.w3.org/2000/svg" xmlns:xlink="http://www.w3.org/1999/xlink" x="0px" y="0px"
	 viewBox="0 0 24.6 24.6" style="enable-background:new 0 0 24.6 24.6;" xml:space="preserve">
<path d="M24.2,5.8h-19c0,0-0.1-3.2-1.3-4.5C3,0.4,1.8-0.1,0.5,0l0,0C0.2,0,0,0.2-0.1,0.5c0,0.3,0.2,0.6,0.5,0.6c0,0,0.1,0,0.1,0
	C2,1,3.3,1.9,3.6,3.4c0.3,1.2,1.9,13.1,2.3,15.7c-1.5,0.7-2.1,2.4-1.4,3.9c0.7,1.5,2.4,2.1,3.9,1.4c1-0.5,1.7-1.5,1.7-2.6
	c0-0.5-0.1-0.9-0.4-1.4h7.1c-0.2,0.4-0.4,0.9-0.4,1.4c0,1.6,1.3,2.9,2.9,2.9c1.6,0,2.9-1.3,2.9-2.9c0-1.6-1.3-2.9-2.9-2.9H7.2
	l-0.6-3.5h12.7c1.6,0.1,3-0.9,3.3-2.5c0.3-1.3,1.5-5,2-6.4c0.1-0.2,0-0.4-0.3-0.5C24.3,5.8,24.2,5.8,24.2,5.8z"/>
</svg>
