<?xml version="1.0" encoding="utf-8"?>
<!-- Generator: Adobe Illustrator 26.5.0, SVG Export Plug-In . SVG Version: 6.00 Build 0)  -->
<svg version="1.1" id="Layer_1" xmlns="http://www.w3.org/2000/svg" xmlns:xlink="http://www.w3.org/1999/xlink" x="0px" y="0px"
	 viewBox="0 0 235.8 255.9" style="enable-background:new 0 0 235.8 255.9;" xml:space="preserve">
<path d="M73.4,223.1c-13.6-5.8-25.8-14-36.3-24.5c-10.5-10.5-18.7-22.7-24.5-36.3c-6-14.1-9-29-9-44.5c0-15.4,3-30.4,9-44.5
	c5.8-13.6,14-25.8,24.5-36.3c10.5-10.5,22.7-18.7,36.3-24.5c14.1-6,29-9,44.5-9c15.4,0,30.4,3,44.5,9c13.6,5.8,25.8,14,36.3,24.5
	c10.5,10.5,18.7,22.7,24.5,36.3c6,14.1,9,29,9,44.5c0,15.4-3,30.4-9,44.5c-5.8,13.6-14,25.8-24.5,36.3
	c-10.5,10.5-22.7,18.7-36.3,24.5c-14.1,6-29,9-44.5,9C102.5,232.1,87.5,229.1,73.4,223.1 M117.9,0C102,0,86.5,3.1,72,9.3
	c-14,5.9-26.6,14.4-37.5,25.3C23.7,45.4,15.2,58,9.3,72C3.1,86.5,0,102,0,117.9c0,15.9,3.1,31.4,9.3,45.9
	c5.9,14,14.4,26.6,25.3,37.5C45.4,212.1,58,220.6,72,226.5c14.5,6.1,30,9.3,45.9,9.3c15.9,0,31.4-3.1,45.9-9.3
	c14-5.9,26.6-14.4,37.5-25.3s19.3-23.4,25.3-37.5c6.1-14.5,9.3-30,9.3-45.9c0-15.9-3.1-31.4-9.3-45.9c-5.9-14-14.4-26.6-25.3-37.5
	s-23.4-19.3-37.5-25.3C149.2,3.1,133.8,0,117.9,0z"/>
<path d="M117.8,211.6c-0.2,0-0.3,0.2-0.4,0.4c-0.2,0.8-0.5,1.7-0.7,2.7c-0.9,3.5-2.1,7.9-3.5,10.5c-1.4,2.5-3.7,4.7-5.6,6.5
	c-0.5,0.5-1,0.9-1.4,1.3c-0.1,0.1-0.2,0.4-0.2,0.7c0,0.3,0.1,0.6,0.2,0.7c0.4,0.4,0.9,0.9,1.4,1.3c1.9,1.8,4.2,3.9,5.6,6.5
	c1.4,2.5,2.5,7,3.5,10.5c0.3,1,0.5,1.9,0.7,2.7c0.1,0.3,0.2,0.4,0.4,0.4c0.2,0,0.3-0.2,0.4-0.4c0.2-0.8,0.5-1.7,0.7-2.7
	c0.9-3.5,2.1-7.9,3.5-10.5c1.4-2.6,3.7-4.7,5.6-6.5c0.5-0.5,1-0.9,1.4-1.3c0.1-0.1,0.2-0.4,0.2-0.7c0-0.3-0.1-0.6-0.2-0.7
	c-0.4-0.4-0.9-0.9-1.4-1.3c-1.9-1.8-4.2-3.9-5.6-6.5c-1.4-2.6-2.5-7-3.5-10.5c-0.3-1-0.5-1.9-0.7-2.7
	C118.1,211.8,117.9,211.6,117.8,211.6z"/>
</svg>
