<?xml version="1.0" encoding="utf-8"?>
<!-- Generator: Adobe Illustrator 26.4.1, SVG Export Plug-In . SVG Version: 6.00 Build 0)  -->
<svg version="1.1" id="Layer_1" xmlns="http://www.w3.org/2000/svg" xmlns:xlink="http://www.w3.org/1999/xlink" x="0px" y="0px"
	 viewBox="0 0 58.6 68.5" style="enable-background:new 0 0 58.6 68.5;" xml:space="preserve">
<path d="M32,0l-0.1,47.8c0,5.9-5.2,10.5-11,10.5c-5.9,0-10.6-4.8-10.6-10.6c0-5.9,4.8-10.6,10.6-10.6c0.4,0,0.9,0.1,1.3,0.1V26.9
	c-0.4,0-0.9-0.1-1.3-0.1C9.3,26.9,0,36.2,0,47.7c0,11.5,9.3,20.8,20.8,20.8c11.5,0,20.8-9.3,20.8-20.8V19.5
	c3.4,5.2,9.1,8.3,15.3,8.3c0.6,0,1.1,0,1.7-0.1h0V16.3C49.8,15.7,42.7,8.8,41.8,0H32z"/>
</svg>
