<?xml version="1.0" encoding="utf-8"?>
<!-- Generator: Adobe Illustrator 26.4.1, SVG Export Plug-In . SVG Version: 6.00 Build 0)  -->
<svg version="1.1" id="Layer_1" xmlns="http://www.w3.org/2000/svg" xmlns:xlink="http://www.w3.org/1999/xlink" x="0px" y="0px"
	 viewBox="0 0 67.2 67.2" style="enable-background:new 0 0 67.2 67.2;" xml:space="preserve">
<path d="M47.5,15.9c0,2.2,1.8,3.9,3.9,3.9c2.2,0,3.9-1.8,3.9-3.9c0-2.2-1.8-3.9-3.9-3.9C49.2,12,47.5,13.8,47.5,15.9"/>
<path d="M23.3,33.6C23.3,27.8,28,23,33.9,23c5.8,0,10.6,4.8,10.6,10.6c0,5.8-4.8,10.6-10.6,10.6C28,44.2,23.3,39.5,23.3,33.6
	 M17.3,33.6c0,9.1,7.4,16.6,16.6,16.6s16.6-7.4,16.6-16.6c0-9.1-7.4-16.6-16.6-16.6S17.3,24.5,17.3,33.6"/>
<path d="M6.3,47V20.2c0-7.6,6.2-13.9,13.9-13.9H47c7.6,0,13.9,6.2,13.9,13.9V47c0,7.6-6.2,13.9-13.9,13.9H20.2
	C12.5,60.9,6.3,54.7,6.3,47 M20.2,0C9.1,0,0,9.1,0,20.2V47c0,11.1,9.1,20.2,20.2,20.2H47c11.1,0,20.2-9.1,20.2-20.2V20.2
	C67.2,9.1,58.2,0,47,0H20.2z"/>
</svg>
