<?xml version="1.0" encoding="utf-8"?>
<!-- Generator: Adobe Illustrator 26.4.1, SVG Export Plug-In . SVG Version: 6.00 Build 0)  -->
<svg version="1.1" id="Layer_1" xmlns="http://www.w3.org/2000/svg" xmlns:xlink="http://www.w3.org/1999/xlink" x="0px" y="0px"
	 viewBox="0 0 68.3 47.8" style="enable-background:new 0 0 68.3 47.8;" xml:space="preserve">
<path d="M25.6,32.9V15.4c0-0.8,2.3-1.3,3-0.9l16.5,9c0.7,0.4,1.4,1.4,0.7,1.8l-17.2,8.5c-0.2,0.1-0.4,0.1-0.7,0.1
	C27,33.9,25.6,33.5,25.6,32.9 M15,0C6.7,0,0,6.7,0,15v17.8c0,8.3,6.7,15,15,15h38.3c8.3,0,15-6.7,15-15V15c0-8.3-6.7-15-15-15H15z"
	/>
</svg>
