<?xml version="1.0" encoding="utf-8"?>
<!-- Generator: Adobe Illustrator 26.4.1, SVG Export Plug-In . SVG Version: 6.00 Build 0)  -->
<svg version="1.1" id="Layer_1" xmlns="http://www.w3.org/2000/svg" xmlns:xlink="http://www.w3.org/1999/xlink" x="0px" y="0px"
	 viewBox="0 0 911.1 177.3" style="enable-background:new 0 0 911.1 177.3;" xml:space="preserve">
<style type="text/css">
	.st0{fill:#404041;}
	.st1{fill:none;}
</style>
<polygon class="st0" points="2.1,0.5 29.1,0.5 29.1,7.3 9.9,7.3 9.9,14.5 26.8,14.5 26.8,21.4 9.9,21.4 9.9,34.6 2.1,34.6 "/>
<rect x="38.4" y="0.5" class="st0" width="7.8" height="34.1"/>
<polygon class="st0" points="57.8,0.5 65,0.5 81.7,21.5 81.7,0.5 89.4,0.5 89.4,34.6 82.7,34.6 65.5,12.9 65.5,34.6 57.8,34.6 "/>
<rect x="101" y="0.5" class="st0" width="7.8" height="34.1"/>
<path class="st0" d="M119.4,10.2L119.4,10.2c0,6.9,4.6,8.8,11.8,10.5c5.9,1.5,7.1,2.4,7.1,4.3v0.1c0,2-1.9,3.2-5.1,3.2
	c-4.1,0-7.4-1.6-10.6-4.1l-4.6,5.3c4.3,3.7,9.7,5.5,15.1,5.5c7.7,0,13-3.8,13-10.6v-0.1c0-5.9-4.1-8.4-11.2-10.2
	c-6.1-1.5-7.7-2.2-7.7-4.5v0c0-1.7,1.6-3,4.6-3s6.1,1.3,9.2,3.4l4.1-5.7c-3.6-2.8-8-4.3-13.2-4.3C124.5,0,119.4,4.1,119.4,10.2"/>
<polygon class="st0" points="177.8,0.5 177.8,14 163.4,14 163.4,0.5 155.6,0.5 155.6,34.6 163.4,34.6 163.4,20.9 177.8,20.9 
	177.8,34.6 185.6,34.6 185.6,0.5 "/>
<rect x="197.2" y="0.5" class="st0" width="7.8" height="34.1"/>
<polygon class="st0" points="240.4,0.5 240.4,21.5 223.8,0.5 216.6,0.5 216.6,34.6 224.3,34.6 224.3,12.9 241.5,34.6 248.1,34.6 
	248.1,0.5 "/>
<path class="st0" d="M257.8,17.5L257.8,17.5c0,10.2,7.6,17.6,18.6,17.6c6.5,0,11.5-2.4,15.2-5.4V14.9h-15.4v6.5h7.9v4.9
	c-2,1.4-4.5,2-7.3,2c-6.3,0-10.7-4.6-10.7-10.8v-0.1c0-5.8,4.5-10.6,10.2-10.6c4.1,0,6.5,1.3,9.3,3.5l4.9-5.7
	c-3.7-3-7.6-4.7-13.9-4.7C265.6-0.1,257.8,7.8,257.8,17.5"/>
<polygon class="st0" points="317.2,0.5 317.2,7.4 328,7.4 328,34.6 335.8,34.6 335.8,7.4 346.6,7.4 346.6,0.5 "/>
<path class="st0" d="M360.4,17.5L360.4,17.5c0-5.9,4.4-10.7,10.6-10.7c6.3,0,10.7,4.9,10.7,10.7v0.1c0,5.8-4.4,10.6-10.6,10.6
	S360.4,23.4,360.4,17.5 M352.3,17.5L352.3,17.5c0,9.8,7.9,17.6,18.8,17.6c10.9,0,18.9-7.9,18.9-17.6v-0.1c0-9.7-7.9-17.5-18.8-17.5
	C360.3-0.1,352.3,7.8,352.3,17.5"/>
<path class="st0" d="M422.2,0.5V20c0,5.4-2.9,8.2-7.7,8.2s-7.7-2.9-7.7-8.4V0.5H399V20c0,10,5.8,15.2,15.4,15.2S430,30.1,430,19.8
	V0.5H422.2z"/>
<g>
	<g>
		<path id="SVGID_1_" class="st0" d="M439.1,17.5L439.1,17.5c0,9.9,7.8,17.6,18.2,17.6c6.8,0,10.9-2.3,14.5-6.1l-5-4.8
			c-2.8,2.4-5.3,4-9.3,4c-6.1,0-10.3-4.9-10.3-10.7v-0.1c0-5.8,4.3-10.6,10.3-10.6c3.5,0,6.3,1.5,9.1,3.9l5-5.5
			c-3.3-3.1-7.3-5.3-14-5.3C446.7-0.1,439.1,7.8,439.1,17.5"/>
	</g>
</g>
<polygon class="st0" points="503,0.5 503,14 488.6,14 488.6,0.5 480.8,0.5 480.8,34.6 488.6,34.6 488.6,20.9 503,20.9 503,34.6 
	510.8,34.6 510.8,0.5 "/>
<polygon class="st0" points="0,176 0,60 77.9,60 77.9,79.7 22.5,79.7 22.5,109.6 68.6,109.6 68.6,128 22.5,128 22.5,176 "/>
<polygon class="st0" points="179.3,176 179.3,156.2 120.2,156.2 120.2,60 97.6,60 97.6,176 "/>
<path class="st0" d="M256.8,60h-18.3l-45.8,116h23.9l10.6-28.9h40.7l10.6,28.9h23.9L256.8,60z M230.9,131.2l16.7-46.9l16.2,46.9
	H230.9z"/>
<polygon class="st0" points="369.7,113.1 355.3,150.2 322.3,60 297.9,60 345,176 364,176 384.1,127.3 404.2,176 423.1,176 470.4,60 
	445.8,60 413,150.2 398.3,113.1 418.1,60.3 397.1,60.3 384.1,98.7 371,60.3 350.2,60.3 "/>
<polygon class="st0" points="570,176 570,156.2 510.8,156.2 510.8,60 488.3,60 488.3,176 "/>
<polygon class="st0" points="611.4,156.2 611.4,126 660.3,126 660.3,107.7 611.4,107.7 611.4,79.7 668,79.7 668,60 588.9,60 
	588.9,176 669.4,176 669.4,156.2 "/>
<path class="st0" d="M773.7,72.1c-10.1-6.9-24.4-12.9-40.5-12.9c-23.5,0-42.3,12.7-42.3,36.4c0,17.8,10.8,25.3,32.9,31.4
	c18.1,4.9,30.1,7.8,30.1,18.1c0,7.7-6.4,11.9-18.6,11.9c-17.7,0-35.1-10.3-39.1-14.2l-10,19.4c13.4,9.5,31.4,15,48.7,15
	c22.9,0,43-9.5,43-34.5c0-21.3-14.4-28.4-37.3-34.3c-17.5-4.6-26.5-7-26.5-16.5c0-8.3,6.2-13.1,18.5-13.1c13.9,0,28.3,8.2,31.2,11.4
	L773.7,72.1z"/>
<path class="st0" d="M880.5,72.1c-10.1-6.9-24.4-12.9-40.5-12.9c-23.5,0-42.3,12.7-42.3,36.4c0,17.8,10.8,25.3,32.9,31.4
	c18.1,4.9,30.1,7.8,30.1,18.1c0,7.7-6.4,11.9-18.6,11.9c-17.7,0-35.1-10.3-39.1-14.2l-10,19.4c13.4,9.5,31.4,15,48.7,15
	c22.9,0,43-9.5,43-34.5c0-21.3-14.4-28.4-37.3-34.3c-17.5-4.6-26.5-7-26.5-16.5c0-8.3,6.2-13.1,18.5-13.1c13.9,0,28.3,8.2,31.2,11.4
	L880.5,72.1z"/>
<path class="st0" d="M895.5,74.9h-3.8v8.8h-2.9v-8.8H885V72h10.4L895.5,74.9L895.5,74.9z M906.9,72.1h4.2v11.7h-2.9v-7.9l-2.9,6.2
	H903l-2.9-6.2v7.9h-2.9V72.1h4.2l2.7,6.7L906.9,72.1z"/>
<rect x="-2.2" y="-6.9" class="st1" width="913.3" height="184.2"/>
</svg>
