<?xml version="1.0" encoding="UTF-8"?><svg id="Layer_1" xmlns="http://www.w3.org/2000/svg" viewBox="0 0 206.9949 206.9949"><g><circle cx="103.4974" cy="103.4974" r="103.4974" style="fill:#d18777;"/><circle cx="103.4974" cy="103.4974" r="99.0297" style="fill:#fff;"/><g><path d="m30.6313,91.1225l2.9609.2148-.7109,9.8384-2.9609-.2148.2437-3.3774-11.3066-.8169c.1865.146.3877.377.6025.6968.2139.3184.4175.6768.6108,1.0771.1924.3989.3477.8037.4653,1.2129.1182.4111.1655.7798.1421,1.1055l-3.0352-.2188c.0322-.4404-.0542-.8984-.2573-1.3721-.2036-.4727-.4341-.9131-.6924-1.3164-.2573-.4043-.5005-.7383-.7271-1.0005-.2275-.2627-.356-.4023-.3882-.4214l.2427-3.3525,14.5859,1.0542.2246-3.1089Z" style="fill:#d18777;"/><path d="m35.7397,83.4057c-.3442,1.1943-.9043,2.1719-1.6821,2.9346-.7769.7637-1.6646,1.3374-2.6616,1.7256-.9966.3887-2.0376.5986-3.1245.6323-1.0854.0327-2.1016-.0806-3.0483-.3394-1.0098-.2773-1.9771-.7241-2.9014-1.3428-.9248-.6177-1.7065-1.3545-2.3457-2.209-.6396-.8525-1.0889-1.7988-1.3467-2.8364-.2583-1.0376-.2344-2.1162.0728-3.2368.3291-1.1982.8906-2.1807,1.686-2.9468.7949-.7661,1.6948-1.3418,2.6997-1.728,1.0054-.3857,2.0503-.5957,3.1367-.6284,1.0859-.0327,2.0864.0762,3.0015.3267,1.0254.2817,1.9971.7305,2.9131,1.3467.917.6157,1.6948,1.3516,2.3345,2.2041.6392.8535,1.0879,1.7998,1.3462,2.8374.2588,1.0366.2314,2.1245-.0801,3.2603Zm-9.6152,1.6631c.6675.166,1.3545.2568,2.0625.2729.7085.0161,1.3784-.063,2.0117-.2373.6328-.1733,1.187-.4634,1.6621-.8672.4756-.4043.8062-.9448.9927-1.624.1943-.7095.1797-1.3657-.0454-1.9707-.2241-.605-.5723-1.1455-1.0439-1.6216-.4707-.4771-1.0117-.8838-1.6235-1.2217-.6113-.3374-1.2168-.5884-1.8169-.752-.6621-.1821-1.3486-.2769-2.0591-.2847-.71-.0083-1.3823.0791-2.0176.2603-.6353.1826-1.1914.4795-1.6689.8916-.4775.4111-.8071.9487-.9883,1.6108-.1909.6948-.1733,1.3447.0503,1.9482.2246.604.5728,1.1445,1.0439,1.6216.4717.4771,1.0166.8853,1.6362,1.2246.6191.3398,1.2207.5898,1.8042.749Z" style="fill:#d18777;"/><path d="m41.9526,68.1079c-.6147,1.0815-1.3887,1.9019-2.3228,2.46-.9341.5601-1.9312.9111-2.9917,1.0547-1.0596.1431-2.1221.105-3.1855-.1177-1.063-.2227-2.0249-.5708-2.8843-1.0454-.9165-.5049-1.7524-1.1665-2.5063-1.9839-.7539-.8179-1.3418-1.7158-1.7637-2.6958s-.6362-2.0044-.644-3.0732c-.0083-1.0703.2676-2.1128.8286-3.1309.6001-1.0879,1.377-1.9102,2.3291-2.4697.9521-.5576,1.9624-.9067,3.0303-1.0464,1.0669-.1406,2.1323-.0991,3.1953.1235,1.064.2227,2.0117.5625,2.8423,1.0205.9307.5127,1.77,1.1768,2.5166,1.9912.7466.8135,1.3315,1.71,1.7524,2.6895.4219.98.6372,2.0044.645,3.0737.0083,1.0688-.2725,2.1196-.8413,3.1499Zm-9.7373-.6343c.6094.3174,1.2563.5669,1.9414.748.6841.1812,1.3545.2622,2.0107.2417.6558-.021,1.2627-.1729,1.8193-.4546.5571-.2812,1.0049-.7305,1.3452-1.3452.355-.645.4941-1.2881.418-1.9277-.0767-.6396-.2886-1.2466-.6353-1.8213-.3462-.5742-.7773-1.0962-1.293-1.5674-.5151-.4707-1.0444-.8564-1.5898-1.1577-.6016-.3306-1.2461-.584-1.9341-.7583-.689-.1748-1.3633-.2471-2.0234-.2188s-1.2705.1865-1.8315.4751c-.5601.2886-1.0063.7334-1.3384,1.335-.3477.6304-.4829,1.2651-.4067,1.9048.0767.6406.2886,1.2485.6348,1.8228.3472.5728.7812,1.0981,1.3037,1.5732.5229.4751,1.0493.8579,1.5791,1.1504Z" style="fill:#d18777;"/><path d="m41.3677,50.2285c-.3911.418-.8267.7383-1.3047.9639-.479.2231-.9639.3521-1.4546.3857s-.9727-.0269-1.4468-.1792c-.4736-.1523-.9009-.4072-1.2837-.7646-.3691-.3472-.6489-.7539-.8379-1.2227-.189-.4683-.2798-.9453-.2725-1.4326.0068-.4854.1064-.9746.2993-1.4673.1914-.4927.4834-.9468.875-1.3657.3799-.4058.8125-.7236,1.2969-.9536s.9688-.3638,1.4536-.4028.9673.0195,1.4468.1782c.4795.1577.9048.4097,1.2744.7568.3823.3579.6646.7681.8477,1.2305.1826.4639.2734.9399.272,1.4321-.0005.4912-.1001.9873-.2983,1.4844-.1982.4985-.4873.9512-.8672,1.3569Zm-1.1992-1.1235c.1675-.1802.2793-.3823.3359-.6099.0557-.2271.0708-.4644.0454-.7139-.0254-.2476-.0991-.4912-.2231-.73-.1235-.2383-.2866-.4531-.4897-.6436-.418-.3911-.8901-.5977-1.418-.6221-.5269-.0234-.9531.1387-1.2773.4844-.1675.1792-.2798.3818-.3359.6099s-.0708.4663-.0454.7129c.0254.2485.0962.4883.2139.7227.1177.2339.2783.4448.4814.6343.418.3926.8936.6025,1.4263.6313.5332.0288.9614-.1299,1.2866-.4761Zm5.9966,9.2817l-1.1611-10.5679-1.7627-10.3926,1.9902-.1865,1.2046,10.3057,1.7197,10.6553-1.9907.186Zm9.3247-7.9072c-.3916.4165-.8271.7378-1.3052.9624-.479.2236-.9614.356-1.4458.394-.4849.0391-.9639-.0176-1.4375-.1699-.4736-.1528-.9014-.4072-1.2842-.7651-.3813-.3574-.6641-.7681-.8472-1.2314-.1831-.4619-.2734-.939-.2725-1.4316.0015-.4917.0981-.9839.2905-1.4766.1924-.4917.4839-.9463.8755-1.3652.3911-.418.8262-.7393,1.3047-.9629.479-.2231.9668-.355,1.4629-.394.4961-.0396.9785.02,1.4468.1782.4683.1577.8936.4155,1.2749.7744.3823.3574.6675.7646.856,1.2207.189.4585.2769.9321.2637,1.4238-.0132.4937-.1152.9849-.3076,1.4766-.1919.4941-.4839.9478-.875,1.3667Zm-1.1997-1.125c.167-.1782.2788-.3818.3354-.6099.0562-.2266.0713-.4639.0459-.7139-.0254-.2466-.0967-.4873-.2148-.7217-.1172-.2329-.2769-.4438-.4805-.6353-.2144-.2007-.4482-.3516-.7002-.4546-.252-.1001-.5-.1592-.7437-.1743-.2432-.0151-.4771.019-.6997.1011-.2231.0825-.4131.2075-.5693.3745-.168.1782-.2798.3823-.3359.6099-.0566.2271-.0723.4653-.0464.7129.0254.2476.1001.4912.2236.731.124.2393.2871.4531.4897.6426.4185.3921.8901.6001,1.418.623.5273.0225.9526-.1387,1.2778-.4854Z" style="fill:#d18777;"/><path d="m76.7817,36.4995l-5.1641-10.3105-.1694,9.6895-1.6455.8232-7.8604-5.6675,5.1646,10.3115-3.0273,1.5161-7.8018-15.5767,3.2461-1.626,9.0469,6.5547.2114-11.1919,3.2251-1.6152,7.8022,15.5767-3.0278,1.5161Z" style="fill:#d18777;"/><path d="m90.1445,32.8818c-1.2539.2397-2.437.2129-3.5513-.0825-1.1138-.293-2.1143-.7754-3.001-1.4478-.8862-.6709-1.6299-1.4902-2.2324-2.458-.6016-.9668-1.0068-1.9961-1.2163-3.0898-.2183-1.1401-.2153-2.2734.0107-3.3989.2251-1.126.6343-2.1616,1.228-3.1084.5928-.9463,1.3584-1.7559,2.2954-2.4263s2.0088-1.1221,3.2134-1.3535c1.2368-.2358,2.4141-.1997,3.5312.1108,1.1172.3096,2.1157.8052,2.9961,1.4873.8799.6807,1.6206,1.5039,2.2227,2.4717.6011.9673,1.0059,1.9888,1.2119,3.0659.2183,1.1411.2183,2.269-.001,3.3853-.2192,1.1157-.6221,2.1431-1.2085,3.0786-.5864.9375-1.3486,1.7417-2.2861,2.4131-.9375.6709-2.0083,1.1211-3.2129,1.3525Zm-6.6274-7.7241c.1426.7393.3911,1.4326.7485,2.0796.3574.6489.7993,1.1963,1.3276,1.645.5269.4482,1.1309.7734,1.8105.9771.6802.2021,1.4141.229,2.2012.0771.8032-.1528,1.4824-.4551,2.0381-.9023.5552-.4478.9932-.9858,1.3145-1.6138.3208-.6274.5249-1.3032.6104-2.0283.0859-.7236.0615-1.4395-.0737-2.147-.1416-.7388-.395-1.4302-.7603-2.0776-.3657-.646-.8125-1.1934-1.3394-1.6411-.5269-.4492-1.1304-.771-1.8086-.9653-.6787-.1948-1.4033-.2183-2.1748-.0708-.8032.1538-1.4863.4565-2.0498.9053-.564.4497-1.0024.9834-1.3174,1.6016-.3145.6182-.5146,1.2896-.6001,2.0132-.0864.7251-.062,1.4409.0732,2.1475Z" style="fill:#d18777;"/><path d="m104.6162,20.2192l-.709,11.1406-3.3794-.2134,1.1055-17.3862,2.6201.1665,8.335,11.9868.7236-11.3867,3.3789.2148-1.1035,17.3613-2.7422-.1733-8.229-11.7104Z" style="fill:#d18777;"/><path d="m131.0083,33.5341l-.8594,2.8408-11.5781-3.5024,5.0439-16.6748,11.3672,3.4395-.8594,2.8408-8.126-2.458-1.2158,4.0161,7.0225,2.1245-.7949,2.6304-7.0234-2.1235-1.3145,4.3438,8.3379,2.5229Z" style="fill:#d18777;"/><path d="m142.2319,22.9316l-.3066,9.4214,7.8848-5.2271,3.1992,1.7705-11.0293,6.8521-2.9463,5.3232-2.9404-1.6274,2.9697-5.3667-.0508-12.9287,3.2197,1.7827Z" style="fill:#d18777;"/><path d="m162.1333,54.645c-.5234.5181-1.0869.8677-1.6895,1.0483-.6025.1826-1.2188.2217-1.8486.1187-.6289-.1016-1.2529-.3252-1.8691-.6704-.6172-.3442-1.1953-.791-1.7363-1.3379l-5.9141-5.9873,12.3945-12.2427,6.5518,6.6328c.4258.4302.7168.9131.876,1.4458.1592.5337.21,1.0684.1553,1.6055-.0557.5376-.2061,1.0605-.4521,1.5674-.2461.5073-.5615.9512-.9453,1.3301-.6055.5986-1.3213,1.0073-2.1494,1.228-.8301.2202-1.6582.167-2.4893-.1626.4912.917.6709,1.8481.5381,2.7964-.1328.9478-.6064,1.8237-1.4219,2.6279Zm-1.9424-2.8735c.2207-.2183.3955-.4653.5254-.7437.1279-.2773.2051-.5537.2305-.8311.0244-.2773-.0059-.5464-.0908-.8081-.085-.2603-.2314-.4946-.4385-.7041l-3.6553-3.7012-3.2646,3.2241,3.5352,3.5796c.2188.2197.4629.3862.7344.4985.2705.1113.5479.165.832.1611.2822-.0039.5635-.0635.8418-.1768.2783-.1147.5283-.2808.75-.4985Zm1.5986-11.7544l-3.124,3.0874,3.1719,3.2119c.4023.4062.8848.6143,1.4453.624.5605.0093,1.0859-.2275,1.5742-.7104.4775-.4712.7266-.9756.7471-1.5132s-.1592-.9985-.5381-1.3833l-3.2764-3.3164Z" style="fill:#d18777;"/><path d="m177.314,54.1972l1.585,2.5381-11.2666,14.8481-1.8457-2.9556,2.8262-3.6743-3.2236-5.1606-4.5283.9473-1.8457-2.9556,18.2988-3.5874Zm-7.0078,8.9751l4.5332-5.665-7.1318,1.5039,2.5986,4.1611Z" style="fill:#d18777;"/><path d="m175.771,68.3696c1.0029-.3535,2.0576-.5215,3.165-.5029,1.1074.0176,2.1699.2383,3.1855.6606,1.0156.4233,1.9385,1.0518,2.7705,1.8867.8311.8345,1.4727,1.8916,1.9229,3.1729.5322,1.5127.6602,2.9365.3848,4.2729-.2754,1.3374-.8496,2.4629-1.7246,3.3779l-2.5527-1.8594c.3867-.3784.6836-.7773.8916-1.1982.208-.4189.3418-.8403.4023-1.2593.0605-.4209.0645-.8389.0137-1.2534-.0508-.417-.1406-.8086-.2715-1.1792-.2822-.8027-.6895-1.4443-1.2236-1.9243-.5332-.48-1.127-.8262-1.7822-1.0371-.6553-.2114-1.3467-.3018-2.0723-.272-.7275.0308-1.4141.1592-2.0615.3872-.7256.2544-1.3828.6167-1.9727,1.0845-.5908.4668-1.0654,1.0034-1.4248,1.6064-.3604.604-.5898,1.2573-.6895,1.9595-.0996.7026-.0244,1.4082.2256,2.1191.1299.3696.3125.7393.5459,1.1084.2334.3677.5146.6987.8428.9912.3281.291.7041.5361,1.1299.7334.4248.1968.8936.3101,1.4062.3364l-.584,3.146c-.71-.0459-1.3857-.2275-2.0273-.5493-.6416-.3193-1.2314-.728-1.7695-1.2231-.5381-.4961-1.0146-1.0605-1.4297-1.6958-.4131-.6343-.7373-1.2837-.9707-1.9468-.4131-1.1724-.5439-2.3315-.3906-3.4771.1514-1.147.501-2.2104,1.0479-3.1929.5479-.9805,1.2578-1.8467,2.1299-2.5952.8721-.7495,1.834-1.3081,2.8828-1.6772Z" style="fill:#d18777;"/><path d="m172.8267,87.7602l17.29-1.9287.375,3.3652-8.2188.916,9.0537,6.3486.4141,3.7061-8.4219-5.7764-8.8457,8.1216-.4219-3.7793,6.8848-6.2246-2.5635-1.9595-5.1699.5752-.376-3.3643Z" style="fill:#d18777;"/></g><g><path d="m42.2783,168.9809c-1.9663-.0469-3.5874-.7373-4.8633-2.0752-.791-.8281-1.3682-1.7637-1.731-2.8076-.3638-1.043-.5127-2.1123-.4468-3.2031.0649-1.0928.3418-2.1709.8296-3.2354.4873-1.0645,1.1865-2.0312,2.0977-2.9023.8638-.8242,1.8262-1.4443,2.8892-1.8594,1.062-.415,2.1431-.6211,3.2422-.6191,1.0991.0029,2.1733.2158,3.2227.6396,1.0483.4229,1.9907,1.0723,2.8267,1.9482,1.1289,1.1816,1.8496,2.4346,2.1602,3.7539.3105,1.3203.2495,2.5957-.1836,3.8232l-3.0942-.54c.3223-.918.375-1.8223.1582-2.7129-.2168-.8896-.6465-1.6719-1.2905-2.3467-.5083-.5322-1.0869-.9131-1.7349-1.1426-.6489-.2285-1.3174-.3135-2.0078-.2549-.6895.0605-1.3706.2471-2.043.5605-.6724.3154-1.2925.7432-1.8613,1.2842-.5908.5664-1.0542,1.1875-1.3872,1.8691-.3345.6807-.5327,1.3672-.5942,2.0605-.063.6934.0137,1.3711.23,2.0352.2158.665.5786,1.2627,1.0864,1.7949,1.1636,1.2188,2.7881,1.7725,4.873,1.6572l.8872-.8467-2.4229-2.5371,1.7925-1.7119,4.3545,4.5615-6.4771,6.1846-1.9316-2.0234,1.4194-1.3545Z" style="fill:#d18777;"/><path d="m55.624,178.0571c.6743.4326,1.3301.6592,1.9683.6807.6382.0195,1.2397-.0986,1.8042-.3584.5649-.2598,1.0894-.6367,1.5737-1.1318.4824-.4971.9199-1.0479,1.3086-1.6543l4.7988-7.4736,2.8286,1.8164-4.7988,7.4736c-.6445,1.0049-1.3706,1.8711-2.1777,2.5967-.8062.7266-1.6792,1.2539-2.6196,1.584-.9399.3301-1.9409.4258-3,.29-1.0605-.1367-2.1538-.5664-3.2827-1.291-1.1704-.752-2.0347-1.5938-2.5923-2.5254-.5586-.9316-.8789-1.8955-.959-2.8887-.0806-.9951.0483-2.0059.3872-3.0322.3379-1.0273.8125-2.0146,1.4219-2.9658l4.7988-7.4746,2.8496,1.8301-4.7988,7.4736c-.3984.6201-.7217,1.2539-.9707,1.8994-.2505.6465-.3755,1.2812-.3755,1.9023-.001.6211.1392,1.2129.4209,1.7715.2822.5605.7544,1.0527,1.4146,1.4775Z" style="fill:#d18777;"/><path d="m76.5752,172.4956l2.811,1.0303.2256,18.6367-3.2715-1.1982-.0264-4.6357-5.7134-2.0947-2.9917,3.5293-3.2715-1.1992,12.2378-14.0684Zm-.0186,11.3867l.0981-7.2549-4.7051,5.5664,4.6069,1.6885Z" style="fill:#d18777;"/><path d="m84.6777,193.2241l2.3838-17.2568,7.6328,1.0547c.793.1084,1.5034.377,2.1304.8018.626.4248,1.1455.9434,1.5566,1.5527.4106.6094.7061,1.2783.8867,2.0039.1802.7275.2231,1.4404.126,2.1357-.1543,1.1182-.5742,2.0967-1.2593,2.9355-.6855.8379-1.5347,1.3945-2.5469,1.667l3.0415,7.0332-3.7676-.5205-2.7256-6.2715-3.3052-.457-.7993,5.7842-3.354-.4629Zm4.5601-8.2617l4.2041.5801c.3081.042.606.0098.8936-.0996.2871-.1084.5454-.2754.7749-.499.229-.2246.4238-.499.584-.8232.1602-.3252.2676-.6816.3213-1.0703.0562-.4053.0425-.7871-.0396-1.1455-.083-.3584-.2168-.6787-.4004-.96-.1846-.2803-.4082-.5098-.6729-.6865-.2642-.1768-.542-.2852-.8345-.3262l-4.0586-.5605-.772,5.5908Z" style="fill:#d18777;"/><path d="m107.4155,177.4487l2.9863-.2148,7.8604,16.8984-3.4746.251-1.9287-4.2158-6.0684.4385-1.2783,4.4473-3.4761.249,5.3794-17.8535Zm4.6611,10.3896l-2.8906-6.6553-2.0039,7.0088,4.8945-.3535Z" style="fill:#d18777;"/><path d="m123.5112,181.3842l3.3301,10.6562-3.2314,1.0107-5.1973-16.6279,2.5068-.7832,12.0752,8.2051-3.4033-10.8896,3.2324-1.0107,5.1885,16.6045-2.623.8213-11.8779-7.9863Z" style="fill:#d18777;"/><path d="m148.3677,166.5024l-4.8174,2.7979,7.2568,12.498-2.9072,1.6875-7.2568-12.498-4.8164,2.7959-1.4912-2.5674,12.541-7.2812,1.4912,2.5674Z" style="fill:#d18777;"/><path d="m166.7534,165.7241l1.957,2.2334-9.0986,7.9717-11.4814-13.1025,8.9326-7.8271,1.957,2.2334-6.3867,5.5947,2.7656,3.1562,5.5176-4.8359,1.8115,2.0684-5.5176,4.834,2.9912,3.4141,6.5518-5.7402Z" style="fill:#d18777;"/><path d="m177.4692,152.5327l2.3457,1.8203-7.416,9.5566-13.7637-10.6797,7.2803-9.3818,2.3457,1.8193-5.2041,6.708,3.3145,2.5713,4.498-5.7949,2.1709,1.6836-4.498,5.7959,3.5869,2.7832,5.3398-6.8818Z" style="fill:#d18777;"/></g><circle cx="103.4974" cy="103.4974" r="65.0612" style="fill:#d18777;"/><circle cx="103.4974" cy="103.4974" r="60.372" style="fill:#fff;"/><g><g><path d="m100.2202,92.1257c0,2.1388-.4118,4.1438-1.2342,6.0151-.823,1.8719-1.954,3.4956-3.3929,4.873-1.4401,1.3785-3.146,2.4679-5.1199,3.2698s-4.1133,1.2031-6.4157,1.2031c-2.5506,0-4.8331-.4734-6.8475-1.419-2.0156-.9456-3.7226-2.303-5.1205-4.0717-1.3985-1.7675-2.4673-3.9373-3.2076-6.5078-.7403-2.5699-1.1105-5.5001-1.1105-8.7909,0-3.8247.4012-7.2276,1.2031-10.2094s1.9429-5.4907,3.4235-7.5262c1.4806-2.0361,3.2897-3.5877,5.4285-4.6577,2.1382-1.0688,4.5439-1.6038,7.2176-1.6038,2.7148,0,5.2331.5549,7.5573,1.6654,2.323,1.1105,4.3691,2.7142,6.1377,4.812l-5.5517,6.292c-1.0283-1.3158-2.2626-2.3441-3.7015-3.0844-1.4401-.7403-2.9823-1.1105-4.6266-1.1105-2.4274,0-4.3491.8641-5.7681,2.5911-1.4184,1.7276-2.1693,4.1749-2.2514,7.3408.8218-1.1099,1.9217-1.9739,3.3003-2.5905,1.3774-.6171,2.9706-.9257,4.7809-.9257,2.1793,0,4.2048.3702,6.0767,1.1105,1.8707.7403,3.485,1.7581,4.8425,3.0539,1.3568,1.2952,2.4262,2.8175,3.2076,4.565.7808,1.7481,1.1726,3.6499,1.1726,5.706Zm-16.1629,7.0329c.904,0,1.7675-.1854,2.5911-.5555.8218-.3702,1.5422-.8729,2.1587-1.5111.6171-.6371,1.1105-1.3879,1.4806-2.252.3702-.8635.5555-1.7675.5555-2.7142,0-.904-.1854-1.7675-.5555-2.5911-.3702-.8218-.8635-1.5316-1.4806-2.1282-.6165-.5954-1.3369-1.0688-2.1587-1.4184-.8236-.349-1.6871-.5244-2.5911-.5244-.9468,0-1.8308.1754-2.6526.5244-.823.3496-1.5422.823-2.1593,1.4184-.6165.5966-1.1005,1.3064-1.4495,2.1282-.3502.8236-.5244,1.6871-.5244,2.5911,0,.9468.1848,1.8508.5549,2.7142.3702.8641.8641,1.6149,1.4806,2.252.6171.6382,1.3363,1.141,2.1593,1.5111.8224.3702,1.6859.5555,2.5911.5555Z" style="fill:#d18777;"/><path d="m122.8586,107.4867c-3.2076,0-6.0151-.6992-8.4202-2.0977-2.4063-1.3973-4.4219-3.1771-6.0456-5.3358-1.6249-2.1593-2.8486-4.5439-3.671-7.1561-.8224-2.6116-1.2331-5.151-1.2331-7.6189,0-2.6315.4517-5.2742,1.3562-7.9269s2.1904-5.0372,3.8564-7.1561c1.6648-2.1177,3.6909-3.8347,6.0761-5.151,2.3852-1.3158,5.0789-1.9739,8.0811-1.9739,3.2076,0,6.0245.7092,8.4519,2.1282,2.4262,1.419,4.4512,3.2181,6.0761,5.398,1.6237,2.1798,2.8474,4.5756,3.671,7.1866.8213,2.6122,1.2331,5.1105,1.2331,7.4951,0,2.6738-.4529,5.3264-1.3574,7.9579-.9046,2.6327-2.1892,5.0073-3.8552,7.125-1.666,2.1188-3.7015,3.8358-6.1066,5.151-2.4063,1.3169-5.1105,1.9745-8.1128,1.9745Zm-9.13-22.2085c0,1.5633.1854,3.126.5549,4.6888.3707,1.5633.9257,2.9712,1.666,4.2253.7403,1.2553,1.6859,2.2825,2.838,3.0844,1.1509.8019,2.5083,1.2031,4.0711,1.2031,1.6449,0,3.0539-.4317,4.2259-1.2952,1.172-.8641,2.1282-1.9434,2.8685-3.2393.7403-1.2952,1.2741-2.7142,1.6038-4.2564.3285-1.5422.4939-3.0122.4939-4.4107,0-1.5211-.1854-3.0738-.5549-4.6577-.3707-1.5827-.9362-3.0011-1.6965-4.2564-.7626-1.2542-1.7188-2.2825-2.8685-3.0844-1.1521-.8019-2.5095-1.2031-4.0722-1.2031-1.6449,0-3.0433.4323-4.1943,1.2958-1.1521.8635-2.0977,1.9429-2.838,3.2387-.7403,1.2952-1.2753,2.7142-1.6038,4.2564-.3297,1.5422-.4939,3.0134-.4939,4.4107Z" style="fill:#d18777;"/></g><g><path d="m69.1097,144.2947v-27.9502h10.4323c2.3089,0,4.3304.3678,6.0626,1.1022,1.7317.735,3.1818,1.7323,4.3497,2.9917,1.1674,1.26,2.0473,2.7365,2.6374,4.4289.5907,1.693.8858,3.4974.8858,5.4132,0,2.1253-.3285,4.0482-.9837,5.767-.6564,1.7194-1.5944,3.1888-2.8151,4.409-1.2201,1.2201-2.6902,2.1652-4.409,2.8345-1.7194.6693-3.6282,1.0037-5.7277,1.0037h-10.4323Zm17.7936-14.0141c0-1.2336-.1643-2.3552-.4922-3.366-.3285-1.0101-.8066-1.883-1.4366-2.618-.63-.7344-1.4043-1.2988-2.3224-1.693-.9192-.3936-1.9558-.5901-3.1102-.5901h-3.976v16.6122h3.976c1.1808,0,2.2303-.2094,3.1495-.6294.918-.4194,1.6859-1.0043,2.3024-1.7522s1.0887-1.6267,1.4172-2.6374c.3279-1.0101.4922-2.1188.4922-3.3261Z" style="fill:#d18777;"/><path d="m102.9259,116.3445h5.8262l10.1953,27.9502h-6.6134l-2.1646-6.2591h-8.7006l-2.1259,6.2591h-6.6134l10.1964-27.9502Zm6.1805,17.2428l-3.2674-9.8814-3.346,9.8814h6.6134Z" style="fill:#d18777;"/><path d="m121.7819,116.3445l6.0221,12.8333,6.1019-12.8333h7.0464l-9.9595,18.4236v9.5265h-6.4163v-9.6051l-9.8022-18.345h7.0076Z" style="fill:#d18777;"/></g></g></g><circle cx="25.5716" cy="126.5006" r="6.2053" style="fill:#d18777;"/><circle cx="182.9568" cy="126.5006" r="6.2053" style="fill:#d18777;"/></svg>