<?xml version="1.0" encoding="utf-8"?>
<!-- Generator: Adobe Illustrator 26.4.1, SVG Export Plug-In . SVG Version: 6.00 Build 0)  -->
<svg version="1.1" id="Layer_1" xmlns="http://www.w3.org/2000/svg" xmlns:xlink="http://www.w3.org/1999/xlink" x="0px" y="0px"
	 viewBox="0 0 36 36" style="enable-background:new 0 0 36 36;" xml:space="preserve">
<path d="M3,31.2c2-1.9,4.3-3.4,6.8-4.5c2.5-1.1,5.3-1.7,8.2-1.7s5.7,0.6,8.2,1.7c2.5,1.1,4.8,2.7,6.8,4.5V3H3V31.2z M18.1,21
	c1.9,0,3.6-0.7,4.9-2c1.3-1.3,2-3,2-4.9s-0.7-3.6-2-4.9s-3-2-4.9-2s-3.6,0.7-4.9,2s-2,3-2,4.9s0.7,3.6,2,4.9
	C14.5,20.3,16.2,21,18.1,21z M3,36c-0.8,0-1.5-0.3-2.1-0.9C0.3,34.5,0,33.8,0,33V3c0-0.8,0.3-1.5,0.9-2.1S2.2,0,3,0h30
	c0.8,0,1.5,0.3,2.1,0.9C35.7,1.5,36,2.2,36,3v30c0,0.8-0.3,1.5-0.9,2.1C34.5,35.7,33.8,36,33,36H3z M5.8,33h24.5v-0.5
	c-1.8-1.5-3.7-2.7-5.8-3.5s-4.2-1.2-6.5-1.2s-4.4,0.4-6.5,1.2s-4,1.9-5.8,3.5L5.8,33z M18.1,18c-1.1,0-2-0.4-2.8-1.1
	s-1.1-1.7-1.1-2.8c0-1.1,0.4-2,1.1-2.8s1.7-1.1,2.8-1.1c1.1,0,2,0.4,2.8,1.1S22,13,22,14c0,1.1-0.4,2-1.1,2.8S19.2,17.9,18.1,18z"/>
</svg>
