<?xml version="1.0" encoding="UTF-8"?><svg id="Layer_1" xmlns="http://www.w3.org/2000/svg" viewBox="0 0 136.4 25.2"><g id="Polygon_1" style="isolation:isolate;"><g id="Polygon_1-2"><polygon points="26.5 9.6 16.5 9.4 13.2 0 9.9 9.4 0 9.6 7.9 15.7 5 25.2 13.2 19.6 21.4 25.2 18.6 15.7 26.5 9.6" style="fill:#ffd6e0;"/></g></g><g id="Polygon_1_copy" style="isolation:isolate;"><g id="Polygon_1_copy-2"><polygon points="53.9 9.6 44 9.4 40.7 0 37.4 9.4 27.5 9.6 35.3 15.7 32.5 25.2 40.7 19.6 48.9 25.2 46 15.7 53.9 9.6" style="fill:#ffd6e0;"/></g></g><g id="Polygon_1_copy_2" style="isolation:isolate;"><g id="Polygon_1_copy_2-2"><polygon points="81.4 9.6 71.5 9.4 68.2 0 64.9 9.4 54.9 9.6 62.8 15.7 60 25.2 68.2 19.6 76.4 25.2 73.5 15.7 81.4 9.6" style="fill:#ffd6e0;"/></g></g><g id="Polygon_1_copy_3" style="isolation:isolate;"><g id="Polygon_1_copy_3-2"><polygon points="108.9 9.6 99 9.4 95.7 0 92.4 9.4 82.4 9.6 90.3 15.7 87.5 25.2 95.7 19.6 103.9 25.2 101 15.7 108.9 9.6" style="fill:#ffd6e0;"/></g></g><g id="Polygon_1_copy_4" style="isolation:isolate;"><g id="Polygon_1_copy_4-2"><polygon points="136.4 9.6 126.5 9.4 123.2 0 119.8 9.4 109.9 9.6 117.8 15.7 115 25.2 123.2 19.6 131.3 25.2 128.5 15.7 136.4 9.6" style="fill:#ffd6e0;"/></g></g></svg>