<svg id="d55d3ea4-fd6a-40a5-87bb-9e8c5a98e11b" data-name="Layer 1" xmlns="http://www.w3.org/2000/svg" xmlns:xlink="http://www.w3.org/1999/xlink" viewBox="0 0 421 97"><defs><clipPath id="e1fb0c87-242a-48da-8151-3a6e3ea731be"><path d="M6,19.06v34h6.62V39H26.14V33.64H12.62V24.87H28.87v-5.8Zm28.64,0v34h24v-5.8H41.26V19.06Zm44,7.14L83.39,40H73.76ZM76,19.06l-13.43,34h7l3.12-8.49H84.59l3.12,8.49h7l-13.37-34Zm60.85,0-9.64,26.47-4.32-10.88,5.8-15.49h-6.14l-3.83,11.27-3.83-11.27h-6.09l5.71,15.49-4.22,10.88-9.68-26.47H93.41l13.81,34h5.56l5.9-14.29,5.89,14.29h5.57l13.86-34Zm12.45,0v34h24v-5.8H155.87V19.06Zm29.51,0v34H202.4v-5.8h-17V38.44h14.34V33.06H185.38v-8.2H202v-5.8Zm29.91,10.45c0,5.23,3.16,7.43,9.64,9.21,5.32,1.44,8.82,2.3,8.82,5.32,0,2.25-1.87,3.5-5.47,3.5a19.79,19.79,0,0,1-11.46-4.17l-2.92,5.71a25.44,25.44,0,0,0,14.29,4.41c6.71,0,12.61-2.78,12.61-10.12,0-6.23-4.22-8.35-10.93-10.07-5.13-1.34-7.77-2.06-7.77-4.84,0-2.44,1.82-3.84,5.42-3.84A15.55,15.55,0,0,1,230.06,28L233,22.61a21.51,21.51,0,0,0-11.89-3.79c-6.91,0-12.42,3.74-12.42,10.69m31.32,0c0,5.23,3.17,7.43,9.64,9.21,5.32,1.44,8.82,2.3,8.82,5.32,0,2.25-1.87,3.5-5.47,3.5a19.79,19.79,0,0,1-11.46-4.17l-2.93,5.71a25.45,25.45,0,0,0,14.29,4.41c6.71,0,12.61-2.78,12.61-10.12,0-6.23-4.22-8.35-10.93-10.07-5.13-1.34-7.77-2.06-7.77-4.84,0-2.44,1.82-3.84,5.42-3.84A15.55,15.55,0,0,1,261.39,28l2.92-5.37a21.51,21.51,0,0,0-11.89-3.79c-6.9,0-12.42,3.74-12.42,10.69" fill="none"/></clipPath><linearGradient id="73c93795-82fc-47c9-80c4-777430cb6bde" x1="6" y1="90.5" x2="7" y2="90.5" gradientTransform="matrix(259.51, 0, 0, -259.51, -1551.06, 23522.77)" gradientUnits="userSpaceOnUse"><stop offset="0" stop-color="#ab7769"/><stop offset="0.17" stop-color="#c79690"/><stop offset="0.25" stop-color="#d3a29b"/><stop offset="0.34" stop-color="#dba9a2"/><stop offset="0.38" stop-color="#daa199"/><stop offset="0.45" stop-color="#d9968e"/><stop offset="0.52" stop-color="#d9938a"/><stop offset="0.59" stop-color="#e1a89d"/><stop offset="0.66" stop-color="#e6b8ab"/><stop offset="0.71" stop-color="#e8bdb0"/><stop offset="0.73" stop-color="#e5b1a5"/><stop offset="0.78" stop-color="#df9d92"/><stop offset="0.82" stop-color="#dc9086"/><stop offset="0.87" stop-color="#db8c82"/><stop offset="0.89" stop-color="#ce857b"/><stop offset="0.96" stop-color="#a97269"/><stop offset="1" stop-color="#9b6b62"/></linearGradient><clipPath id="f634a2bf-4082-40d1-8d54-9ae744e961f1"><path d="M268,23.21h.51a.32.32,0,0,1,.32.36c0,.22-.12.35-.31.35H268Zm-.54-.47v2.48H268v-.83h.36l.52.83h.6l-.58-.94a.77.77,0,0,0,.45-.71.83.83,0,0,0-.79-.83ZM266.54,24a1.81,1.81,0,1,1,1.8,1.76,1.73,1.73,0,0,1-1.8-1.76m-.32,0a2.13,2.13,0,1,0,2.12-2,2,2,0,0,0-2.12,2" fill="none"/></clipPath><linearGradient id="64a825d2-c341-487b-8352-3aec8b56bd17" y1="90.74" x2="7" y2="90.74" gradientTransform="matrix(4.25, 0, 0, -4.25, 240.7, 410)" xlink:href="#73c93795-82fc-47c9-80c4-777430cb6bde"/><clipPath id="b194ec48-0e60-495c-9b1d-63822aacddcc"><rect x="6" y="4.02" width="410.88" height="85.48" fill="none"/></clipPath></defs><title>test</title><g clip-path="url(#e1fb0c87-242a-48da-8151-3a6e3ea731be)"><rect x="6" y="18.83" width="259.51" height="34.66" fill="url(#73c93795-82fc-47c9-80c4-777430cb6bde)"/></g><g clip-path="url(#f634a2bf-4082-40d1-8d54-9ae744e961f1)"><rect x="266.22" y="21.96" width="4.26" height="4.06" fill="url(#64a825d2-c341-487b-8352-3aec8b56bd17)"/></g><g clip-path="url(#b194ec48-0e60-495c-9b1d-63822aacddcc)"><path d="M149.25,89.5V63.32H159c8.63,0,13.05,5.83,13.05,13.06,0,7.93-5.16,13.13-13.05,13.13ZM159,68.63H155.3V84.19H159c4.42,0,6.9-3.32,6.9-7.82s-2.54-7.74-6.9-7.74"/><polygon points="195.64 84.19 195.64 89.5 177.24 89.5 177.24 63.32 195.31 63.32 195.31 68.63 183.29 68.63 183.29 73.72 193.61 73.72 193.61 78.62 183.29 78.62 183.29 84.19 195.64 84.19"/><path d="M201.2,89.5V63.32H213c4.94,0,8.56,4.5,8.56,8.85a8.63,8.63,0,0,1-4.28,7.6l6,9.74h-6.82l-5.27-8.44h-3.95V89.5Zm6-13.72h5.53c1.44,0,2.62-1.51,2.62-3.61s-1.44-3.54-2.8-3.54h-5.35Z"/><polygon points="248.16 89.5 248.16 73.83 242.48 85.22 239.24 85.22 233.56 73.83 233.56 89.5 227.51 89.5 227.51 63.32 234.07 63.32 240.86 77 247.68 63.32 254.21 63.32 254.21 89.5 248.16 89.5"/><path d="M258,89.5l10.07-26.18H273L283,89.5h-6.42l-2-5.86H266.4l-2,5.86Zm12.5-19.77-3.14,9.74h6.16Z"/><path d="M287.11,89.48V63.3h11.17c5,0,8.56,4.5,8.56,8.85,0,4.57-3.36,8.89-8.37,8.89h-5.31v8.45Zm6-13.72h4.94c1.4,0,2.62-1.25,2.62-3.61s-1.44-3.54-2.84-3.54h-4.72Z"/><polygon points="311.12 89.48 311.12 63.3 317.17 63.3 317.17 84.17 329.86 84.17 329.86 89.48 311.12 89.48"/><path d="M332.66,89.48,342.73,63.3h4.91l10,26.18h-6.42l-2-5.86h-8.15l-2,5.86Zm12.5-19.77L342,79.45h6.16Z"/><polygon points="367.43 74.51 367.43 89.48 361.38 89.48 361.38 63.3 366.11 63.3 378.31 78.68 378.31 63.3 384.36 63.3 384.36 89.48 379.49 89.48 367.43 74.51"/><polygon points="408.24 84.17 408.24 89.48 389.83 89.48 389.83 63.3 407.9 63.3 407.9 68.61 395.88 68.61 395.88 73.7 406.21 73.7 406.21 78.61 395.88 78.61 395.88 84.17 408.24 84.17"/><path d="M98.68,5.39V4.57a.44.44,0,0,0-.44-.44H88.67a.44.44,0,0,0-.43.44v.83a.44.44,0,0,0,.43.44h3.9v6.84a.44.44,0,0,0,.44.43h.91a.44.44,0,0,0,.44-.43V5.83h3.9a.44.44,0,0,0,.44-.44"/><path d="M121.49,4.13h-.91a.44.44,0,0,0-.43.44V8.84c0,1.93-.53,2.61-3.54,2.61s-3.53-.68-3.53-2.61V4.57a.44.44,0,0,0-.44-.44h-.92a.44.44,0,0,0-.43.44V8.84c0,3.1,1.54,4.37,5.33,4.37a6.65,6.65,0,0,0,4-.92,2.59,2.59,0,0,0,.4-.36,4.35,4.35,0,0,0,.93-3.08V4.57a.44.44,0,0,0-.44-.44"/><path d="M133.46,4.13H127.1c-2.89,0-4.25,1.43-4.25,4.49s1.39,4.48,4.25,4.48h6.35a.44.44,0,0,0,.3-.12l0,0a.43.43,0,0,0,.12-.29v-.9a.44.44,0,0,0-.44-.43H127.1c-1.82,0-2.44-.68-2.44-2.71a3.2,3.2,0,0,1,.51-2.07l.09-.09a1.43,1.43,0,0,1,.27-.22h0a3,3,0,0,1,1.57-.32h6.35a.43.43,0,0,0,.29-.11l0,0a.43.43,0,0,0,.12-.3v-.9a.44.44,0,0,0-.44-.44"/><path d="M145.33,4.57a.44.44,0,0,0-.44-.44H144a.44.44,0,0,0-.44.44v3.2h-7V4.57a.44.44,0,0,0-.43-.44h-.91a.44.44,0,0,0-.44.44v8.1a.44.44,0,0,0,.44.43h.91a.42.42,0,0,0,.29-.12l0,0a.43.43,0,0,0,.12-.3V9.46h7v3.21a.43.43,0,0,0,.44.43h.92a.42.42,0,0,0,.3-.12l0,0a.45.45,0,0,0,.12-.3Z"/><path d="M109.71,11.29a4.91,4.91,0,0,0,.65-2.67c0-4-2.88-4.59-6-4.59s-6,.56-6,4.59,2.89,4.59,6,4.59a8.23,8.23,0,0,0,4.27-.85l.21-.14.11-.08c.11-.09.21-.19.32-.28h0a2.64,2.64,0,0,0,.26-.31l.07-.08.09-.15M100.55,6.9a2.1,2.1,0,0,1,.72-.67,6.92,6.92,0,0,1,3.1-.47c2.89,0,4.18.41,4.18,2.84s-1.29,2.85-4.18,2.85-4.2-.41-4.2-2.85a3.24,3.24,0,0,1,.38-1.71"/><path d="M16,4.16H6.56a.54.54,0,0,0-.37.18.6.6,0,0,0-.15.4V12.6a.52.52,0,0,0,.52.52h.89A.52.52,0,0,0,8,12.6V10h7.71a.52.52,0,0,0,.52-.53V8.7a.52.52,0,0,0-.52-.52H8V6.08h8a.53.53,0,0,0,.53-.53V4.68A.52.52,0,0,0,16,4.16"/><path d="M18.55,4.16h-.9a.52.52,0,0,0-.52.52V12.6a.52.52,0,0,0,.52.52h.9a.52.52,0,0,0,.53-.52V4.68a.52.52,0,0,0-.53-.52"/><path d="M31,4.16h-.89a.52.52,0,0,0-.52.52v6.46c-.63-.1-1-.6-2.76-2.94l-.09-.12c-2.26-3-2.94-3.92-5.12-3.92h-.76a.52.52,0,0,0-.52.52V12.6a.52.52,0,0,0,.52.52h.89a.52.52,0,0,0,.52-.52V6.13c.55.09.94.56,2.66,2.8l.25.32c2.27,3,3,3.86,5.07,3.86H31a.52.52,0,0,0,.52-.52V4.68A.52.52,0,0,0,31,4.16"/><path d="M34.13,4.16h-.9a.52.52,0,0,0-.52.52V12.6a.52.52,0,0,0,.52.52h.9a.52.52,0,0,0,.52-.52V4.68a.53.53,0,0,0-.52-.52"/><path d="M42.82,7.77,39,7.45c-1.52-.13-1.52-.5-1.52-.76s0-.67,1.13-.67h6.51a.52.52,0,0,0,.52-.53V4.68a.52.52,0,0,0-.52-.52H38.68c-2,0-3.16,1-3.16,2.55s1.07,2.44,3.16,2.61l3.93.32c1.63.14,1.63.59,1.63.86s0,.78-1.41.78H35.88a.52.52,0,0,0-.52.52v.81a.52.52,0,0,0,.52.52h6.9c3.08,0,3.41-1.86,3.41-2.66,0-2.4-2.54-2.61-3.37-2.68"/><path d="M56.85,4.16h-.9a.52.52,0,0,0-.53.52v3H48.76v-3a.52.52,0,0,0-.52-.52h-.89a.52.52,0,0,0-.52.52V12.6a.52.52,0,0,0,.52.52h.89a.52.52,0,0,0,.52-.52v-3h6.66v3a.52.52,0,0,0,.53.52h.9a.52.52,0,0,0,.52-.52V4.68a.52.52,0,0,0-.52-.52"/><path d="M60,4.16h-.9a.52.52,0,0,0-.52.52V12.6a.52.52,0,0,0,.52.52H60a.52.52,0,0,0,.52-.52V4.68A.52.52,0,0,0,60,4.16"/><path d="M72.43,4.16h-.9a.52.52,0,0,0-.52.52v6.46c-.63-.1-1-.6-2.77-2.94l-.1-.14c-2.25-3-2.93-3.91-5.11-3.91h-.76a.52.52,0,0,0-.52.52V12.6a.52.52,0,0,0,.52.52h.89a.52.52,0,0,0,.52-.52V6.13c.55.09.94.56,2.65,2.79l.26.33c2.27,3,3,3.86,5.06,3.86h.77A.52.52,0,0,0,73,12.6V4.68a.52.52,0,0,0-.52-.52"/><path d="M84.77,8.48a.53.53,0,0,0-.51-.38h-7a.52.52,0,0,0-.52.52v.84a.52.52,0,0,0,.52.52h5.6V11.2H78c-1.71,0-2.29-.65-2.29-2.57S76.32,6.08,78,6.08H84.2a.53.53,0,0,0,.52-.53V4.68a.52.52,0,0,0-.52-.53H78c-2.86,0-4.25,1.46-4.25,4.47s1.39,4.49,4.25,4.49h6.25a.52.52,0,0,0,.52-.52V8.65a.55.55,0,0,0,0-.17"/><path d="M147.42,6a2,2,0,0,1,2.05-2,2,2,0,1,1-2.05,2m3.78,0a1.66,1.66,0,0,0-1.73-1.66A1.66,1.66,0,1,0,151.2,6m-2.62-1.2h1.06a.8.8,0,0,1,.77.8.78.78,0,0,1-.39.68l.54.87h-.68l-.47-.76h-.23v.76h-.61Zm1,1.07c.13,0,.23-.08.23-.27a.24.24,0,0,0-.24-.27h-.39v.54Z"/><text transform="translate(409.27 65.85)" font-size="5.08" font-family="Gotham-Medium, Gotham">TM</text></g></svg>