<svg id="cf0357bf-ab32-48b9-a0b7-afe7cfbd32fa" data-name="ART" xmlns="http://www.w3.org/2000/svg" xmlns:xlink="http://www.w3.org/1999/xlink" viewBox="0 0 457.33 174"><defs><linearGradient id="644d0fca-7d6b-410d-a286-65a8e682484c" x1="174.22" y1="308.97" x2="174.22" y2="-126.76" gradientTransform="translate(317.21 -140.1) rotate(90)" gradientUnits="userSpaceOnUse"><stop offset="0" stop-color="#ac7668"/><stop offset="0.17" stop-color="#c99892"/><stop offset="0.24" stop-color="#d2a19a"/><stop offset="0.34" stop-color="#dcaaa3"/><stop offset="0.38" stop-color="#dba199"/><stop offset="0.45" stop-color="#d9978e"/><stop offset="0.52" stop-color="#d9948b"/><stop offset="0.58" stop-color="#e0a89c"/><stop offset="0.66" stop-color="#e6b8ab"/><stop offset="0.71" stop-color="#e8beb0"/><stop offset="0.73" stop-color="#e5b1a4"/><stop offset="0.78" stop-color="#df9c92"/><stop offset="0.82" stop-color="#dc9087"/><stop offset="0.87" stop-color="#db8c83"/><stop offset="0.89" stop-color="#ce857c"/><stop offset="0.96" stop-color="#aa7169"/><stop offset="1" stop-color="#9c6961"/></linearGradient><linearGradient id="47cc98d4-2b0f-41a3-ba6f-daf97aa5e6ae" x1="260.37" y1="308.97" x2="260.37" y2="-126.76" xlink:href="#644d0fca-7d6b-410d-a286-65a8e682484c"/><linearGradient id="ee08ddf9-c35a-4579-bf32-0426f608c99f" x1="193.94" y1="308.97" x2="193.94" y2="-126.76" xlink:href="#644d0fca-7d6b-410d-a286-65a8e682484c"/><linearGradient id="39b1bf03-5870-41ed-a16e-4cdb1181ebfb" x1="215.78" y1="308.97" x2="215.78" y2="-126.76" xlink:href="#644d0fca-7d6b-410d-a286-65a8e682484c"/><linearGradient id="fe0cf975-390a-4082-97b3-0b60d2bd229b" x1="194.06" y1="308.97" x2="194.06" y2="-126.76" xlink:href="#644d0fca-7d6b-410d-a286-65a8e682484c"/><linearGradient id="7590da23-bf04-4c5e-b77e-55d9675de355" x1="256.63" y1="308.97" x2="256.63" y2="-126.76" xlink:href="#644d0fca-7d6b-410d-a286-65a8e682484c"/><linearGradient id="7beb0c9c-ce19-46f3-9069-01bc2d2f4298" x1="241.53" y1="308.97" x2="241.53" y2="-126.76" xlink:href="#644d0fca-7d6b-410d-a286-65a8e682484c"/></defs><title>legs-logo</title><path d="M437.66,34.58a1.25,1.25,0,0,0,.74-1.17,1.34,1.34,0,0,0-1.28-1.34h-1.78v4h.87V34.75h.58l.85,1.36h1ZM437,34h-.84V32.84H437a.52.52,0,0,1,.52.58C437.54,33.79,437.35,34,437,34Zm.62.59a1.25,1.25,0,0,0,.74-1.17,1.34,1.34,0,0,0-1.28-1.34h-1.78v4h.87V34.75h.58l.85,1.36h1ZM437,34h-.84V32.84H437a.52.52,0,0,1,.52.58C437.54,33.79,437.35,34,437,34Zm-.24-3.2a3.32,3.32,0,1,0,0,6.63,3.32,3.32,0,1,0,0-6.63Zm0,6.18a2.86,2.86,0,1,1,3-2.86A2.84,2.84,0,0,1,436.81,37Zm1.59-3.56a1.34,1.34,0,0,0-1.28-1.34h-1.78v4h.87V34.75h.58l.85,1.36h1l-1-1.53A1.25,1.25,0,0,0,438.4,33.42ZM437,34h-.84V32.84H437a.52.52,0,0,1,.52.58C437.54,33.79,437.35,34,437,34Z" fill="url(#644d0fca-7d6b-410d-a286-65a8e682484c)"/><path d="M364.38,118.62a.76.76,0,0,0-.88.07,2.17,2.17,0,0,0-.23.21l-.21.27,0,0c-.46.63-1,1.24-1.52,1.86a40.24,40.24,0,0,1-15.74,10.43c-6.53,2.35-14.27,2.26-11.76-5.35,2.22-6.61,10.86-14.14,16.79-16.58,1.41-.64,5-2,5.13.54.21,2-2.81,4.72-4.52,5.89-3.72,2.72-9.35,5.62-12.57,5.89-1.51.09-.8,1.36.71,1.26,4.52-.36,14.07-3.8,17.69-8.61,1.91-2.54,2.51-7.16-1.61-8.42-7.55-2.27-23.12,9.6-26.14,15.76C324,133.3,336.83,137,347.09,133.3a37.26,37.26,0,0,0,12.41-7.76,34.05,34.05,0,0,0,5-5.83C364.88,119.26,364.88,118.81,364.38,118.62Z" fill="url(#47cc98d4-2b0f-41a3-ba6f-daf97aa5e6ae)"/><polygon points="66.46 26.07 55.66 26.07 55.66 81.59 94.77 81.59 94.77 72.14 66.46 72.14 66.46 26.07" fill="url(#ee08ddf9-c35a-4579-bf32-0426f608c99f)"/><polygon points="8.96 81.59 19.75 81.59 19.75 58.61 41.79 58.61 41.79 49.84 19.75 49.84 19.75 35.53 46.25 35.53 46.25 26.07 8.96 26.07 8.96 81.59" fill="url(#ee08ddf9-c35a-4579-bf32-0426f608c99f)"/><path d="M293.63,79.89a48.54,48.54,0,0,1,11.42-3.73c2.51-.54,4.23-.31,5.1.71a2.16,2.16,0,0,1,.37,2.22c-.49,1.26-2,2-4.66,2.35-.35,0-.68.1-1,.16h16.61c.18-.32.36-.65.55-1a55.84,55.84,0,0,1,5.84-8.18l.29-.32H301.51V57.67h23.38V48.9H301.51V35.53h27.06V26.07H290.72V81.51A32.26,32.26,0,0,1,293.63,79.89Z" fill="url(#ee08ddf9-c35a-4579-bf32-0426f608c99f)"/><path d="M349.19,72.5a1.65,1.65,0,0,0-.26-.9,1.62,1.62,0,0,0-1.32-.48h0c-1,0-3.92.54-8.67,5a39.82,39.82,0,0,0,9,4.09l0-.06A23.31,23.31,0,0,0,349.19,72.5Z" fill="url(#39b1bf03-5870-41ed-a16e-4cdb1181ebfb)"/><path d="M414.37,49.3C406,47.11,401.7,45.93,401.7,41.4c0-4,3-6.25,8.84-6.25,6.65,0,13.53,3.9,14.94,5.47l4.76-8.76a35,35,0,0,0-19.39-6.18c-11.26,0-20.26,6.1-20.26,17.44,0,8.53,5.17,12.13,15.72,15,8.69,2.34,14.39,3.74,14.39,8.68,0,3.68-3,5.71-8.91,5.71-8.45,0-16.82-4.93-18.69-6.8L388.32,75a41.56,41.56,0,0,0,23.31,7.2c10.94,0,20.57-4.54,20.57-16.5C432.2,55.55,425.32,52.11,414.37,49.3Z" fill="url(#fe0cf975-390a-4082-97b3-0b60d2bd229b)"/><path d="M123.06,26.07,101.16,81.6h11.42l5.08-13.84h19.48l5.08,13.84h11.42L131.81,26.07Zm-3.6,34.09,8-22.45,7.73,22.45Z" fill="url(#ee08ddf9-c35a-4579-bf32-0426f608c99f)"/><path d="M363.28,49.3c-8.37-2.19-12.67-3.36-12.67-7.89,0-4,3-6.25,8.84-6.25,6.65,0,13.53,3.9,14.94,5.47l4.76-8.76a35.09,35.09,0,0,0-19.39-6.18c-11.26,0-20.25,6.1-20.25,17.44,0,8.53,5.16,12.13,15.71,15,8.69,2.34,14.39,3.74,14.39,8.68,0,3.68-3,5.71-8.92,5.71a24,24,0,0,1-3.52-.28,27.13,27.13,0,0,1-1.74,9.64,39.79,39.79,0,0,0,5.11.34c10.94,0,20.57-4.54,20.57-16.5C381.11,55.55,374.22,52.11,363.28,49.3Z" fill="url(#fe0cf975-390a-4082-97b3-0b60d2bd229b)"/><polygon points="281.69 72.14 253.38 72.14 253.38 26.07 242.59 26.07 242.59 81.59 281.69 81.59 281.69 72.14" fill="url(#ee08ddf9-c35a-4579-bf32-0426f608c99f)"/><polygon points="206.57 69.23 199.54 51.49 209.01 26.23 198.99 26.23 192.73 44.61 186.48 26.23 176.55 26.23 185.85 51.49 178.97 69.23 163.18 26.07 151.52 26.07 174.04 81.59 183.12 81.59 192.73 58.3 202.35 81.59 211.43 81.59 234.02 26.07 222.29 26.07 206.57 69.23" fill="url(#ee08ddf9-c35a-4579-bf32-0426f608c99f)"/><path d="M313.28,112.08c17.12-2.6,34.73-15.91,40.25-30.49a25.31,25.31,0,0,0,1.75-9.68c0-.47,0-.94-.08-1.41-.55-5.81-13.28-11.24-25.93,3.21a53.55,53.55,0,0,0-5.64,7.89A80.94,80.94,0,0,0,319,90.79s-7.34,16.95-8.55,19.39c-28.33,3-26.6-21.11-11.74-28.58a20.24,20.24,0,0,1,6.92-2c4.42-.54,4-2.45-.21-1.54a46.46,46.46,0,0,0-11,3.58c-20.81,10.14-10.71,31.56,14.6,30.85a161,161,0,0,1-10.56,17.49c-7.34-1.18-18.11-.9-25.24,1-27,7.34-12.76,27.82,8.24,18.66,6.54-2.8,12.57-8.16,17.8-14.76,12.76,2.26,26.64,4.89,36.4,12.68,6.83,5.34,6.53,14.5,4.92,17.66-.8,1.54-3,4.8,1.3,2.72a5.73,5.73,0,0,0,2.52-2.44c2.51-3.8.4-14.5-9.16-21.2-9.34-6.53-23.12-11.33-33-13.5l2.12-3.09C308.05,121.87,310.36,117.43,313.28,112.08Zm10.25-18.21c5.07-8.94,9.74-15,13.75-18.81,4.33-4.17,7.87-5.8,10.28-5.83a3.35,3.35,0,0,1,2.88,1.24,3.46,3.46,0,0,1,.64,2,25.19,25.19,0,0,1-1.39,8.27c-4.6,13.68-19.91,25.85-35,28.88C318.8,101.94,323.53,93.87,323.53,93.87ZM279.9,147.06c-18.4,8-29.76-6.79-5.43-12.41a52.55,52.55,0,0,1,20.92-.36C290.55,140.45,285.33,144.7,279.9,147.06ZM430.53,99.14c-7.23,0-20.41,5.89-21.42,13a32.66,32.66,0,0,1-4.19,6.92c-.38.52-.79,1-1.24,1.6-.71,1,.5,1.8,1.4.81.93-1.21,1.8-2.36,2.59-3.44s1.4-2,1.94-2.81a8,8,0,0,0,3.41,3.26c1.91,1.18,7.55,3.08,7.55,5.62,0,5.25-7.44,10.42-12.47,11.77-3.73.91-4.63-.9-3.12-2.72a7.3,7.3,0,0,1,2.72-2c.7-.27.5-1.09-.21-.91a17.1,17.1,0,0,0-4.82,2.63c-1.11,1.19-2,2.73-1.3,3.63,1.1,1.9,5.32,1.36,7.23,1,4.93-1,10.66-3.18,14.08-6.62,7.44-7.52-1.11-9.69-7.94-13.32-2.81-1.54-3.22-3.35-1.11-6a21.35,21.35,0,0,1,8.65-6.52c2.41-1.09,7.84-3.09,11-2.9,2.81.27,1.51,3.44-.1,4.89-1.31,1.18,0,1.73.5,1.36a7.45,7.45,0,0,0,3.12-3.09C439.08,101,435.05,99.14,430.53,99.14Zm-25,19.3-.57.58c-6.19,6.32-14.6,12.51-17.13,13.73,3.72-7.16,7.44-13.86,9.95-18.84.5-1-5.83-3.45-6.73-1.36a111.53,111.53,0,0,1-16.59,14.77c-4,2.8-8.75,5.16-9.85,3.72-3.23-4,5-12.6,8-15,5.13-4.17,12.16-7.79,17.39-7.79,1.91,0,3.92.19,4.93,1.73.5.19.8.19.8-.45a3.34,3.34,0,0,0-1.81-2.45c-2.61-1.63-7.14-1.45-10-.73-4.56,1-14.69,6.34-20.39,12.3l-.43.48,0,0a23.1,23.1,0,0,0-1.52,1.86,10.61,10.61,0,0,0-2,4.48,5.47,5.47,0,0,0,1.36,4.59,9.29,9.29,0,0,0,6.43,3.08c5,0,10.86-5.34,14.59-9.06,1.5-1.45,5.32-5.53,8-8.52a188.1,188.1,0,0,1-10.06,21.11c-6.53,3.89-17,10.15-22,15.4-5.32,5.62-8.34,11.06-2,13.87a10.56,10.56,0,0,0,2,.63c6.84,1.09,12.77-5,16.49-10,3.12-4.43,7.15-12,11.47-19.93,3.92-2,15.78-11.6,20.2-16.13a6.46,6.46,0,0,0,1.69-2.63C407.93,117,407.13,116.75,405.5,118.44Zm-43.84,44.22c-2.41,1.72-3.92,2-4.82,1.54-3.22-1.54-.71-7,3.31-10.61,5.23-4.8,12.57-9.87,17.8-13.41C373.73,147.89,369.31,156.95,361.66,162.66Zm2.72-44a.76.76,0,0,0-.88.07,2.17,2.17,0,0,0-.23.21l-.21.27,0,0c-.46.63-1,1.24-1.52,1.86a40.24,40.24,0,0,1-15.74,10.43c-6.53,2.35-14.27,2.26-11.76-5.35,2.22-6.61,10.86-14.14,16.79-16.58,1.41-.64,5-2,5.13.54.21,2-2.81,4.72-4.52,5.89-3.72,2.72-9.35,5.62-12.57,5.89-1.51.09-.8,1.36.71,1.26,4.52-.36,14.07-3.8,17.69-8.61,1.91-2.54,2.51-7.16-1.61-8.42-7.55-2.27-23.12,9.6-26.14,15.76C324,133.3,336.83,137,347.09,133.3a37.26,37.26,0,0,0,12.41-7.76,34.05,34.05,0,0,0,5-5.83C364.88,119.26,364.88,118.81,364.38,118.62Z" fill="url(#7590da23-bf04-4c5e-b77e-55d9675de355)"/><path d="M447.11,99.34,446,101.92l-1.12-2.58h-1.23v4.2h.86v-3l1.13,2.4h.72l1.13-2.4v3h.87v-4.2Zm-7.75,0v.86h1.38v3.36h.86v-3.36H443v-.86Z" fill="url(#7beb0c9c-ce19-46f3-9069-01bc2d2f4298)"/><path d="M109.69,10V9.1a.47.47,0,0,0-.46-.47H99a.46.46,0,0,0-.46.47V10a.46.46,0,0,0,.46.46h4.14v7.27a.46.46,0,0,0,.46.46h1a.46.46,0,0,0,.47-.46V10.45h4.15A.46.46,0,0,0,109.69,10Z"/><path d="M133.93,8.64h-1a.47.47,0,0,0-.46.47v4.54c0,2-.57,2.78-3.77,2.78S125,15.7,125,13.65V9.1a.47.47,0,0,0-.46-.47h-1a.46.46,0,0,0-.46.47v4.54c0,3.3,1.64,4.64,5.66,4.64a7.06,7.06,0,0,0,4.24-1,2.74,2.74,0,0,0,.43-.38,4.62,4.62,0,0,0,1-3.28V9.1A.47.47,0,0,0,133.93,8.64Z"/><path d="M146.65,8.64H139.9c-3.08,0-4.51,1.52-4.51,4.77s1.48,4.77,4.51,4.77h6.75a.47.47,0,0,0,.32-.12l0,0a.46.46,0,0,0,.13-.31v-1a.46.46,0,0,0-.46-.46H139.9c-1.94,0-2.6-.73-2.6-2.88a3.4,3.4,0,0,1,.54-2.2l.09-.1a1.49,1.49,0,0,1,.28-.23h0a3.21,3.21,0,0,1,1.67-.34h6.75a.46.46,0,0,0,.31-.12l0,0a.45.45,0,0,0,.12-.31v-1A.47.47,0,0,0,146.65,8.64Z"/><path d="M159.28,9.1a.47.47,0,0,0-.46-.47h-1a.47.47,0,0,0-.47.47v3.4h-7.46V9.1a.47.47,0,0,0-.46-.47h-1a.47.47,0,0,0-.47.47v8.61a.46.46,0,0,0,.47.46h1a.44.44,0,0,0,.31-.12l0,0a.45.45,0,0,0,.13-.32V14.3h7.46v3.41a.46.46,0,0,0,.47.46h1a.45.45,0,0,0,.32-.12l0,0a.47.47,0,0,0,.13-.32Z"/><path d="M121.4,16.25a5.22,5.22,0,0,0,.69-2.84c0-4.29-3.06-4.88-6.37-4.88s-6.38.59-6.38,4.88,3.07,4.88,6.38,4.88a8.75,8.75,0,0,0,4.54-.9l.22-.15.12-.08c.12-.09.23-.2.34-.3h0a2.77,2.77,0,0,0,.28-.33l.07-.09Zm-9.74-4.66a2.21,2.21,0,0,1,.76-.71,7.35,7.35,0,0,1,3.3-.49c3.08,0,4.45.44,4.45,3s-1.37,3-4.45,3-4.46-.44-4.46-3A3.44,3.44,0,0,1,111.67,11.59Z"/><path d="M21.78,8.67h-10a.58.58,0,0,0-.4.19.64.64,0,0,0-.16.42v8.36a.55.55,0,0,0,.56.55h.95a.56.56,0,0,0,.55-.55V14.9h8.2a.56.56,0,0,0,.55-.56V13.5a.55.55,0,0,0-.55-.55h-8.2V10.72h8.53a.56.56,0,0,0,.56-.56V9.23A.56.56,0,0,0,21.78,8.67Z"/><path d="M24.49,8.67h-1a.56.56,0,0,0-.56.56v8.41a.56.56,0,0,0,.56.55h1a.55.55,0,0,0,.56-.55V9.23A.56.56,0,0,0,24.49,8.67Z"/><path d="M37.69,8.67h-.95a.55.55,0,0,0-.56.56V16.1c-.67-.11-1.08-.63-2.94-3.12l-.1-.13c-2.4-3.2-3.12-4.17-5.44-4.17H26.9a.55.55,0,0,0-.56.56v8.41a.55.55,0,0,0,.56.55h.95a.56.56,0,0,0,.55-.55V10.77c.59.1,1,.59,2.83,3l.26.34c2.41,3.15,3.14,4.1,5.39,4.1h.81a.56.56,0,0,0,.55-.55V9.23A.56.56,0,0,0,37.69,8.67Z"/><rect x="39.55" y="8.67" width="2.07" height="9.53" rx="0.56" ry="0.56"/><path d="M50.29,12.51l-4.06-.35c-1.62-.14-1.62-.53-1.62-.81s0-.71,1.2-.71h6.92a.56.56,0,0,0,.56-.56V9.23a.56.56,0,0,0-.56-.56H45.89c-2.1,0-3.36,1-3.36,2.71S43.67,14,45.9,14.15l4.17.34c1.73.15,1.73.63,1.73.91s0,.82-1.5.82H42.91a.55.55,0,0,0-.55.55v.86a.56.56,0,0,0,.55.55h7.34c3.27,0,3.63-2,3.63-2.83C53.88,12.82,51.18,12.59,50.29,12.51Z"/><path d="M65.21,8.67h-1a.56.56,0,0,0-.56.56v3.22H56.61V9.23a.56.56,0,0,0-.56-.56H55.1a.55.55,0,0,0-.55.56v8.41a.55.55,0,0,0,.55.55h.95a.56.56,0,0,0,.56-.55V14.41h7.08v3.24a.56.56,0,0,0,.56.55h1a.56.56,0,0,0,.56-.55V9.23A.56.56,0,0,0,65.21,8.67Z"/><path d="M67.62,8.67h1a.55.55,0,0,1,.55.55v8.42a.55.55,0,0,1-.55.55h-1a.56.56,0,0,1-.56-.56V9.23a.56.56,0,0,1,.56-.56Z"/><path d="M81.78,8.67h-1a.56.56,0,0,0-.55.56V16.1c-.67-.11-1.08-.63-2.94-3.12l-.1-.15c-2.39-3.19-3.12-4.16-5.43-4.16H71a.55.55,0,0,0-.55.56v8.41a.55.55,0,0,0,.55.55h1a.56.56,0,0,0,.56-.55V10.77c.58.1,1,.59,2.82,3l.27.35C78,17.25,78.72,18.2,81,18.2h.82a.56.56,0,0,0,.55-.55V9.23A.56.56,0,0,0,81.78,8.67Z"/><path d="M94.9,13.27a.56.56,0,0,0-.54-.4H86.9a.55.55,0,0,0-.56.56v.89a.55.55,0,0,0,.56.55h6v1.29H87.73c-1.82,0-2.44-.69-2.44-2.73s.62-2.71,2.44-2.71h6.55a.56.56,0,0,0,.56-.56V9.23a.56.56,0,0,0-.56-.56H87.73c-3,0-4.52,1.56-4.52,4.75s1.48,4.77,4.52,4.77h6.64a.56.56,0,0,0,.55-.55v-4.2A.6.6,0,0,0,94.9,13.27Z"/><path d="M161.5,10.6a2.07,2.07,0,0,1,2.18-2.07,2.08,2.08,0,1,1-2.18,2.07Zm4,0a1.77,1.77,0,0,0-1.84-1.76,1.76,1.76,0,1,0,1.84,1.76Zm-2.79-1.27h1.13a.86.86,0,0,1,.82.85.83.83,0,0,1-.41.72l.58.93h-.72l-.5-.81h-.25v.81h-.64Zm1.07,1.14c.14,0,.25-.09.25-.29a.25.25,0,0,0-.26-.29h-.41v.58Z"/></svg>