<?xml version="1.0" encoding="utf-8"?>
<!-- Generator: Adobe Illustrator 24.0.2, SVG Export Plug-In . SVG Version: 6.00 Build 0)  -->
<svg version="1.1" id="_x2014_ÎÓÈ_x5F_1" xmlns="http://www.w3.org/2000/svg" xmlns:xlink="http://www.w3.org/1999/xlink"
	 x="0px" y="0px" viewBox="0 0 286 344" style="enable-background:new 0 0 286 344;" xml:space="preserve">
<g>
	<path d="M143,182c50.2,0,91-40.8,91-91c0-50.2-40.8-91-91-91C92.8,0,52,40.8,52,91C52,141.2,92.8,182,143,182z M143,20
		c39.1,0,71,31.9,71,71s-31.9,71-71,71s-71-31.9-71-71S103.9,20,143,20z"/>
	<path d="M143,191C64.1,191,0,255.1,0,334c0,5.5,4.5,10,10,10s10-4.5,10-10c0-67.8,55.2-123,123-123s123,55.2,123,123
		c0,5.5,4.5,10,10,10c5.5,0,10-4.5,10-10C286,255.1,221.9,191,143,191z"/>
</g>
</svg>
