<?xml version="1.0" encoding="utf-8"?>
<!-- Generator: Adobe Illustrator 26.5.0, SVG Export Plug-In . SVG Version: 6.00 Build 0)  -->
<svg version="1.1" id="Layer_2" xmlns="http://www.w3.org/2000/svg" xmlns:xlink="http://www.w3.org/1999/xlink" x="0px" y="0px"
	 viewBox="0 0 600 360" style="enable-background:new 0 0 600 360;" xml:space="preserve">
<style type="text/css">
	.st0{fill:#404041;}
	.st1{fill:none;}
</style>
<polygon class="st0" points="104.8,141.9 117,141.9 117,145 108.3,145 108.3,148.2 115.9,148.2 115.9,151.3 108.3,151.3 
	108.3,157.2 104.8,157.2 "/>
<rect x="121.1" y="141.9" class="st0" width="3.5" height="15.3"/>
<polygon class="st0" points="129.9,141.9 133.1,141.9 140.6,151.4 140.6,141.9 144.1,141.9 144.1,157.2 141.1,157.2 133.3,147.5 
	133.3,157.2 129.9,157.2 "/>
<rect x="149.3" y="141.9" class="st0" width="3.5" height="15.3"/>
<path class="st0" d="M157.6,146.3L157.6,146.3c0,3.1,2.1,4,5.3,4.7c2.7,0.7,3.2,1.1,3.2,1.9v0c0,0.9-0.9,1.4-2.3,1.4
	c-1.8,0-3.3-0.7-4.8-1.8l-2.1,2.4c1.9,1.7,4.4,2.5,6.8,2.5c3.5,0,5.8-1.7,5.8-4.8v0c0-2.7-1.8-3.8-5-4.6c-2.7-0.7-3.5-1-3.5-2l0,0
	c0-0.8,0.7-1.3,2.1-1.3s2.7,0.6,4.1,1.5l1.8-2.6c-1.6-1.3-3.6-1.9-5.9-1.9C159.9,141.7,157.6,143.5,157.6,146.3"/>
<polygon class="st0" points="183.8,141.9 183.8,148 177.4,148 177.4,141.9 173.9,141.9 173.9,157.2 177.4,157.2 177.4,151.1 
	183.8,151.1 183.8,157.2 187.4,157.2 187.4,141.9 "/>
<rect x="192.6" y="141.9" class="st0" width="3.5" height="15.3"/>
<polygon class="st0" points="212,141.9 212,151.4 204.5,141.9 201.3,141.9 201.3,157.2 204.8,157.2 204.8,147.5 212.5,157.2 
	215.5,157.2 215.5,141.9 "/>
<path class="st0" d="M219.8,149.6L219.8,149.6c0,4.6,3.4,7.9,8.4,7.9c2.9,0,5.2-1.1,6.8-2.4v-6.7h-6.9v2.9h3.6v2.2
	c-0.9,0.6-2,0.9-3.3,0.9c-2.8,0-4.8-2.1-4.8-4.9v0c0-2.6,2-4.8,4.6-4.8c1.8,0,2.9,0.6,4.2,1.6l2.2-2.6c-1.7-1.3-3.4-2.1-6.3-2.1
	C223.3,141.6,219.8,145.2,219.8,149.6"/>
<polygon class="st0" points="246.5,141.9 246.5,145 251.4,145 251.4,157.2 254.9,157.2 254.9,145 259.8,145 259.8,141.9 "/>
<path class="st0" d="M266,149.6L266,149.6c0-2.7,2-4.8,4.8-4.8c2.8,0,4.8,2.2,4.8,4.8v0c0,2.6-2,4.8-4.8,4.8
	C268,154.4,266,152.2,266,149.6 M262.3,149.6L262.3,149.6c0,4.4,3.6,7.9,8.5,7.9s8.5-3.6,8.5-7.9v0c0-4.4-3.6-7.9-8.5-7.9
	C265.9,141.6,262.3,145.2,262.3,149.6"/>
<path class="st0" d="M293.8,141.9v8.8c0,2.4-1.3,3.7-3.5,3.7c-2.2,0-3.5-1.3-3.5-3.8v-8.7h-3.5v8.8c0,4.5,2.6,6.8,6.9,6.8
	c4.3,0,7-2.3,7-6.9v-8.7H293.8z"/>
<g>
	<g>
		<path id="SVGID_1_" class="st0" d="M301.4,149.6L301.4,149.6c0,4.5,3.5,7.9,8.2,7.9c3.1,0,4.9-1,6.5-2.7l-2.2-2.2
			c-1.3,1.1-2.4,1.8-4.2,1.8c-2.7,0-4.6-2.2-4.6-4.8v0c0-2.6,1.9-4.8,4.6-4.8c1.6,0,2.8,0.7,4.1,1.8l2.2-2.5
			c-1.5-1.4-3.3-2.4-6.3-2.4C304.8,141.6,301.4,145.2,301.4,149.6"/>
	</g>
</g>
<polygon class="st0" points="330.1,141.9 330.1,148 323.6,148 323.6,141.9 320.1,141.9 320.1,157.2 323.6,157.2 323.6,151.1 
	330.1,151.1 330.1,157.2 333.6,157.2 333.6,141.9 "/>
<polygon class="st0" points="103.9,220.8 103.9,168.7 138.9,168.7 138.9,177.5 114,177.5 114,191 134.7,191 134.7,199.2 114,199.2 
	114,220.8 "/>
<polygon class="st0" points="184.5,220.8 184.5,211.9 157.9,211.9 157.9,168.7 147.8,168.7 147.8,220.8 "/>
<path class="st0" d="M219.4,168.7h-8.2l-20.6,52.2h10.7l4.8-13h18.3l4.8,13h10.7L219.4,168.7z M207.7,200.7l7.5-21.1l7.3,21.1H207.7
	z"/>
<polygon class="st0" points="270.2,192.5 263.7,209.2 248.8,168.7 237.9,168.7 259,220.8 267.6,220.8 276.6,198.9 285.7,220.8 
	294.2,220.8 315.4,168.7 304.4,168.7 289.6,209.2 283,192.5 291.9,168.8 282.5,168.8 276.6,186.1 270.7,168.8 261.4,168.8 "/>
<polygon class="st0" points="360.2,220.8 360.2,211.9 333.6,211.9 333.6,168.7 323.5,168.7 323.5,220.8 "/>
<polygon class="st0" points="378.9,211.9 378.9,198.3 400.8,198.3 400.8,190.1 378.9,190.1 378.9,177.5 404.3,177.5 404.3,168.7 
	368.7,168.7 368.7,220.8 404.9,220.8 404.9,211.9 "/>
<path class="st0" d="M451.8,174.1c-4.5-3.1-11-5.8-18.2-5.8c-10.6,0-19,5.7-19,16.4c0,8,4.9,11.4,14.8,14.1
	c8.1,2.2,13.5,3.5,13.5,8.1c0,3.5-2.9,5.4-8.4,5.4c-8,0-15.8-4.6-17.6-6.4l-4.5,8.7c6,4.3,14.1,6.7,21.9,6.7
	c10.3,0,19.3-4.3,19.3-15.5c0-9.6-6.5-12.8-16.8-15.4c-7.9-2.1-11.9-3.1-11.9-7.4c0-3.7,2.8-5.9,8.3-5.9c6.3,0,12.7,3.7,14,5.1
	L451.8,174.1z"/>
<path class="st0" d="M499.9,174.1c-4.5-3.1-11-5.8-18.2-5.8c-10.6,0-19,5.7-19,16.4c0,8,4.9,11.4,14.8,14.1
	c8.1,2.2,13.5,3.5,13.5,8.1c0,3.5-2.9,5.4-8.4,5.4c-8,0-15.8-4.6-17.6-6.4l-4.5,8.7c6,4.3,14.1,6.7,21.9,6.7
	c10.3,0,19.3-4.3,19.3-15.5c0-9.6-6.5-12.8-16.8-15.4c-7.9-2.1-11.9-3.1-11.9-7.4c0-3.7,2.8-5.9,8.3-5.9c6.3,0,12.7,3.7,14,5.1
	L499.9,174.1z"/>
<path class="st0" d="M506.6,175.4h-1.7v4h-1.3v-4h-1.7v-1.3h4.7L506.6,175.4L506.6,175.4z M511.8,174.1h1.9v5.3h-1.3v-3.6l-1.3,2.8
	h-1l-1.3-2.8v3.6h-1.3v-5.3h1.9l1.2,3L511.8,174.1z"/>
<rect x="102.9" y="138.6" class="st1" width="410.8" height="82.8"/>
</svg>
