<?xml version="1.0" encoding="UTF-8"?><svg id="Layer_1" xmlns="http://www.w3.org/2000/svg" viewBox="0 0 1436.5588 721.295"><g><path d="M288.4666,138.292c-8.6924,0-15.644-2.4763-20.8438-7.4346-5.2053-4.9639-7.8052-11.6011-7.8052-19.9285,0-8.9395,3.1782-16.0708,9.5459-21.3997,6.3677-5.3232,14.9365-7.9849,25.7122-7.9849,6.8562,0,14.5715,1.0388,23.146,3.1221v-12.1233c0-6.6091-1.5049-11.2642-4.5034-13.9595-2.9985-2.6897-8.1084-4.0374-15.3352-4.0374-8.4453,0-16.7109,1.2241-24.7913,3.6724-2.8188,.8591-4.5933,1.2859-5.3289,1.2859-1.4656,0-2.2012-1.1006-2.2012-3.3074v-4.9583c0-1.5891,.2415-2.7571,.7356-3.4871,.4829-.7356,1.4656-1.4094,2.9368-2.0215,3.7959-1.7126,8.6025-3.094,14.4143-4.1328,5.8174-1.0388,11.6011-1.561,17.3567-1.561,11.6348,0,20.2036,2.4202,25.7122,7.2549,5.5085,4.8347,8.2656,12.2131,8.2656,22.1296v62.812c0,2.4482-1.2241,3.6724-3.6724,3.6724h-7.895c-2.3303,0-3.678-1.1624-4.043-3.4871l-.9209-6.0645c-4.408,3.7959-9.2708,6.7383-14.5996,8.8159-5.3232,2.0833-10.624,3.1221-15.8855,3.1221Zm4.408-13.7742c4.043,0,8.2656-.7917,12.6736-2.3865,4.408-1.5891,8.6306-3.9194,12.6736-6.9797v-18.7324c-6.6147-1.5891-13.106-2.3865-19.468-2.3865-13.8416,0-20.7539,5.3232-20.7539,15.9753,0,4.655,1.2859,8.2375,3.8577,10.7476,2.5662,2.51,6.2441,3.7622,11.0171,3.7622Z" style="fill:#232f3e;"/><path d="M389.6756,135.9055c-1.7126,0-2.9705-.2415-3.7622-.7356-.7974-.4885-1.6228-1.8979-2.4819-4.2227l-32.5066-81.5444c-.2471-.7356-.5222-1.4712-.8254-2.2068-.3088-.73-.4604-1.4038-.4604-2.0159,0-1.5891,.9209-2.3921,2.7571-2.3921h10.8374c1.8362,0,3.1221,.2471,3.8521,.7356,.7356,.4941,1.533,1.9036,2.3921,4.2283l25.1562,71.6223,25.1619-71.6223c.8591-2.3247,1.6565-3.7341,2.3921-4.2283,.73-.4885,2.0159-.7356,3.8521-.7356h10.1018c1.8362,0,2.7571,.803,2.7571,2.3921,0,.6121-.1572,1.2859-.4604,2.0159-.3088,.7356-.584,1.4712-.8254,2.2068l-32.3269,81.5444c-.8535,2.3247-1.679,3.7341-2.4763,4.2227-.7974,.4941-2.0496,.7356-3.7678,.7356h-9.3662Z" style="fill:#232f3e;"/><path d="M478.0538,138.292c-8.6924,0-15.644-2.4763-20.8438-7.4346-5.2053-4.9639-7.8052-11.6011-7.8052-19.9285,0-8.9395,3.1782-16.0708,9.5459-21.3997,6.3677-5.3232,14.9365-7.9849,25.7122-7.9849,6.8562,0,14.5715,1.0388,23.146,3.1221v-12.1233c0-6.6091-1.5049-11.2642-4.5034-13.9595-2.9985-2.6897-8.1084-4.0374-15.3352-4.0374-8.4453,0-16.7109,1.2241-24.7913,3.6724-2.8188,.8591-4.5933,1.2859-5.3289,1.2859-1.4656,0-2.2012-1.1006-2.2012-3.3074v-4.9583c0-1.5891,.2415-2.7571,.7356-3.4871,.4829-.7356,1.4656-1.4094,2.9368-2.0215,3.7959-1.7126,8.6025-3.094,14.4143-4.1328,5.8174-1.0388,11.6011-1.561,17.3567-1.561,11.6348,0,20.2036,2.4202,25.7122,7.2549,5.5085,4.8347,8.2656,12.2131,8.2656,22.1296v62.812c0,2.4482-1.2241,3.6724-3.6724,3.6724h-7.895c-2.3303,0-3.678-1.1624-4.043-3.4871l-.9209-6.0645c-4.408,3.7959-9.2708,6.7383-14.5996,8.8159-5.3232,2.0833-10.624,3.1221-15.8855,3.1221Zm4.408-13.7742c4.043,0,8.2656-.7917,12.6736-2.3865,4.408-1.5891,8.6306-3.9194,12.6736-6.9797v-18.7324c-6.6147-1.5891-13.106-2.3865-19.468-2.3865-13.8416,0-20.7539,5.3232-20.7539,15.9753,0,4.655,1.2859,8.2375,3.8577,10.7476,2.5662,2.51,6.2441,3.7622,11.0171,3.7622Z" style="fill:#232f3e;"/><path d="M560.5921,26.2625c-3.5544,0-6.3396-1.0107-8.3611-3.0322-2.0159-2.0215-3.0266-4.6831-3.0266-7.9905,0-3.3018,1.0107-5.969,3.0266-7.9849,2.0215-2.0215,4.8066-3.0322,8.3611-3.0322,3.5488,0,6.334,1.0107,8.3555,3.0322,2.0159,2.0159,3.0266,4.6831,3.0266,7.9849,0,3.3074-1.0107,5.969-3.0266,7.9905-2.0215,2.0215-4.8066,3.0322-8.3555,3.0322Zm-5.5142,109.6431c-2.4482,0-3.6724-1.2241-3.6724-3.6724V46.4661c0-2.4482,1.2241-3.678,3.6724-3.678h10.8374c2.4482,0,3.6724,1.2297,3.6724,3.678v85.7671c0,2.4482-1.2241,3.6724-3.6724,3.6724h-10.8374Z" style="fill:#232f3e;"/><path d="M615.9022,136.8264c-6.4912,0-11.4495-1.8699-14.8748-5.604-3.4309-3.7341-5.1436-9.0911-5.1436-16.0708V3.6724c0-2.4482,1.2241-3.6724,3.6724-3.6724h10.8374c2.4482,0,3.6724,1.2241,3.6724,3.6724V114.051c0,2.8188,.584,4.8684,1.7463,6.1543,1.1624,1.2803,3.0884,1.926,5.7837,1.926,.7356,0,1.4993-.0618,2.2966-.1853,.7974-.1179,1.4993-.1797,2.1113-.1797,1.2241,0,2.0496,.3032,2.4819,.9153,.4268,.6121,.6401,1.533,.6401,2.7571v5.8735c0,1.2297-.2751,2.1787-.8254,2.8469-.5503,.6738-1.4993,1.196-2.8469,1.561-3.0603,.7356-6.2441,1.1062-9.5515,1.1062Z" style="fill:#232f3e;"/><path d="M672.324,138.292c-8.6924,0-15.644-2.4763-20.8438-7.4346-5.2053-4.9639-7.8052-11.6011-7.8052-19.9285,0-8.9395,3.1782-16.0708,9.5459-21.3997,6.3677-5.3232,14.9365-7.9849,25.7122-7.9849,6.8562,0,14.5715,1.0388,23.146,3.1221v-12.1233c0-6.6091-1.5049-11.2642-4.5034-13.9595-2.9985-2.6897-8.1084-4.0374-15.3352-4.0374-8.4453,0-16.7109,1.2241-24.7913,3.6724-2.8188,.8591-4.5933,1.2859-5.3289,1.2859-1.4656,0-2.2012-1.1006-2.2012-3.3074v-4.9583c0-1.5891,.2415-2.7571,.7356-3.4871,.4829-.7356,1.4656-1.4094,2.9368-2.0215,3.7959-1.7126,8.6025-3.094,14.4143-4.1328,5.8174-1.0388,11.6011-1.561,17.3567-1.561,11.6348,0,20.2036,2.4202,25.7122,7.2549,5.5085,4.8347,8.2656,12.2131,8.2656,22.1296v62.812c0,2.4482-1.2241,3.6724-3.6724,3.6724h-7.895c-2.3303,0-3.678-1.1624-4.043-3.4871l-.9209-6.0645c-4.408,3.7959-9.2708,6.7383-14.5996,8.8159-5.3232,2.0833-10.624,3.1221-15.8855,3.1221Zm4.408-13.7742c4.043,0,8.2656-.7917,12.6736-2.3865,4.408-1.5891,8.6306-3.9194,12.6736-6.9797v-18.7324c-6.6147-1.5891-13.106-2.3865-19.468-2.3865-13.8416,0-20.7539,5.3232-20.7539,15.9753,0,4.655,1.2859,8.2375,3.8577,10.7476,2.5662,2.51,6.2441,3.7622,11.0171,3.7622Z" style="fill:#232f3e;"/><path d="M792.0914,137.927c-11.2529,0-21.1133-3.9194-29.5586-11.7527l-1.2803,6.0588c-.3818,2.4482-1.7969,3.6724-4.2451,3.6724h-7.8838c-2.4482,0-3.6836-1.2241-3.6836-3.6724V3.6724c0-2.4482,1.2354-3.6724,3.6836-3.6724h10.8262c2.4482,0,3.6836,1.2241,3.6836,3.6724V51.604c9.1865-7.7097,19.0918-11.5674,29.7383-11.5674,11.8818,0,21.248,4.2844,28.1211,12.8533,6.8506,8.5745,10.2646,20.3271,10.2646,35.2637,0,15.0601-3.5938,27.1216-10.8262,36.179-7.2324,9.063-16.8457,13.5945-28.8398,13.5945Zm-4.2227-14.6951c16.8906,0,25.3584-11.3877,25.3584-34.1575,0-11.6348-2.0664-20.2654-6.1543-25.8975-4.1104-5.6321-10.377-8.4509-18.8223-8.4509-8.7148,0-16.9131,2.8188-24.6172,8.4509v51.239c7.7041,5.8792,15.79,8.8159,24.2354,8.8159Z" style="fill:#232f3e;"/><path d="M873.5347,136.8264c-6.4912,0-11.4551-1.8699-14.8804-5.604s-5.1436-9.0911-5.1436-16.0708V3.6724c0-2.4482,1.2241-3.6724,3.6724-3.6724h10.8374c2.4482,0,3.6724,1.2241,3.6724,3.6724V114.051c0,2.8188,.584,4.8684,1.752,6.1543,1.1567,1.2803,3.0884,1.926,5.7837,1.926,.73,0,1.4937-.0618,2.291-.1853,.7974-.1179,1.4937-.1797,2.1113-.1797,1.2241,0,2.0552,.3032,2.4819,.9153s.6401,1.533,.6401,2.7571v5.8735c0,1.2297-.2695,2.1787-.8198,2.8469-.5503,.6738-1.5049,1.196-2.8525,1.561-3.0659,.7356-6.2441,1.1062-9.5459,1.1062Z" style="fill:#232f3e;"/><path d="M944.7134,138.6626c-15.0601,0-26.4478-4.1609-34.1631-12.4883s-11.5674-20.6304-11.5674-36.9202c0-15.5486,3.8521-27.6382,11.5674-36.2688,7.7153-8.6362,18.4854-12.9487,32.3213-12.9487,11.6348,0,20.5742,3.2737,26.8184,9.8267,6.2441,6.5474,9.3662,15.8237,9.3662,27.8235,0,3.9194-.3032,7.895-.9209,11.938-.2471,1.4656-.6401,2.4482-1.1904,2.9368s-1.4375,.7356-2.6616,.7356h-57.6685c.2471,10.5286,2.8413,18.3057,7.8052,23.3257,4.9526,5.02,12.6455,7.53,23.0449,7.53,3.6724,0,7.1987-.2471,10.5679-.7356,3.3579-.4885,7.6143-1.5273,12.7578-3.1221,.8535-.2471,1.5947-.4604,2.2012-.6458,.6177-.1797,1.168-.2751,1.6621-.2751,1.5835,0,2.3809,1.1062,2.3809,3.3074v5.1436c0,1.5947-.2471,2.7234-.73,3.3972-.4941,.6738-1.5386,1.3757-3.1221,2.1113-3.6724,1.5947-8.0522,2.875-13.1284,3.8577-5.0874,.9771-10.1973,1.4712-15.3408,1.4712Zm17.6318-57.4888c.1235-.9771,.1797-2.5718,.1797-4.7729,0-7.4683-1.7407-13.1003-5.2334-16.8962-3.4814-3.7959-8.6025-5.6938-15.3296-5.6938-7.7153,0-13.7124,2.2966-18.0024,6.8843-4.29,4.5933-6.7383,11.4214-7.3447,20.4788h45.7305Z" style="fill:#232f3e;"/><path d="M1066.3731,138.292c-8.6924,0-15.644-2.4763-20.8438-7.4346-5.2109-4.9639-7.8052-11.6011-7.8052-19.9285,0-8.9395,3.1782-16.0708,9.5459-21.3997,6.3677-5.3232,14.9365-7.9849,25.7178-7.9849,6.8506,0,14.5659,1.0388,23.1348,3.1221v-12.1233c0-6.6091-1.4937-11.2642-4.4922-13.9595-3.0098-2.6897-8.1196-4.0374-15.3408-4.0374-8.4453,0-16.7109,1.2241-24.7969,3.6724-2.8188,.8591-4.582,1.2859-5.3232,1.2859-1.4712,0-2.2012-1.1006-2.2012-3.3074v-4.9583c0-1.5891,.2471-2.7571,.73-3.4871,.4941-.7356,1.4712-1.4094,2.9424-2.0215,3.7959-1.7126,8.6025-3.094,14.4199-4.1328,5.8062-1.0388,11.6011-1.561,17.3511-1.561,11.6348,0,20.2036,2.4202,25.7178,7.2549,5.5029,4.8347,8.2656,12.2131,8.2656,22.1296v62.812c0,2.4482-1.2354,3.6724-3.6836,3.6724h-7.895c-2.3247,0-3.6724-1.1624-4.043-3.4871l-.9097-6.0645c-4.4136,3.7959-9.2764,6.7383-14.5996,8.8159-5.3345,2.0833-10.624,3.1221-15.8911,3.1221Zm4.4136-13.7742c4.0317,0,8.2544-.7917,12.668-2.3865,4.4023-1.5891,8.6362-3.9194,12.668-6.9797v-18.7324c-6.6035-1.5891-13.0947-2.3865-19.4624-2.3865-13.8359,0-20.7539,5.3232-20.7539,15.9753,0,4.655,1.2803,8.2375,3.8521,10.7476s6.2441,3.7622,11.0283,3.7622Z" style="fill:#232f3e;"/><path d="M1172.1978,137.1914c-17.396,0-26.0884-8.6924-26.0884-26.0771V57.1182h-13.2183c-2.4482,0-3.6724-1.2241-3.6724-3.678v-4.5876c0-1.2241,.2695-2.1394,.8311-2.7571,.5503-.6121,1.6172-1.0388,3.2119-1.2859l13.4092-1.6509,2.3809-22.7754c.2471-2.4482,1.5273-3.6724,3.8633-3.6724h7.7041c2.4482,0,3.6724,1.2241,3.6724,3.6724v22.4048h23.876c2.4482,0,3.6836,1.2297,3.6836,3.678v6.9741c0,2.4539-1.2354,3.678-3.6836,3.678h-23.876v53.0752c0,4.5315,1.0107,7.7153,3.0322,9.5515s5.4805,2.7515,10.377,2.7515c2.3247,0,5.2109-.3032,8.6362-.9153,1.8306-.3706,3.0547-.5503,3.6724-.5503,.9771,0,1.6509,.2751,2.0215,.8254s.5503,1.4375,.5503,2.6616v4.9583c0,1.5947-.2471,2.7852-.73,3.5825-.4941,.7974-1.4712,1.4431-2.9424,1.926-4.7729,1.4712-10.3545,2.2068-16.7109,2.2068Z" style="fill:#232f3e;"/></g><g><g><path d="M897.224,591.2457c-82.5476,60.9172-202.2156,93.3106-305.2698,93.3106-144.4235,0-274.4826-53.3862-372.8996-142.2516-7.7276-6.9807-.8363-16.5083,8.454-11.105,106.184,61.7876,237.4967,98.9998,373.1192,98.9998,91.4895,0,192.0553-18.9872,284.5981-58.2399,13.955-5.919,25.6538,9.194,11.9982,19.286h0Z" style="fill:#232f3e; fill-rule:evenodd;"/><path d="M931.572,552.028c-10.5579-13.5146-69.7852-6.4046-96.3994-3.2155-8.059,.9669-9.3085-6.0786-2.0444-11.1784,47.2549-33.1869,124.676-23.6064,133.6746-12.4929,9.0607,11.2058-2.3852,88.8313-46.6611,125.8742-6.815,5.6934-13.2943,2.6556-10.2688-4.8664,9.9642-24.8842,32.2674-80.5936,21.6991-94.121h0Z" style="fill:#232f3e; fill-rule:evenodd;"/></g><path d="M837.0468,303.1869v-32.2488c.0309-4.911,3.7222-8.1779,8.1778-8.1628l144.5372-.0151c4.6206,0,8.3326,3.3624,8.3326,8.1352v27.6576c-.0465,4.6427-3.9547,10.6909-10.8831,20.3017l-74.8705,106.893c27.7912-.6499,57.188,3.5181,82.4392,17.7089,5.6945,3.1979,7.2227,7.9331,7.6668,12.5827v34.4126c0,4.7352-5.1886,10.2257-10.6458,7.3657-44.4824-23.3023-103.5188-25.846-152.7098,.2905-5.0285,2.6734-10.2843-2.7347-10.2843-7.4828v-32.7058c0-5.2386,.0981-14.1857,5.3797-22.1633l86.7398-124.4408-75.5263-.0084c-4.6154,0-8.3224-3.2893-8.3533-8.1203h0Z" style="fill:#232f3e; fill-rule:evenodd;"/><path d="M1122.9201,304.6768c-32.4274,0-34.472,44.1538-34.472,71.703s-.4078,86.4275,34.0744,86.4275c34.0691,0,35.7057-47.4894,35.7057-76.4469,0-18.9938-.8209-41.7936-6.5774-59.8427-4.9201-15.6742-14.7758-21.841-28.7308-21.841h0Zm-.3975-46.0722c65.2574,0,100.5502,56.0455,100.5502,127.2753,0,68.8506-38.9789,123.477-100.5502,123.477-64.034,0-98.9292-56.0518-98.9292-125.8518,0-70.2877,35.2979-124.9005,98.9292-124.9005h0Z" style="fill:#232f3e; fill-rule:evenodd;"/><path d="M766.1773,504.0356c-2.9067,2.6129-8.219,2.6992-10.3875,1.0229-15.0237-11.624-25.2046-29.2998-25.2046-29.2998-24.1412,24.5857-41.2352,31.9642-72.4958,31.9642-37.0171,0-65.8151-22.8514-65.8151-68.5347,0-35.6954,19.3295-59.9683,46.8935-71.8644,23.8521-10.4752,57.1777-12.3772,82.6716-15.2389,0,0,2.1323-27.5524-5.3383-37.5954-5.7875-7.7856-15.6381-11.4259-24.6781-11.4259-16.3144-.0666-32.0712,8.8053-35.1999,25.8708-.8931,4.8784-4.4967,8.9761-8.2914,8.5672l-42.1076-4.5619c-3.2267-.3732-7.6048-3.6986-6.5671-9.197,9.7937-51.701,56.4808-67.3179,98.3303-67.3179,21.3893,0,49.3613,5.7029,66.228,21.8928,21.3844,19.9878,19.3347,46.6446,19.3347,75.6841v68.492c0,20.6161,8.5547,29.6504,16.588,40.7473,2.8034,4.012,3.4435,8.7612-.1342,11.69-8.9884,7.531-33.8265,29.1046-33.8265,29.1046h0Zm-44.3379-107.2086c0,17.1414,.4182,31.4077-8.219,46.6467-6.9905,12.3664-18.1008,19.9881-30.4398,19.9881-16.8617,0-26.738-12.8557-26.738-31.8951,0-37.4503,33.5994-44.2546,65.3969-44.2546v9.5149h0Z" style="fill:#232f3e; fill-rule:evenodd;"/><path d="M189.7399,504.0356c-2.9052,2.6129-8.2203,2.6992-10.3867,1.0229-15.0256-11.624-25.2046-29.2998-25.2046-29.2998-24.1432,24.5857-41.2345,31.9642-72.4952,31.9642-37.0206,0-65.8134-22.8514-65.8134-68.5347,0-35.6954,19.3273-59.9683,46.8917-71.8644,23.8528-10.4752,57.178-12.3772,82.6733-15.2389,0,0,2.1286-27.5524-5.3402-37.5954-5.7902-7.7856-15.6382-11.4259-24.6807-11.4259-16.3103-.0666-32.0712,8.8053-35.1977,25.8708-.8938,4.8784-4.4952,8.9761-8.2895,8.5672l-42.1109-4.5619c-3.228-.3732-7.6046-3.6986-6.5668-9.197,9.7922-51.701,56.4803-67.3179,98.3327-67.3179,21.3896,0,49.3613,5.7029,66.2276,21.8928,21.3833,19.9878,19.3336,46.6446,19.3336,75.6841v68.492c0,20.6161,8.5553,29.6504,16.589,40.7473,2.8034,4.012,3.444,8.7612-.1369,11.69-8.9841,7.531-33.8253,29.1046-33.8253,29.1046h0Zm-44.335-107.2086c0,17.1414,.4136,31.4077-8.2238,46.6467-6.9877,12.3664-18.099,19.9881-30.4397,19.9881-16.8595,0-26.7364-12.8557-26.7364-31.8951,0-37.4503,33.6003-44.2546,65.3999-44.2546v9.5149h0Z" style="fill:#232f3e; fill-rule:evenodd;"/><path d="M318.3296,376.8517c0-26.1191-1.2344-62.2016,30.3742-62.2016,31.1888,0,27.0854,37.0342,27.0854,62.2016l.044,119.6443c0,4.3295,3.4787,7.8217,7.897,8.1029h43.9208c4.6837,0,8.4751-3.6181,8.4751-8.1195v-119.6278c0-12.8258-.4074-31.8125,4.1034-43.2171,4.5196-11.3963,15.603-18.521,26.2791-18.521,12.7175,0,22.5686,4.2786,25.8511,19.4808,2.0552,9.0215,1.2344,32.7723,1.2344,42.2573l.0155,119.6443c0,4.3295,3.4705,7.8217,7.8857,8.1029h43.9166c4.693,0,8.4825-3.6181,8.4825-8.1195l.0412-142.4188c0-24.2237,2.8654-51.7598-11.0896-70.7599-12.3107-17.0982-32.4222-24.6962-50.8936-24.6962-25.8574,0-50.0744,13.3004-60.7504,41.7943-12.3122-28.4939-29.5554-41.7943-57.0524-41.7943-27.0854,0-47.199,13.3004-57.8689,41.7943h-.8276v-28.8186c0-4.5365-3.6781-8.2143-8.2145-8.2143h-41.0311c-4.5365,0-8.214,3.6778-8.214,8.2143v224.8048c0,4.5365,3.6775,8.2138,8.214,8.2138h43.9069c4.537,0,8.2144-3.6773,8.2144-8.2138l.001-119.5334h0Z" style="fill:#232f3e; fill-rule:evenodd;"/><path d="M1316.297,496.3851c0,4.5365-3.6759,8.2138-8.214,8.2138h-43.9094c-4.5329,0-8.214-3.6773-8.214-8.2138v-224.8048c0-4.5365,3.6811-8.2143,8.214-8.2143h40.6c4.755,0,8.2142,3.8261,8.2142,6.4168v34.4136h.8467c12.3184-30.8763,29.5464-45.5917,59.9191-45.5917,19.7062,0,38.9995,7.1193,51.313,26.5984,11.4923,18.0426,11.4923,48.4316,11.4923,70.2811v142.0136c-.4906,3.9945-4.0837,7.1013-8.4309,7.1013h-44.0746c-4.0734-.2603-7.3569-3.254-7.8267-7.1013l.0723-136.3655c0-45.6225-17.4811-46.9632-27.5692-46.9632-11.7352,0-21.1726,9.1607-25.3029,17.713-6.154,13.779-7.1349,27.8723-7.1349,43.0828l.0052,121.4204h0Z" style="fill:#232f3e; fill-rule:evenodd;"/></g></svg>