<?xml version="1.0" encoding="utf-8"?>
<!-- Generator: Adobe Illustrator 26.0.3, SVG Export Plug-In . SVG Version: 6.00 Build 0)  -->
<svg version="1.1" id="Layer_1" xmlns="http://www.w3.org/2000/svg" xmlns:xlink="http://www.w3.org/1999/xlink" x="0px" y="0px"
	 viewBox="0 0 175.05 54.59" style="enable-background:new 0 0 175.05 54.59;" xml:space="preserve">
<g>
	<path d="M0.05,33.91h9.48c4.33,0,8.76,0.94,8.76,5.64c0,1.78-0.98,3.54-2.94,4.1v0.16c2.44,0.78,3.98,2.4,3.98,4.83
		c0,4.19-4.28,5.62-8.2,5.62H0.05V33.91L0.05,33.91z M8.34,41.74c1.19,0,2.53-0.11,2.53-1.51c0-1.51-1.52-1.4-2.7-1.4H7.6v2.92H8.34
		L8.34,41.74z M7.6,49.4h0.92c1.34,0,3.27-0.03,3.27-1.7c0-1.7-2.08-1.67-3.39-1.67H7.6V49.4L7.6,49.4z"/>
	<polygon points="20.63,33.91 37.06,33.91 37.06,39.47 29.57,39.47 29.57,41.41 36.41,41.41 36.41,46.71 29.57,46.71 29.57,48.7 
		37.31,48.7 37.31,54.26 20.63,54.26 20.63,33.91 	"/>
	<path d="M48.6,33.91l3.06,5.32h0.29c0.29-0.65,0.54-1.3,0.91-1.92l1.97-3.4h11.22l-9.4,11.58v8.78h-9.77v-8.78L37.3,33.91H48.6
		L48.6,33.91z"/>
	<path d="M94.31,44.14c0,6.53-7.32,10.45-16.32,10.45c-9,0-16.32-3.91-16.32-10.45c0-6.4,7.36-10.56,16.32-10.56
		C86.95,33.58,94.31,37.74,94.31,44.14L94.31,44.14z M72.47,44.25c0,2.32,2.27,3.91,5.52,3.91c3.25,0,5.52-1.59,5.52-3.91
		c0-2.16-2.11-3.97-5.52-3.97C74.58,40.28,72.47,42.09,72.47,44.25L72.47,44.25z"/>
	<path d="M129.12,33.91h16.95c15.37,0,27.15,3,27.15,10.47c0,6.05-9.6,9.88-23.02,9.88h-21.08V33.91L129.12,33.91z M145.76,48.16
		h1.03c5.53,0,9.78-1.13,9.78-3.81c0-2.86-3.71-4.08-9.78-4.08h-1.03V48.16L145.76,48.16z"/>
	<path d="M169.6,34.13c0-1.51,1.2-2.71,2.72-2.71c1.52,0,2.73,1.2,2.73,2.71c0,1.51-1.2,2.71-2.73,2.71
		C170.81,36.84,169.6,35.64,169.6,34.13L169.6,34.13z M174.64,34.13c0-1.28-1.06-2.29-2.31-2.29c-1.24,0-2.31,1.02-2.31,2.29
		c0,1.28,1.06,2.29,2.31,2.29C173.57,36.42,174.64,35.41,174.64,34.13L174.64,34.13z M173.62,35.6h-0.5l-0.89-1.37h-0.5v1.37h-0.42
		v-2.97h1.29c0.53,0,1.06,0.15,1.06,0.79c0,0.58-0.41,0.8-0.94,0.81L173.62,35.6L173.62,35.6z M172.23,33.81
		c0.37,0,1.02,0.07,1.02-0.4c0-0.31-0.4-0.36-0.72-0.36h-0.79v0.76H172.23L172.23,33.81z"/>
	<polygon points="106.65,33.92 95.64,33.92 95.64,54.28 106.6,54.28 106.6,43.92 116.31,54.28 127.28,54.28 127.28,33.92 
		116.31,33.92 116.31,44.47 106.65,33.92 	"/>
	<path d="M0,1.15h3.29c5.08,0,9.87,1.32,9.87,7.4c0,1.96-1.07,4.25-2.89,5.11v0.07c3.18,0.57,5.4,3.68,5.4,6.83
		c0,5.4-4.61,7.54-9.37,7.54H0V1.15L0,1.15z M3.36,13.09h0.86c3.18,0,5.79-0.64,5.79-4.51c0-3.79-2.58-4.43-5.72-4.43H3.36V13.09
		L3.36,13.09z M3.36,25.1h2.57c3.11,0,6.36-0.93,6.36-4.75c0-3.79-3.86-4.58-6.87-4.58H3.36V25.1L3.36,25.1z"/>
	<polygon points="17.62,1.15 32.1,1.15 32.1,4.22 20.98,4.22 20.98,11.76 31.78,11.76 31.78,14.84 20.98,14.84 20.98,25.03 
		32.1,25.03 32.1,28.1 17.62,28.1 17.62,1.15 	"/>
	<path d="M35.25,1.15h5.58c8.26,0,15.12,4.36,15.12,13.33c0,9.19-6.72,13.62-15.23,13.62h-5.47V1.15L35.25,1.15z M38.61,25.03h1.18
		c6.86,0,12.8-2.58,12.8-10.4c0-7.87-5.94-10.4-12.8-10.4h-1.18V25.03L38.61,25.03z"/>
	<path d="M65.4,1.15h3.29c5.08,0,9.87,1.32,9.87,7.4c0,1.96-1.07,4.25-2.9,5.11v0.07c3.18,0.57,5.4,3.68,5.4,6.83
		c0,5.4-4.61,7.54-9.37,7.54H65.4V1.15L65.4,1.15z M68.77,13.09h0.86c3.18,0,5.79-0.64,5.79-4.51c0-3.79-2.57-4.43-5.72-4.43h-0.93
		V13.09L68.77,13.09z M68.77,25.1h2.58c3.11,0,6.36-0.93,6.36-4.75c0-3.79-3.86-4.58-6.86-4.58h-2.07V25.1L68.77,25.1z"/>
	<path d="M87.57,21.34l-3.07,6.76h-3.61L93.75,0l12.87,28.1h-3.61l-3.07-6.76H87.57L87.57,21.34z M93.75,7.37l-4.79,10.9h9.58
		L93.75,7.37L93.75,7.37z"/>
	<polygon points="112.56,28.1 109.2,28.1 109.2,4.22 102.8,4.22 102.8,1.15 118.96,1.15 118.96,4.22 112.56,4.22 112.56,28.1 	"/>
	<polygon points="136.97,12.01 136.97,1.15 140.33,1.15 140.33,28.1 136.97,28.1 136.97,15.16 124.14,15.16 124.14,28.1 
		120.77,28.1 120.77,1.15 124.14,1.15 124.14,12.01 136.97,12.01 	"/>
	<path d="M165.45,24.45c-2.04,2.4-4.9,4.22-8.08,4.22c-4.5,0-8.26-3.29-8.26-7.94c0-3.43,2.14-5.29,4.72-7.15l1.68-1.22
		c-1.54-1.61-2.97-3.61-2.97-5.9c0-3.72,2.68-5.9,6.22-5.9c3.29,0,6.22,2.07,6.22,5.61c0,3.04-2.65,5.08-4.9,6.72l5.61,6.79
		l3.15-3.65l2.15,2.22l-3.29,3.86l4.83,5.97h-4.15L165.45,24.45L165.45,24.45z M157.16,15.02c-1.86,1.29-4.9,3.11-4.9,5.68
		c0,2.57,2.43,4.97,5.01,4.97c2.5,0,4.5-1.89,6.18-3.58l-5.97-7.29L157.16,15.02L157.16,15.02z M158.62,10.3
		c1.36-1.07,3.22-2.18,3.22-4.15c0-1.89-1.36-2.93-3.15-2.93c-1.61,0-3,1.15-3,2.86c0,1.36,0.82,2.36,1.61,3.36l0.89,1.15
		L158.62,10.3L158.62,10.3z"/>
</g>
</svg>
