<?xml version="1.0" encoding="UTF-8"?><svg id="Layer_1" xmlns="http://www.w3.org/2000/svg" viewBox="0 0 1186.8023 302.9604"><path d="M1020.5214,201.8636c4.63,21.096,16.8383,28.5417,42.0959,28.5417,22.3116,0,34.5187-7.8587,34.5187-20.2688,0-17.7873-16.4173-19.0274-50.515-27.7146-39.9921-10.3415-65.6705-19.0287-77.458-27.3017-22.3102-15.3045-32.8346-37.2286-32.8346-64.9434,0-54.6024,43.7799-90.1768,119.9748-90.1768,74.0896,0,117.4486,31.8515,122.4995,88.9358h-87.1388c-2.9472-16.9598-14.7332-24.8193-37.0449-24.8193-19.3644,0-29.0467,6.2048-29.0467,19.0282,0,14.8916,14.7346,17.7871,42.5182,24.8193,35.7817,9.1004,63.9865,14.4779,82.0878,26.8876,25.2575,16.5458,36.6238,36.8159,36.6238,65.7706,0,61.222-44.6233,97.2096-127.9743,97.2096-77.0355,0-122.0784-35.5746-127.9715-95.9682h89.6649Zm-338.4546-21.5102c-5.0523,74.045-54.7252,117.4784-137.2341,117.4784-91.7701,0-147.3374-57.0849-147.3374-148.9159C397.4954,56.6707,453.9033,0,543.1486,0c83.3509,0,132.1818,41.3656,137.6551,114.5825h-87.5612c-2.5248-28.5422-18.9435-43.8475-48.8309-43.8475-36.2028,0-53.8831,26.0603-53.8831,78.1808,0,51.2934,19.3631,77.7666,56.829,77.7666,27.7836,0,45.464-16.5459,48.4112-46.742h86.2981v.4129Zm-19.7855-172.0803h93.8752l48.4099,182.0089L856.3458,8.2731h90.507l-96.4014,282.1129h-91.7701L662.2813,8.2731ZM102.3995,.4137c-10.9452,0-21.8902,4.1365-29.8885,12.4097L12.3132,71.976c-16.4176,16.1325-16.4176,42.6065,0,59.1526l170.0691,166.7031,169.649-167.1168c16.4173-16.1325,16.4173-42.6065,0-59.1526l-60.1986-58.739c-8.4192-8.2731-19.3645-12.4097-29.8888-12.4097-10.944,0-21.8893,4.1365-30.3084,12.4097l-49.2533,48.8113L132.7087,12.8233C124.2895,4.5502,113.3445,.4137,102.3995,.4137Z" style="fill:#c00;"/></svg>