<?xml version="1.0" encoding="UTF-8"?><svg id="Layer_1" xmlns="http://www.w3.org/2000/svg" viewBox="0 0 1239.0945 578.3249"><path d="M1080.1693,242.7439h158.9252v-33.1886h-121.1704v-49.5935h102.9921v-32.4689h-102.9921V33.2919h116.1705V.0999h-153.9253V242.7439Zm-150.0478,0h37.4379V33.2747h71.9799V.0861h-181.3976V33.2747h71.9798V242.7439Zm-151.0843,0h37.4242V.0999h-37.4242V242.7439Zm-179.2489-94.9206V33.2747h21.3774c47.3966,0,67.3484,21.0537,67.3484,57.4517,0,36.0433-19.2458,57.0969-67.3484,57.0969h-21.3774Zm78.7498,19.9758c31.7252-13.9153,48.4744-39.6039,48.4744-77.0728C727.0124,35.055,689.5882,.0861,622.5912,.0861h-60.5784V242.7266h37.7754v-62.4344h22.803c6.7734,0,13.5468-.7232,20.3202-1.429l43.4744,63.8635h43.4744l-51.3221-74.9275Z" style="fill:#003da6;"/><path d="M-.5716,341.9791C-.5062,248.0985-.1033,40.7781,0,0H471.5415c.0999,40.7953,.5027,248.1157,.5682,341.9791,.0172,20.2307-4.1736,40.3098-13.044,58.5226-33.0956,68.0955-112.1519,140.2166-223.2949,177.8232h-.0344c-111.1292-37.6066-190.182-109.7277-223.2983-177.8232C3.6019,382.2889-.5888,362.2098-.5716,341.9791Z" style="fill:#003da6;"/><g><path d="M339.4034,235.5916c14.8553-25.8057,28.9703-51.942,33.7327-57.6169,9.6074-11.4669,50.0825-29.4971,48.557-40.544-.7713-5.5922-11.1019-16.3016-21.1088-25.5027-10.7816-8.2782-23.106-16.6047-28.7396-16.3842-11.1157,.4201-21.8457,43.4641-31.4531,54.931-8.6846,10.3581-79.0046,63.3607-95.654,85.1169h94.6657Z" style="fill:#fff;"/><path d="M140.585,470.2915c13.2128,9.9724,27.8512,19.5764,43.9806,28.4916h102.4412c16.1295-8.9325,30.7678-18.5364,43.9806-28.4917H140.585Z" style="fill:#fff;"/><path d="M412.0203,377.5713c5.0792-10.4614,7.7617-22.7479,7.7617-35.5578-.0172-19.9139-.0517-44.659-.0827-71.6699H51.8422c-.0344,27.097-.0689,51.8766-.0861,71.6699-.0172,12.8099,2.6653,25.0963,7.7651,35.5578,10.5957,21.8078,28.9875,46.973,55.3959,71.3497h241.7211c26.4084-24.3766,44.7864-49.5419,55.3821-71.3497h0Z" style="fill:#fff;"/></g><path d="M112.3344,162.7303c-22.5344-22.5653-61.6493-13.4159-61.6493-13.4159,0,0-9.1391,39.1665,13.3953,61.7319,22.7857,22.8168,61.3153,13.0785,61.3153,13.0785,0,0,9.7245-38.5984-13.0613-61.3944h0Zm63.5295-64.0977c0-32.2692-34.1218-52.6652-34.1218-52.6652,0,0-34.1184,20.396-34.1184,52.6652,0,31.9145,34.1184,53.1335,34.1184,53.1335,0,0,34.1218-21.219,34.1218-53.1334h0Zm56.9386,50.6679s-39.1184-9.1529-61.6527,13.4125c-22.7858,22.8133-13.0613,61.3944-13.0613,61.3944,0,0,38.5295,9.721,61.3153-13.0785,22.5344-22.5653,13.3987-61.7285,13.3987-61.7285h0Z" style="fill:#8cc745;"/><path d="M911.1925,503.2803v-176.2771h26.3739c63.0749,0,92.6478,36.398,92.6478,88.1403s-29.573,88.1368-92.6478,88.1368h-26.3739Zm-37.7754,33.1921h66.6458c78.0542,0,129.3557-48.5364,129.3557-121.3289s-51.6803-121.3151-129.3557-121.3151h-66.6458v242.644Zm-273.7148-66.0122l30.2961-75.6472c6.0537-14.2699,11.7562-36.0467,11.7562-36.0467,0,0,6.0537,21.7596,12.1211,36.0467l30.2961,75.6472h-84.4695Zm-63.0749,66.0122h36.3498l13.8981-34.2493h110.8296l13.8981,34.2493h39.201l-106.1981-245.144h-4.2769l-103.7016,245.144Z" style="fill:#6ea101;"/><path d="M779.0371,293.8284h37.4242v242.644h-37.4242v-242.644Z" style="fill:#6ea101;"/><g><path d="M381.9411,519.1998h-6.3051v-2.9063h15.8608v2.9063h-6.3051v18.3161h-3.2679v-18.3161h.0172Z" style="fill:#003da6;"/><path d="M394.7166,516.073h.3684l10.1274,11.856,10.0448-11.856h.334v21.4394h-3.1543v-11.0124c0-1.1915,.1205-3.0544,.1205-3.0544,0,0-1.0227,1.5944-1.8974,2.5516l-5.3306,6.4291h-.3684l-5.3306-6.4291c-.8058-.9745-1.8802-2.5516-1.8802-2.5516,0,0,.1171,1.8801,.1171,3.0544v11.0124h-3.1508v-21.4394Z" style="fill:#003da6;"/></g></svg>