<?xml version="1.0" encoding="UTF-8"?><svg id="Layer_1" xmlns="http://www.w3.org/2000/svg" viewBox="0 0 609.2359 635.3828"><path d="M298.3062,11.78c4.6634,0,9.3268,0,13.9902,0,.9789,.5263,2.0555,.4044,3.0956,.4152,5.5672,.0578,11.1122,.4401,16.6594,.9042,5.8443,.489,11.6654,1.1623,17.4622,2.0091,7.8021,1.1398,15.5486,2.5999,23.2435,4.3434,19.8426,4.4959,39.0323,10.9259,57.567,19.3093,72.8466,32.949,129.8651,93.1332,158.8158,167.6511,6.6852,17.2073,11.7329,34.8872,15.1444,53.0334,1.5563,8.2777,2.7993,16.5981,3.649,24.9795,.6525,6.4354,1.2633,12.8705,1.2661,19.3475,.0034,7.5961-.0258,15.1925,.0325,22.7882,.0625,8.1387-.6374,16.2279-1.531,24.2997-.8353,7.5454-1.994,15.047-3.4051,22.5106-3.5285,18.6634-8.7669,36.8289-15.7197,54.5025-28.8286,73.2804-85.243,132.8061-156.9839,165.6448-19.9468,9.1304-40.655,15.9709-62.0873,20.6206-7.7088,1.6724-15.4788,3.0309-23.2976,4.0652-4.765,.6304-9.5548,1.0962-14.344,1.5145-4.3415,.3792-8.6969,.6001-13.047,.8774-1.2757,.0813-2.5557,.0944-3.8311,.1777-5.183,.3386-10.3686,.4436-15.5588,.2125-2.8548-.1271-5.7096-.2581-8.5633-.407-3.3783-.1762-6.7643-.2777-10.1314-.5827-6.135-.5559-12.2631-1.1767-18.3663-2.0529-7.5868-1.0892-15.1202-2.4364-22.6108-4.0581-18.6261-4.0326-36.6996-9.8037-54.201-17.325-41.534-17.8495-77.3959-43.6323-107.539-77.3203C30.8043,466.4778,3.4603,398.9827,.9014,328.234c-.0353-.9767-.0692-1.9567-.1782-2.9268-.0996-.8866-.1214-1.8131-.7232-2.5655v-12.1857c.7662-1.6845,.8189-3.4927,.8719-5.2897,.1976-6.6932,.7012-13.3632,1.3708-20.0249,.7596-7.5582,1.8246-15.0697,3.143-22.5499,2.7715-15.7249,6.7208-31.1493,12.0477-46.1963,21.9644-62.0443,59.8972-112.0495,113.6749-149.9392,30.1656-21.2535,63.2666-36.2602,99.0489-45.3358,8.1584-2.0692,16.3878-3.787,24.6814-5.1905,4.2943-.7267,8.6131-1.3256,12.9357-1.8624,3.6526-.4536,7.3268-.7325,10.991-1.0921,4.4157-.4333,8.8365-.7759,13.2768-.8117,1.3536-.0109,2.7091-.0264,4.0592-.1115,.7399-.0467,1.4702-.2431,2.2049-.3719Zm209.9748,304.7367c.1208-112.1427-90.8337-202.9097-202.4752-203.2922-112.0991-.3841-203.8078,90.3795-203.9091,203.0044-.1012,112.5533,91.1279,202.9777,202.3801,203.4075,112.2527,.4336,204.0394-90.5391,204.0042-203.1196Z" style="fill:#c00;"/><path d="M406.0271,316.422c.0234,55.7047-44.9835,101.4536-101.4443,101.4482-55.9219-.0053-101.4148-45.1708-101.374-101.5151,.0406-56.0188,45.2512-101.4244,101.5539-101.335,56.6772,.09,101.2778,46.0458,101.2644,101.4019Z" style="fill:#c00;"/></svg>