<?xml version="1.0" encoding="UTF-8"?><svg id="Layer_1" xmlns="http://www.w3.org/2000/svg" viewBox="0 0 1154.0426 474.383"><path d="M457.7146,340.0572c0-9.3428-.292-15.7659-.7299-23.065h23.5029c10.8026,0,18.1016,3.7955,18.1016,12.9923,0,9.0508-9.0508,12.9923-14.5981,13.7222v.146c5.4013,.146,16.0579,3.7955,16.0579,14.0142,0,11.9704-10.2186,16.6418-20.8752,16.6418-4.8174,0-20.2913-.146-22.335,0,.4379-7.445,.7299-13.7222,.7299-23.065v-11.3865h.1459Zm17.9556-18.3936c-2.6276,0-3.0656,0-4.3794,.292-.146,4.0875-.4379,8.7588-.4379,11.6785,0,3.0656,.146,5.6933,.146,8.4669h4.0875c5.1093,0,10.2186-3.5035,10.2186-10.5106,0-5.5473-2.4817-9.9267-9.6347-9.9267Zm-.7299,25.1087h-3.7955c0,2.3357-.146,4.6714-.146,8.175,0,5.1093,.146,11.6785,.146,14.5981,1.6058,0,3.0656,.146,4.9633,.146,5.2553,0,9.7807-3.9415,9.7807-11.3865,.146-7.591-3.7955-11.5325-10.9485-11.5325Z" style="fill:#231f20;"/><path d="M588.9513,340.0572c0-9.3428-.146-15.7659-.7299-23.065,5.4013,0,32.4078,.146,34.7434,0-.146,1.0219-.146,5.9852,0,7.299-6.715-.5839-18.1016-.5839-20.7292-.5839-.4379,6.1312,0,11.6785,0,17.6637,7.8829-.146,13.7222-.292,20.4373-.5839-.2919,1.8978-.2919,5.4013,0,7.1531-6.7151-.4379-13.5762-.7299-20.4373-.7299v10.6566c0,3.5036,0,6.4232,.146,9.6347,6.7151,0,13.7222,.4379,20.5833-.4379-.146,1.3138-.146,6.4232,0,7.445-3.2116,0-32.6997-.146-34.7434,0,.584-7.445,.7299-13.7222,.7299-23.065v-11.3865Z" style="fill:#231f20;"/><path d="M761.5007,374.5087c-3.0656-.146-13.1383-.146-15.474,0-2.0437-5.5473-4.0875-11.3865-6.4232-16.9337-3.7955-.146-17.6637-.146-20.7293,0-2.6277,5.5473-4.3795,11.3865-6.2772,17.0798-1.3138-.146-6.8611-.146-8.6129,0,4.2334-9.1968,17.6637-39.1229,25.5467-57.9544h6.8611c7.737,18.8315,18.2477,44.3781,25.1088,57.8084Zm-23.7949-21.8971c-2.7736-6.8611-5.1093-13.4302-8.0289-19.9994-3.0656,6.5691-5.8392,13.1383-8.6129,19.9994h16.6418Z" style="fill:#231f20;"/><path d="M832.4474,353.7794c0-9.0508,.2919-13.5762,.2919-19.5614,0-8.9048-.2919-14.4521-.4379-17.2257,2.4816,.146,4.9633,.2919,7.445,.2919,2.3357,0,4.9633-.146,7.2991-.292-1.1678,10.8026-1.3138,19.5614-1.3138,29.1962,0,20.4373,6.4232,23.7949,17.9557,23.7949,14.3061,0,15.328-14.4521,15.328-30.0721,0-7.591-.2919-15.182-.7299-22.919,1.6057,.146,3.2116,.292,4.6713,.292,1.6058,0,3.0656-.146,4.3795-.292-.584,4.8174-1.0219,16.7878-1.0219,31.3859,0,19.2695-9.0509,27.2984-26.4226,27.2984-15.328,0-27.4444-6.2771-27.4444-21.8971Z" style="fill:#231f20;"/><path d="M980.6179,330.5685c0-3.0656,.146-5.8392-.146-7.0071-3.3575,0-10.9485,0-16.3499,.5839,.2919-1.1678,.2919-5.9852,0-7.299,8.0289,.146,38.393,.146,45.984,0-.2919,1.3138-.2919,6.1312,0,7.299-4.8174-.4379-12.7004-.4379-16.2039-.4379v27.7363c0,9.3428,.2919,15.6199,.7299,23.065-2.0437-.146-12.7003-.146-14.744,0,.584-7.445,.7299-13.7222,.7299-23.065,0,0,0-20.8752,0-20.8752Z" style="fill:#231f20;"/><path d="M1117.8399,341.955c4.8174-6.2772,9.6347-16.7878,13.5762-24.9627h8.6129c-4.0874,6.2772-13.2843,22.1891-18.8316,32.6997,0,2.6277-.146,4.6714-.146,7.445,0,5.5473,.146,11.2405,.8759,17.5177-2.4817-.146-12.7003-.146-15.182,0,.4379-5.2553,1.1678-10.9485,1.1678-16.0579,0-2.6277,0-5.2553-.146-7.737-6.4231-11.2405-16.6418-29.1961-19.4154-33.8675h15.9119c4.2334,8.1749,11.0945,21.1672,13.5762,24.9627h0Z" style="fill:#231f20;"/><g><g><path d="M231.0064,42.1104c-1.3138,31.2399-1.3138,70.8007-1.3138,106.274,0,65.6914,.8759,80.4354,13.1383,96.6393,12.2624,16.0579,35.3274,25.1087,64.9615,25.1087,34.4515,0,61.6039-17.2257,71.0927-42.4804,3.3576-9.0508,5.5473-21.7511,5.5473-55.6187,0-53.7209-.4379-107.5879-3.7955-161.1628,5.9852,.8759,32.6997,.8759,39.1228,0l-1.4598,19.5615c-2.0437,35.4733-3.3576,120.4342-4.2335,162.0387-.8759,48.7576-15.182,70.9467-43.3563,88.3184-19.9994,12.4084-48.3197,17.6637-71.3846,17.6637-50.9473,0-112.1133-15.62-121.456-79.5596-1.0219-5.8392-1.0219-18.1016-1.0219-21.7511V84.8827c0-21.0212-.8759-53.137-2.0437-74.1583,9.7807,1.3138,48.7576,1.3138,57.3705,0l-1.1678,31.3859Z" style="fill:#231f20;"/><path d="M483.4072,124.0056c0-18.1016,0-22.0431-1.1678-58.6843-.5839-8.6129-1.3138-45.692-1.8978-53.429,10.8026,2.0437,48.6116,1.6058,59.1222,0-2.9196,62.0418-4.2335,113.7191-4.2335,176.9288,0,28.7582,.8759,55.4727,1.3138,77.9537h7.737c12.2624,0,73.5743,0,98.537-3.6495-1.4598,4.5254-1.6058,24.9627,0,30.364-21.7511-.7299-58.2463-2.3357-81.1653-2.3357-27.2984,0-50.2174,.7299-81.3113,2.4817,0-6.4231,3.0656-101.7486,3.0656-112.1133v-57.5164Z" style="fill:#231f20;"/><path d="M761.5007,237.2867c0,31.2399,1.6058,44.6701,3.0656,56.2026-12.4084-1.1678-44.6701-1.6058-59.9982,0,1.8978-31.0939,4.0874-62.7718,4.0874-94.0117l-.2919-114.595c0-15.182-.4379-29.4881-1.0219-45.546h-21.1672c-3.7955,0-44.5241,.8759-66.4213,2.7736,1.3139-4.6714,2.3357-27.7363,1.0219-32.6997,33.5756,2.0437,79.8515,2.0437,112.6972,2.0437,35.1814,0,73.1364-.7299,113.719-2.7736-1.3137,7.1531-1.7517,27.0065-.2919,33.5756-25.1087-2.4817-55.3268-2.9196-84.6689-2.9196-.292,14.89-.7299,30.364-.7299,45.9839V237.2867Z" style="fill:#231f20;"/></g><path d="M1012.2957,248.5272l-17.8097-43.5023c-18.2476-.7299-88.1724-.7299-104.9602,0-13.7222,31.5319-27.1524,65.3994-34.0135,88.7563-5.5473-.7299-33.4296-.7299-39.5608,0l49.1955-105.5441c42.9183-92.4058,67.5891-145.6888,77.5158-177.5127h27.5904c20.4373,54.3049,45.546,111.6753,61.02,146.1268,16.0579,35.6193,44.0862,97.2232,63.0637,136.93-6.2772-.292-56.6406-.292-64.2316,0l-17.8097-45.2541Zm-70.0708-169.4837l-43.0644,100.5808c15.036,.4379,29.1961,1.1678,43.9402,1.1678,8.4669,0,21.3132,0,39.1229-1.1678l-39.9988-100.5808Z" style="fill:#231f20;"/></g><path d="M113.7838,23.4248C47.5085,68.3869,8.6776,124.7355,8.6776,193.7844c0,156.6374,189.0452,272.2543,458.8177,272.2543,120.7261,0,221.7449-31.2399,296.487-69.7789h-4.6714c-90.0701,27.2984-181.4541,38.393-275.3198,38.393-271.0864,0-457.6499-127.2953-457.9419-244.8098,0-65.1075,30.218-121.3101,87.7345-162.4767v-3.9415Z" style="fill:#231f20;"/><path d="M1061.3453,10.4325c9.0508,0,16.7878,7.299,16.7878,16.9338s-7.737,17.0798-16.7878,17.0798c-9.1968,0-17.2257-7.299-17.2257-17.0798-.146-9.6347,7.8829-16.9338,17.2257-16.9338Zm0,31.3859c7.737,0,13.8681-6.2772,13.8681-14.5981,0-8.1749-6.1312-14.4521-13.8681-14.4521-8.175,0-14.0142,6.2772-14.0142,14.4521,0,8.3209,5.8392,14.5981,14.0142,14.5981Zm-6.7151-24.3788h7.591c4.6714,0,7.0071,1.8978,7.0071,5.6933,0,3.5035-2.3357,5.1093-5.2553,5.4013l5.6933,8.7588h-3.3576l-5.2553-8.6129h-3.5036v8.6129h-2.9196V17.4396Zm2.9196,8.7588h3.2116c2.7736,0,5.2553-.146,5.2553-3.0656,0-2.7736-2.4817-3.0656-4.5254-3.0656h-3.9414v6.1312Z" style="fill:#231f20;"/></svg>