<?xml version="1.0" encoding="UTF-8"?><svg id="Layer_1" xmlns="http://www.w3.org/2000/svg" xmlns:xlink="http://www.w3.org/1999/xlink" viewBox="0 0 2157.0433 446.5739"><defs><clipPath id="clippath"><rect width="2157.0433" height="446.5739" style="fill:none;"/></clipPath><clipPath id="clippath-1"><rect width="2157.0433" height="446.5739" style="fill:none;"/></clipPath></defs><g style="clip-path:url(#clippath);"><g style="clip-path:url(#clippath-1);"><path d="M2048.6138,263.3073c40.6483-51.035-12.6009-125.6358,44.9532-145.8581-1.333-14.3384-14.7756-22.9096-31.9332-22.9096-15.4648,0-32.0111,8.4544-42.5955,22.1067-60.631,78.2348-123.5777,138.4882-159.5853,138.4882-11.9956,0-16.2079-5.5124-16.2079-14.9106,0-29.18,36.6339-71.9734,64.8401-101.7975,3.5651-3.8917,5.1859-7.7833,5.1859-11.3485,0-8.754-10.0482-14.59-22.3703-14.59-30.9716,0-95.2725,49.0188-142.7784,93.7775,17.0167-32.14,35.9057-57.7219,35.9057-71.5809,0-14.59-15.2371-18.8022-32.7451-18.4787-67.815,90.1464-154.8309,156.7451-210.6862,156.7451-14.4611,0-24.1198-4.8803-30.1806-12.0914,71.1254-29.0692,130.519-77.6176,130.519-113.4485,0-22.1966-18.6194-32.074-44.7076-32.074-66.9792,0-151.718,71.2633-155.9093,142.6165-64.5465,23.2122-112.6276,19.0778-127.4693,3.0049,71.1196-29.0691,130.5191-77.6206,130.5191-113.4485,0-22.1966-18.6225-32.074-44.7107-32.074-67.5575,0-153.1861,72.4886-156.0112,144.456-32.3167,9.9344-69.0583,14.3024-69.0583-12.3311,0-43.9348,65.8107-80.0143,65.8107-109.2542,0-8.1039-3.568-14.9135-9.7276-18.4757-20.9893,10.8122-52.1915,19.7729-74.8884,19.7729,5.836-18.1521-.3236-32.4186-18.1521-32.4186-26.262,0-46.2866,29.5006-46.2866,53.4917,0,10.5246,3.8827,17.8406,10.24,22.6789-26.0463,35.043-59.049,67.108-103.556,92.5821,13.2897-27.5622,23.5807-57.2365,37.877-99.1221,34.5367-20.3721,52.0657-61.8592-17.5259-61.8592-57.0508,0-120.0664,34.282-159.5014,80.3918-51.4904,60.2025-114.1884,93.8224-125.3092,48.138,85.0175-63.9563,164.0701-154.3604,163.2013-199.3917-.3116-16.2887-10.0063-27.3525-32.814-27.3525-53.974,0-179.8494,122.7058-190.5388,231.9211-90.1135,48.2548-79.9035-27.7719-52.3533-67.7731,40.0401-20.5548,67.7521-65.9336-6.9176-65.9336-108.3435,0-197.5192,100.7429-196.0123,165.1876,.4464,19.0808,10.0303,34.8243,30.2975,34.8332,23.2212,.018,60.4961-16.079,99.7543-56.6404-7.5586,38.8477,1.4411,56.6404,33.2934,56.6404,25.8965,0,59.076-13.0261,94.143-33.1855,5.824,18.1371,20.9532,33.1855,50.6785,33.1855,30.8517,0,68.8786-24.2937,98.6488-55.6517-1.531,6.9565-2.3398,13.9279-2.3398,20.8484,0,22.5411,12.1004,34.7943,30.0578,34.8033,20.2313,.015,50.5198-16.046,83.8671-47.5209-5.2458,14.3144-11.2437,28.8744-18.2989,43.069-71.7487,25.3363-145.7532,52.7607-145.7532,102.4266,0,21.0701,17.475,33.6199,39.5188,33.6199,53.7824,0,119.8777-64.244,161.1402-126.8941,51.1309-22.9216,110.6533-66.3261,156.5653-128.401,11.9417,.2906,25.1835-1.7676,37.4307-4.9881-39.2582,41.7148-57.3894,68.7288-57.3894,94.9878,0,21.7232,16.5344,33.7008,45.7113,33.7008,25.4621,0,57.4672-9.0087,95.3024-25.6598,11.0608,16.9598,34.1233,25.6598,63.7735,25.6598,44.2314,0,93.1664-15.0993,131.1123-30.7618,8.4065,17.9274,28.6407,30.7618,61.0863,30.7618,65.9576,0,125.6328-41.8556,175.9906-86.7041-22.7358,34.5966-56.5654,86.7041-9.0056,86.7041,7.4568,0,17.9543-1.2044,26.5646-4.0834,33.7157-61.5956,77.5037-101.4709,121.2677-127.7299-35.9866,44.7377-50.8971,78.78-50.8971,100.8238,0,20.423,12.6426,30.9895,33.3891,30.9895,63.1924,0,137.4308-64.954,201.3391-139.318,3.2775,28.4041,20.5728,58.8783-9.7127,85.329-45.7532-1.0755-71.3412,12.1154-71.2933,33.569,.0329,13.2149,11.1028,20.42,26.7654,20.42,15.9201,0,31.5408-4.6257,46.0379-11.7469,25.6267,7.4238,52.0866,15.3869,83.0071,15.3869,45.1002,0,76.8566-22.652,77.8543-60.1575-25.8604,13.5384-67.5394,8.4454-108.4272,4.8474M833.5633,66.0906c5.1859,0,7.4568,2.5944,7.4568,7.4568,0,22.3703-53.4917,91.7462-107.3069,135.5103,13.6163-47.6557,74.5618-142.967,99.8501-142.967M467.4832,238.6571c0-37.7393,58.6805-82.423,105.6951-82.423,9.47,0,18.3917,1.5549,26.1032,4.9852-56.853,89.4454-131.7983,118.8411-131.7983,77.4379m353.099,180.176c-5.2578,0-8.6372-2.6304-8.6372-8.2147,0-12.1753,23.9073-43.8419,86.7881-66.4729-26.7264,43.6651-57.8298,74.6876-78.1509,74.6876m51.1758-180.176c0-39.0904,59.4146-82.2792,105.3896-82.2792,9.0986,0,18.254,1.5399,26.3699,4.8414-53.977,86.063-131.7594,120.2851-131.7594,77.4379m507.5043-87.0427c6.8337,0,11.2796,2.933,11.2796,9.8924,0,18.1521-38.3774,50.5227-86.0061,73.5162,0-32.7751,49.8067-83.4087,74.7265-83.4087m122.8437,83.3098c0-32.7721,49.8067-83.4057,74.7234-83.4057,6.8368,0,11.2796,2.933,11.2796,9.8895,0,18.1521-38.3745,50.5287-86.003,73.5162" style="fill:#e32b25;"/><path d="M452.9581,.0009c-20.2223-.1109-39.7375,12.1304-52.3742,30.5042,59.7052,39.0425-13.4516,233.446-121.3457,233.446-12.9303,0-23.9012-3.7658-31.2412-11.4563,58.4079-52.6139,100.6021-124.1618,100.6021-166.356,0-21.5734-10.5396-35.2586-35.2407-35.2586-71.6618,0-147.2152,117.5768-133.2004,202.3995-45.1841,16.052-67.6383-4.0265-67.6383-44.3542,0-84.1996,87.9774-171.5269,82.8694-197.8009C104.2301,39.307,32.8859-26.1712,0,80.3927c44.3123-24.1109,85.2152,14.4312,135.7649-13.7481-43.4135,50.0793-87.2314,120.9832-86.6412,180.8651,.3895,39.1923,21.5584,67.4675,67.4166,67.4675,26.0403,0,53.0633-9.1195,79.0736-23.9941,11.1447,13.9309,29.1051,23.9941,56.5535,23.9941,111.9116,0,234.2219-157.2454,234.2219-269.4506C486.3893,15.7593,474.5765,.1207,452.9581,.0009M237.6313,216.2175c.9737-60.6249,43.764-124.3356,65.4872-124.3356,6.4172,0,7.7803,4.1673,7.7803,8.5982,0,20.7465-30.7978,76.1856-73.2676,115.7373" style="fill:#e32b25;"/></g></g></svg>